<svg xmlns="http://www.w3.org/2000/svg" width="94" height="94" fill="none" viewBox="0 0 94 94"><rect width="83.778" height="52" x="5.111" y="21" fill="#003192"/><rect width="84" height="14" x="5" y="40" fill="#fff"/><rect width="52" height="14" x="40" y="73" fill="#fff" transform="rotate(-90 40 73)"/><rect width="52" height="8" x="43" y="73" fill="#C01A1A" transform="rotate(-90 43 73)"/><rect width="84" height="8" x="5" y="43" fill="#C01A1A"/><path fill="#fff" d="M5 26L29.5 40.5V42H41.5V38.5L11.5 21H5V26Z"/><path fill="#fff" d="M89.5 26L65 40.5V42H53V38.5L83 21H89.5V26Z"/><path fill="#fff" d="M5 68L29.5 53.5V52H41.5V55.5L11.5 73H5V68Z"/><path fill="#fff" d="M89.5 68L65 53.5V52H53V55.5L83 73H89.5V68Z"/><line x1="5.521" x2="87.521" y1="22.146" y2="72.146" stroke="#C01A1A" stroke-width="2"/><line x2="96.042" y1="-1" y2="-1" stroke="#C01A1A" stroke-width="2" transform="matrix(0.853796 -0.520607 -0.520607 -0.853796 6 71)"/></svg>