<?xml version="1.0" ?><svg style="enable-background:new 0 0 48 48;" version="1.1" viewBox="0 0 48 48" xml:space="preserve" xmlns="http://www.w3.org/2000/svg" xmlns:xlink="http://www.w3.org/1999/xlink"><g id="Padding__x26__Artboard"/><g id="Icons"><g><path d="M19.75293,20.70975c-0.67749-0.39069-1.52509-0.62042-2.31781-0.73706    c-1.59314-0.17365-4.27057-0.0946-4.30084-0.09375c-0.23065,0.01318-0.4447,0.03503-0.65155,0.06049    c-0.073,0.00897-0.14484,0.02057-0.21716,0.03107c-0.15363,0.02283-0.30402,0.0473-0.4444,0.07642    c-0.03363,0.00665-0.06714,0.01361-0.10052,0.02069c-1.22961,0.27307-1.94189,0.77435-2.35632,1.25684    c-0.21301,0.24798-0.3721,0.54206-0.47406,0.85214c-0.08752,0.26618-0.10966,0.51999-0.10456,0.79782    c0.01862,1.01282,0.23138,3.64581,1.86127,5.37231c1.03076,1.0918,2.46729,1.64551,4.26904,1.64551    s3.23779-0.55371,4.26855-1.64551c0.39355-0.41663,0.703-0.88678,0.95502-1.38776    c0.52684-1.05104,0.80624-2.24731,0.89057-3.41648c0.04087-0.56541,0.03678-1.13204-0.21359-1.65105    c-0.21604-0.44785-0.56063-0.82804-0.96485-1.11436C19.81921,20.75404,19.78627,20.73159,19.75293,20.70975z" style="fill:#303030;"/><polygon points="6.99902,27.28519 7.86768,27.55863 8.87207,27.15433 8.61035,26.55277   " style="fill:#303030;"/><path d="M38.98688,27.1644l0.97943,0.39423l0.86865-0.27344l-1.58685-0.72131    C39.17047,26.76475,39.08344,26.96494,38.98688,27.1644z" style="fill:#303030;"/><path d="M39.19859,22.572c-0.01637-0.16486-0.04948-0.3276-0.11216-0.48786    c-0.12498-0.3195-0.32273-0.64194-0.56635-0.88556c-0.0498-0.05133-0.09949-0.10266-0.15674-0.15369    c-0.10211-0.09467-0.21533-0.17743-0.33069-0.25806c-0.30597-0.21069-0.69318-0.4054-1.17859-0.56207    c-0.08649-0.02679-0.17456-0.05115-0.26349-0.0744c-0.14081-0.03857-0.28485-0.07562-0.44128-0.10748    c-0.21747-0.04236-0.43848-0.07867-0.66357-0.10571c-0.12823-0.01544-0.26508-0.02637-0.40234-0.03723    c-0.1015-0.00861-0.20282-0.01678-0.30469-0.02313c-0.43719-0.01166-2.77875-0.06293-4.20685,0.09479    c-0.79004,0.1156-1.63556,0.34363-2.31299,0.73132c-0.41507,0.23755-0.77565,0.63622-1.00528,1.0511    c-0.29958,0.54125-0.32865,1.08641-0.27594,1.69092c0.07137,0.81859,0.18406,1.61969,0.43422,2.40739    c0.2902,0.91375,0.73952,1.79468,1.40358,2.4944c1.03076,1.0918,2.4668,1.64551,4.26855,1.64551s3.23828-0.55371,4.26904-1.64551    c0.33374-0.35352,0.60406-0.7467,0.82953-1.15497l0.53009-1.21924c0.29707-0.89021,0.46394-1.8366,0.49396-2.77453    C39.21337,22.98649,39.219,22.7776,39.19859,22.572z" style="fill:#303030;"/><path d="M21.75031,22.82725c0.1651-0.04938,0.3559-0.13934,0.52948-0.32819    c0.26245-0.28687,0.38818-0.7168,0.40308-1.25781h2.63428c0.01495,0.54083,0.14081,0.97064,0.40356,1.25684    c0.17346,0.18945,0.36426,0.27954,0.52942,0.32892c-0.01184-0.23138,0.06403-0.73877,0.06403-0.73877    c0.21887-1.03699,1.00214-1.75165,2.01367-2.2157c0.85913-0.43079,1.65424-0.52625,1.67023-0.52777    c0.09467-0.01721,0.19727-0.03284,0.3056-0.04718c0.47552-0.07544,0.95654-0.11597,1.42096-0.12469l0.5498-0.01367    c0.76196-0.02112,1.67419-0.04303,2.62579,0.02173c0.25043,0.01752,0.50134,0.03931,0.75098,0.07159    c0.11078,0.01428,0.21283,0.0329,0.31793,0.05017c0.138,0.02209,0.27472,0.04626,0.4104,0.07434    c0.06836,0.01465,0.13556,0.02972,0.20129,0.04572c1.08234,0.25201,2.05554,0.71948,2.68304,1.56146    c0.24933,0.31866,0.4397,0.68335,0.54944,1.07324c0.1106,0.39276,0.10858,0.77356,0.09259,1.17651    c-0.00708,0.17859-0.02002,0.35712-0.03003,0.53558h0.71887c0.1333,0,0.25488-0.0752,0.31348-0.19434l0.63232-1.27734    l0.85791-0.68652c0.08301-0.06641,0.13135-0.16699,0.13135-0.27344v-1.40137c0-0.16309-0.11279-0.30469-0.27148-0.34082    l-4.29248-0.9873c-0.48297-0.11505-0.96948-0.21539-1.4588-0.2995c-0.4549-0.07812-0.91217-0.14215-1.37109-0.1908    c-0.42639-0.0451-0.85425-0.07697-1.28271-0.09424c-0.39764-0.01611-0.79578-0.01971-1.19366-0.00995    c-0.36853,0.00903-0.73676,0.02954-1.10394,0.06226c-0.33905,0.03021-0.67719,0.0708-1.01361,0.12231    c-0.30914,0.04736-0.61694,0.10394-0.92261,0.17023c-0.27893,0.06049-0.55615,0.12903-0.83099,0.20599    c-0.24829,0.06958-0.49469,0.146-0.73865,0.22961c-0.21735,0.07452-0.43274,0.15472-0.64569,0.24103    c-0.18604,0.07538-0.37024,0.1554-0.55206,0.24036c-0.15442,0.07214-0.30719,0.14783-0.45782,0.22748    c-0.16016,0.08472-0.31805,0.17377-0.47241,0.26862c-0.14233,0.08746-0.29736,0.17175-0.41956,0.2868    c-0.13293,0.12524-0.12292,0.30615-0.14478,0.47339h-2.71484c-0.00391,0-0.02301-0.2229-0.02734-0.24756    c-0.01373-0.078-0.04175-0.15295-0.09784-0.21063c-0.09534-0.09802-0.23309-0.17303-0.35004-0.24707    c-0.09473-0.06-0.19086-0.11761-0.28809-0.1734c-0.12482-0.07159-0.2514-0.14008-0.37939-0.20581    c-0.15472-0.07947-0.31152-0.15497-0.47003-0.22675c-0.18457-0.08368-0.3714-0.16241-0.56006-0.23645    c-0.21429-0.08411-0.43097-0.16223-0.64948-0.23468c-0.24396-0.08081-0.49023-0.15454-0.73834-0.2215    c-0.2735-0.07379-0.54919-0.13934-0.82654-0.19696c-0.30298-0.06299-0.60785-0.11658-0.91406-0.16113    c-0.3324-0.04834-0.66638-0.08612-1.0011-0.11377c-0.36176-0.02997-0.72449-0.0481-1.08746-0.05518    c-0.39105-0.00763-0.78241-0.00232-1.17316,0.01489c-0.42035,0.01862-0.84003,0.05109-1.2583,0.09637    c-0.44946,0.04865-0.89734,0.11218-1.34283,0.18915c-0.47858,0.0827-0.95441,0.18103-1.44141,0.29688l-4.29541,0.9873    c-0.15869,0.03613-0.27148,0.17773-0.27148,0.34082v1.40137c0,0.10645,0.04834,0.20703,0.13135,0.27344l0.8584,0.68652    l0.63135,1.27734c0.05908,0.11914,0.18066,0.19434,0.31396,0.19434h0.71887c-0.02948-0.52625-0.10199-1.09277,0.02515-1.61182    c0.10242-0.41797,0.31238-0.81641,0.58398-1.16907c0.51575-0.69415,1.26556-1.13464,2.13019-1.41241    c0.17059-0.0545,0.34406-0.10333,0.52148-0.14551c0.08582-0.0213,0.17426-0.04089,0.26459-0.06    c0.10541-0.02142,0.21143-0.03998,0.31818-0.0578c0.15179-0.026,0.3067-0.05005,0.47064-0.06964    c0.21118-0.02563,0.42279-0.04541,0.6344-0.06067c0.01086-0.00067,0.0199-0.00232,0.03076-0.00293    c0.00439-0.00012,0.0202-0.00055,0.02997-0.00079c0.92322-0.06256,1.83276-0.04077,2.5921-0.01971l0.5498,0.01367    c0.46552,0.00879,0.94769,0.0495,1.42432,0.12531c0.11597,0.01501,0.2265,0.03125,0.32764,0.0495    c0.00433,0,0.80774,0.09674,1.67261,0.53754c0.42904,0.21867,0.83415,0.45553,1.18648,0.78957    c0.26995,0.25594,0.48289,0.56766,0.62794,0.90993c0.15207,0.35885,0.237,0.75307,0.23835,1.14326    C21.75274,22.7346,21.75671,22.82533,21.75031,22.82725z" style="fill:#303030;"/><path d="M26.25012,22.827l0.06403-0.73877C26.31415,22.08823,26.23828,22.59562,26.25012,22.827z" style="fill:#303030;"/></g></g></svg>