<?xml version="1.0" standalone="no"?>
<!DOCTYPE svg PUBLIC "-//W3C//DTD SVG 20010904//EN"
 "http://www.w3.org/TR/2001/REC-SVG-20010904/DTD/svg10.dtd">
<svg version="1.0" xmlns="http://www.w3.org/2000/svg"
 width="700.000000pt" height="700.000000pt" viewBox="0 0 700.000000 700.000000"
 preserveAspectRatio="xMidYMid meet">
<metadata>
Created by potrace 1.11, written by Peter Selinger 2001-2013
</metadata>
<g transform="translate(0.000000,700.000000) scale(0.100000,-0.100000)"
fill="#000000" stroke="none">
<path d="M1510 4301 l0 -69 -290 -7 -290 -7 0 -69 0 -69 -65 0 -65 0 0 -145 0
-145 70 0 70 0 0 -75 0 -75 70 0 70 0 0 -70 0 -70 75 0 75 0 0 215 0 215 65 0
65 0 0 -322 c0 -178 3 -374 7 -435 l6 -113 69 0 68 0 0 -75 0 -75 70 0 70 0 0
-70 0 -70 75 0 75 0 0 -70 0 -70 355 0 355 0 0 70 0 70 140 0 139 0 3 73 3 72
66 3 66 3 7 106 c3 58 6 155 6 215 l0 108 70 0 70 0 0 220 0 220 138 0 139 0
6 107 c4 58 7 123 7 145 l0 38 -75 0 -75 0 0 70 0 70 -102 0 c-57 0 -154 3
-215 7 l-113 6 0 69 0 68 -640 0 -640 0 0 -69z m1140 -151 l0 -70 -500 0 -500
0 0 70 0 70 500 0 500 0 0 -70z m-1140 -140 l0 -70 -70 0 -70 0 0 70 0 70 70
0 70 0 0 -70z m1570 -75 l0 -145 -70 0 -70 0 0 75 0 75 -75 0 -75 0 0 70 0 70
145 0 145 0 0 -145z"/>
<path d="M4220 4302 l0 -69 -112 -6 c-62 -4 -159 -7 -215 -7 l-103 0 0 -70 0
-70 -70 0 -70 0 0 -145 0 -145 138 0 139 0 6 -107 c4 -58 7 -189 7 -290 l0
-183 64 0 64 0 7 -145 7 -145 69 0 69 0 0 -75 0 -75 140 0 140 0 0 -70 0 -70
360 0 360 0 0 70 0 70 70 0 70 0 0 70 0 69 73 3 72 3 3 73 3 72 63 0 63 0 6
107 c4 58 7 189 7 290 l0 183 70 0 70 0 0 -70 0 -70 70 0 70 0 0 70 0 70 70 0
70 0 0 75 0 75 75 0 75 0 0 145 0 145 -70 0 -70 0 0 69 0 69 -290 7 -290 7 0
69 0 69 -640 0 -640 0 0 -68z m1140 -152 l0 -70 -500 0 -500 0 0 70 0 70 500
0 500 0 0 -70z m-1140 -140 l0 -70 -75 0 -75 0 0 -75 0 -75 -65 0 -65 0 0 145
0 145 140 0 140 0 0 -70z m1420 0 l0 -70 -70 0 -70 0 0 70 0 70 70 0 70 0 0
-70z m150 -150 l0 -70 -70 0 -70 0 0 70 0 70 70 0 70 0 0 -70z"/>
</g>
</svg>
