<svg version="1" xmlns="http://www.w3.org/2000/svg" width="640" height="640" viewBox="0 0 480.000000 480.000000"><path d="M238.8.5c-.1.1-3.2.5-6.8.9-6.3.6-10.4 1.1-16.5 2.1-1.6.3-3.2.5-3.5.5-.3.1-2.3.5-4.5 1.1-2.2.5-5.1 1.2-6.5 1.5-7.8 1.6-20.7 5.8-33.5 10.7-8.5 3.4-29.2 13.7-33.7 16.8-1.4 1.1-2.9 1.9-3.2 1.9-.4 0-1.2.5-1.9 1-.7.6-5.4 4-10.6 7.6-5.1 3.5-9.9 7-10.6 7.7-.7.7-3.7 3.2-6.6 5.7-8 6.7-22.6 21.5-29.5 30-6.6 8.2-19.4 26.3-19.4 27.6 0 .4-.6 1.5-1.4 2.3-2.3 2.6-11 20-15.4 30.7C22 181.1 17 207.8 17.6 243.5c.1 11 .5 21.3.7 23 .3 1.6.8 5.5 1.2 8.5.4 3 .8 5.7 1 6 .2.3.6 2.4 1 4.7.3 2.3 1.3 6.8 2.1 10 .9 3.2 1.7 6.5 1.9 7.3 1.3 6.3 6.6 21.5 11.3 32.5 5 11.6 20.3 39 23.2 41.5.3.3 1.7 2.1 3 4 9.3 13.7 28.4 33.7 44 46.2 33.2 26.6 73.7 44.3 115.5 50.4 13.6 2 46.3 2.6 59.5 1.1 10.3-1.1 24.8-3.6 33.5-5.8 10-2.5 30.4-9.4 36.9-12.5 2.8-1.3 5.3-2.4 5.6-2.4 1.4 0 23.8-12.5 31-17.3 26.6-17.7 49.8-40.9 67.9-68 6-9.1 6.5-10.3 6.5-15.2-.1-6.5-3.1-11.6-8.4-14.1-4.8-2.3-9.1-2.1-19 .9-17.8 5.6-29.2 7.2-50.5 7.2-19.9 0-29.8-1.2-45.7-5.4-49.4-13.2-91.9-48.5-113.4-94.1-4.9-10.6-5-10.7-7.9-18.9-2.3-6.8-4-12.6-5-17.6-3.6-17.6-3.8-20.1-3.9-37.5 0-17.8.2-21.3 2.5-34.5 4.5-26.4 17.8-55.2 35.4-77 11.4-14 19.8-22.1 34-32.6 7.7-5.7 7.9-5.9 10-9.9 1.2-2.3 1.6-4.8 1.3-8-.8-7.6-5.5-12.8-13.4-14.6-2.9-.6-39.9-1.5-40.6-.9z"/></svg>