<?xml version="1.0" standalone="no"?>
<!DOCTYPE svg PUBLIC "-//W3C//DTD SVG 20010904//EN"
 "http://www.w3.org/TR/2001/REC-SVG-20010904/DTD/svg10.dtd">
<svg version="1.0" xmlns="http://www.w3.org/2000/svg"
 width="700.000000pt" height="700.000000pt" viewBox="0 0 700.000000 700.000000"
 preserveAspectRatio="xMidYMid meet">
<metadata>
Created by potrace 1.11, written by Peter Selinger 2001-2013
</metadata>
<g transform="translate(0.000000,700.000000) scale(0.100000,-0.100000)"
fill="#000000" stroke="none">
<path d="M2107 4374 c-1 -1 -47 -4 -102 -8 -161 -10 -276 -25 -430 -57 -85
-17 -620 -138 -695 -156 -14 -3 -31 -7 -39 -9 -37 -7 -44 -31 -44 -142 1 -60
4 -118 7 -129 4 -11 36 -44 72 -73 57 -46 72 -66 115 -151 27 -54 57 -102 66
-107 26 -14 123 -12 123 2 1 213 4 231 43 309 84 165 227 263 461 317 123 28
200 34 461 34 406 1 535 -17 708 -97 164 -76 249 -158 292 -283 21 -62 23 -71
24 -116 1 -31 4 -36 19 -31 52 18 104 97 116 177 4 22 9 42 11 44 3 4 329 6
367 3 6 -1 22 -73 18 -86 -4 -17 56 -104 86 -123 20 -13 37 -22 39 -20 1 2 5
28 9 58 13 126 65 216 170 296 69 53 222 123 306 140 46 9 89 17 104 20 143
26 739 25 836 -1 8 -2 31 -7 50 -10 89 -15 222 -68 300 -119 69 -44 136 -122
177 -206 37 -72 38 -79 40 -190 1 -63 2 -118 3 -121 0 -11 118 -3 132 9 7 6
35 55 62 109 44 88 56 104 117 152 45 35 69 61 70 75 4 92 -2 230 -11 241 -6
7 -63 25 -128 40 -124 29 -247 57 -427 99 -141 32 -346 73 -410 80 -27 4 -68
9 -90 11 -116 15 -391 21 -505 10 -69 -6 -223 -25 -240 -30 -8 -2 -31 -7 -50
-10 -168 -28 -435 -130 -577 -221 -39 -25 -54 -42 -61 -66 l-8 -33 -194 0
-194 0 -8 33 c-26 100 -481 277 -813 316 -91 11 -371 25 -378 20z"/>
<path d="M1987 4104 c-1 -1 -49 -4 -106 -8 -58 -4 -107 -9 -110 -10 -3 -2 -22
-7 -41 -10 -182 -29 -357 -143 -418 -273 -25 -54 -27 -67 -26 -178 3 -201 48
-392 131 -558 129 -254 327 -392 622 -433 46 -6 224 -5 281 2 133 16 271 69
375 143 222 159 366 486 369 836 1 124 -1 133 -28 190 -89 182 -297 276 -643
291 -124 5 -402 11 -406 8z"/>
<path d="M4717 4104 c-1 -1 -58 -5 -126 -8 -342 -19 -540 -112 -627 -294 -24
-50 -28 -69 -28 -152 0 -91 3 -124 25 -270 18 -114 87 -301 143 -383 14 -21
26 -40 26 -43 0 -5 43 -55 90 -103 99 -102 273 -190 409 -207 25 -3 54 -8 65
-11 21 -6 241 -5 272 1 12 2 39 7 59 10 139 22 322 117 413 215 169 179 274
473 275 771 1 118 0 128 -27 179 -36 69 -118 151 -184 185 -70 35 -145 65
-185 71 -17 3 -48 10 -67 15 -58 14 -176 22 -358 24 -96 0 -174 0 -175 0z"/>
<path d="M1180 3094 c-41 -19 -92 -42 -113 -51 -44 -18 -41 -24 27 -46 47 -16
50 -16 115 9 36 15 70 30 74 34 4 3 0 25 -10 47 l-18 41 -75 -34z"/>
<path d="M5705 3084 c-8 -20 -15 -39 -15 -43 0 -3 31 -18 69 -33 69 -27 69
-27 125 -9 30 9 57 19 60 22 5 5 -202 100 -216 99 -4 0 -15 -16 -23 -36z"/>
</g>
</svg>
