<?xml version="1.0" standalone="no"?>
<!DOCTYPE svg PUBLIC "-//W3C//DTD SVG 20010904//EN"
 "http://www.w3.org/TR/2001/REC-SVG-20010904/DTD/svg10.dtd">
<svg version="1.0" xmlns="http://www.w3.org/2000/svg"
 width="512.000000pt" height="512.000000pt" viewBox="0 0 512.000000 512.000000"
 preserveAspectRatio="xMidYMid meet">
<metadata>
Created by potrace 1.14, written by Peter Selinger 2001-2017
</metadata>
<g transform="translate(0.000000,512.000000) scale(0.100000,-0.100000)"
fill="#000000" stroke="none">
<path d="M4048 4598 c9 -11 10 -18 2 -23 -7 -4 -7 -12 1 -26 6 -12 8 -23 5
-27 -3 -3 -6 0 -6 7 0 7 -4 10 -9 6 -5 -3 -13 0 -17 6 -5 8 -3 9 7 4 11 -6 11
-5 2 5 -6 7 -9 19 -5 28 3 10 -3 7 -16 -6 -27 -27 -51 -30 -31 -4 7 9 1 6 -14
-7 -15 -14 -27 -25 -27 -26 0 -7 46 2 52 10 4 6 13 2 22 -10 8 -11 12 -22 10
-25 -3 -2 -9 2 -14 10 -8 13 -12 12 -25 -5 -15 -20 -15 -20 -9 0 5 19 5 19 -9
2 -13 -15 -15 -16 -21 -2 -4 12 -14 9 -52 -20 -26 -20 -53 -34 -60 -31 -8 3
-14 1 -14 -3 0 -14 -29 -21 -36 -9 -5 7 -2 8 6 3 9 -6 11 -4 5 5 -6 9 -4 11 5
5 8 -5 11 -4 6 3 -4 7 2 9 18 6 21 -3 24 -1 21 16 -2 12 0 18 6 15 5 -4 7 -11
4 -16 -4 -5 -2 -9 4 -9 18 0 23 20 7 26 -9 3 -13 11 -9 17 4 6 1 7 -8 1 -8 -5
-17 -9 -21 -9 -3 0 -10 -4 -15 -9 -4 -5 -3 -6 4 -2 6 3 14 2 18 -4 6 -10 -7
-14 -32 -11 -7 1 -13 -3 -13 -9 0 -6 -5 -8 -10 -5 -6 4 -9 1 -8 -7 2 -8 -6
-12 -22 -11 -14 1 -19 -1 -12 -3 6 -3 12 -10 12 -15 0 -6 -7 -6 -18 0 -14 7
-19 6 -19 -4 0 -8 7 -11 16 -7 14 5 14 3 2 -11 -11 -14 -11 -18 3 -23 9 -3 16
-11 16 -17 0 -7 -4 -7 -12 1 -19 19 -32 14 -17 -5 13 -16 12 -17 -3 -5 -9 8
-14 21 -12 30 5 14 3 14 -6 -1 -9 -15 -8 -22 6 -38 9 -10 14 -20 11 -20 -4 -1
-11 -3 -17 -4 -5 -1 -15 -3 -21 -4 -8 -1 -8 -5 0 -15 8 -10 9 -16 1 -21 -6 -4
-9 -3 -8 2 2 4 -1 8 -7 8 -5 0 -9 -5 -7 -11 1 -7 -2 -15 -8 -19 -6 -3 -7 0 -4
9 3 9 1 16 -5 16 -10 0 -15 -14 -12 -33 1 -5 -3 -6 -8 -2 -6 3 -15 -3 -21 -14
-5 -11 -19 -19 -29 -18 -11 0 -17 5 -15 9 3 5 10 5 16 2 6 -4 14 -1 18 7 9 13
-15 38 -35 38 -5 0 -2 -4 8 -10 9 -5 17 -14 17 -19 0 -12 -22 -9 -33 5 -4 6
-5 -1 -3 -15 3 -14 5 -28 5 -32 1 -4 9 -5 19 -2 14 5 14 4 2 -4 -8 -6 -17 -9
-21 -6 -4 2 -10 0 -14 -6 -3 -5 -1 -10 4 -10 6 0 11 -5 11 -11 0 -8 -4 -8 -15
1 -8 6 -19 9 -25 5 -6 -4 -9 -1 -8 6 2 7 -5 15 -14 17 -10 2 -18 -1 -18 -7 0
-6 8 -7 18 -4 16 7 16 5 1 -17 -9 -14 -21 -25 -27 -25 -6 0 -14 -3 -18 -7 -3
-4 4 -5 16 -3 13 3 27 10 31 16 3 6 7 -1 7 -15 0 -15 -4 -29 -9 -32 -5 -3 -6
2 -3 10 3 9 1 16 -5 16 -10 0 -15 -13 -12 -32 1 -10 -41 0 -53 12 -5 5 -14 10
-19 10 -5 0 2 -9 17 -21 28 -22 27 -39 -4 -36 -10 1 -17 5 -14 9 3 4 10 6 17
4 7 -1 9 -1 5 1 -4 3 -10 4 -14 3 -4 -1 -11 4 -15 12 -6 8 -8 5 -5 -12 3 -14
5 -28 5 -32 1 -4 9 -5 19 -2 14 5 14 4 2 -4 -8 -6 -17 -9 -21 -6 -4 2 -10 0
-14 -6 -3 -5 -1 -10 4 -10 6 0 11 -5 11 -11 0 -6 -5 -7 -12 -2 -7 4 -22 8 -33
8 -11 0 -19 6 -18 13 2 6 -2 12 -7 12 -13 0 -13 -13 0 -26 8 -8 6 -15 -5 -24
-8 -7 -15 -9 -15 -4 0 4 -6 -1 -14 -12 -8 -10 -20 -19 -28 -19 -7 -1 -12 -6
-11 -13 2 -7 -2 -12 -7 -12 -6 0 -10 -8 -10 -17 0 -10 -4 -14 -8 -8 -4 6 -14
11 -22 13 -11 2 -10 -2 3 -12 11 -8 25 -12 32 -10 18 7 30 -15 16 -29 -9 -9
-11 -8 -6 6 4 10 2 17 -4 17 -10 0 -15 -12 -13 -30 0 -3 -9 -7 -20 -7 -19 -2
-19 -1 -3 11 14 10 15 15 5 21 -8 5 -11 4 -7 -2 4 -6 0 -13 -8 -17 -8 -3 -17
-1 -20 4 -8 13 -25 13 -25 0 0 -5 6 -9 13 -7 6 1 12 -7 12 -18 0 -11 4 -26 8
-32 5 -8 4 -13 -2 -13 -6 0 -11 5 -11 11 0 5 -5 7 -10 4 -6 -4 -8 -10 -6 -14
3 -4 0 -13 -6 -21 -8 -12 -9 -12 -4 3 3 9 2 17 -2 18 -4 0 -18 2 -32 5 -17 3
-20 1 -12 -5 8 -4 13 -11 12 -15 -1 -4 0 -10 3 -14 2 -4 2 -2 1 5 -2 7 0 14 4
17 4 3 8 -4 9 -14 3 -31 -14 -32 -36 -4 -12 15 -21 22 -21 17 0 -5 5 -14 10
-19 12 -12 22 -54 12 -53 -19 3 -32 -2 -32 -12 0 -6 7 -8 18 -4 13 5 14 3 5
-6 -17 -17 -34 -2 -29 26 4 19 1 22 -12 18 -11 -5 -12 -8 -3 -11 8 -3 5 -9 -9
-19 -15 -11 -24 -12 -34 -4 -10 9 -15 8 -19 -3 -4 -9 -1 -13 6 -10 8 2 13 -4
14 -17 2 -17 -1 -18 -13 -9 -8 7 -15 10 -15 6 -5 -25 -4 -34 8 -54 10 -17 11
-22 1 -20 -7 2 -12 -7 -13 -19 0 -12 -4 -25 -9 -30 -5 -4 -6 -3 -2 4 3 6 2 15
-4 18 -13 8 -42 -14 -34 -26 3 -5 -3 -6 -13 -2 -15 6 -16 4 -6 -8 7 -8 8 -20
4 -28 -7 -10 -12 -8 -24 10 -9 12 -14 26 -12 30 6 8 -25 22 -33 14 -3 -3 0 -5
6 -5 7 0 12 -7 12 -15 0 -17 -16 -20 -23 -5 -3 6 -4 5 -3 -2 2 -7 10 -12 19
-12 12 1 16 -6 15 -21 -1 -13 -5 -23 -8 -23 -18 2 -30 -3 -30 -13 0 -6 7 -8
16 -5 9 3 12 2 9 -4 -4 -6 -14 -9 -23 -8 -10 2 -16 -3 -14 -10 1 -8 -2 -11 -8
-7 -5 3 -10 2 -10 -4 0 -5 3 -11 8 -14 4 -2 1 -2 -7 0 -17 4 -43 -16 -35 -28
3 -5 -3 -6 -13 -2 -15 6 -16 4 -6 -8 8 -9 9 -20 3 -29 -6 -8 -10 -11 -10 -6 0
5 -7 3 -15 -4 -13 -11 -14 -10 -9 4 3 9 13 16 21 16 8 0 11 5 8 10 -4 6 -12 8
-18 4 -7 -3 -1 4 13 16 14 12 24 25 23 29 -2 3 1 6 6 6 13 0 26 14 26 28 1 7
6 11 13 9 7 -1 12 1 13 5 0 5 2 18 5 31 2 12 -1 22 -7 22 -5 0 -7 -4 -4 -10 3
-5 0 -10 -7 -10 -9 0 -9 -3 2 -10 13 -8 12 -10 -2 -10 -10 0 -18 -5 -18 -11 0
-5 -6 -7 -12 -3 -9 5 -9 2 1 -9 12 -15 11 -17 -3 -17 -15 0 -21 12 -17 33 1 5
-3 6 -9 2 -7 -4 -7 -12 0 -26 9 -15 7 -21 -5 -25 -8 -3 -13 -10 -10 -14 3 -4
-2 -13 -9 -19 -10 -8 -16 -9 -21 -1 -8 13 -25 13 -25 0 0 -6 5 -9 11 -8 6 2
13 -2 15 -7 2 -6 -5 -12 -16 -13 -44 -4 -50 -6 -50 -15 0 -5 6 -7 14 -4 10 4
12 0 8 -15 -3 -13 -1 -19 5 -15 5 3 10 0 10 -8 0 -8 -2 -13 -5 -10 -6 5 -27
-16 -33 -34 -3 -8 -16 -16 -30 -18 -18 -2 -20 -1 -9 6 8 5 17 8 21 5 4 -2 9 5
12 16 3 13 0 20 -8 20 -7 0 -12 8 -10 18 1 9 0 11 -2 4 -3 -7 -9 -9 -15 -6 -6
4 -8 2 -4 -4 3 -6 2 -13 -4 -17 -5 -3 -10 -1 -10 4 0 6 -5 10 -12 9 -6 -2 -14
6 -16 17 -4 17 -2 18 12 6 9 -7 16 -9 16 -3 0 5 -7 13 -16 16 -11 4 -18 -1
-21 -14 -6 -22 -23 -27 -23 -7 0 7 -15 21 -34 31 -25 13 -33 24 -31 38 3 12 2
18 -2 15 -3 -4 -19 1 -36 10 -26 13 -28 17 -14 25 9 5 17 14 17 19 0 6 -7 3
-16 -5 -17 -17 -39 -12 -28 6 4 7 2 8 -4 4 -7 -4 -12 -1 -12 7 0 8 -11 14 -29
14 -22 0 -28 -4 -24 -16 4 -14 3 -14 -5 -1 -14 18 2 39 26 35 9 -1 11 0 4 2
-11 4 -11 8 0 21 11 15 10 14 -8 0 -11 -10 -26 -18 -32 -18 -7 0 -12 -4 -12
-10 0 -5 -5 -10 -11 -10 -8 0 -8 4 0 14 6 7 8 22 5 32 -6 16 -5 17 7 7 7 -7
16 -13 20 -13 13 0 18 29 7 36 -6 4 -8 3 -4 -4 3 -6 2 -13 -4 -17 -6 -3 -14 4
-19 17 -8 18 -10 19 -10 5 -1 -10 -5 -16 -9 -13 -4 2 -9 -4 -9 -15 -1 -12 2
-17 10 -12 7 3 3 -3 -7 -15 -21 -24 -34 -30 -20 -9 5 6 9 19 8 27 -1 8 -2 21
-3 28 0 6 -4 11 -8 11 -23 -4 -35 3 -30 16 4 8 2 17 -3 20 -5 3 -11 -3 -13
-12 -4 -16 -5 -16 -6 -1 0 9 -10 19 -20 23 -11 3 -23 15 -26 25 -4 12 -12 17
-23 14 -13 -5 -14 -4 -4 4 11 7 10 10 -3 16 -10 3 -23 2 -29 -3 -8 -7 -12 -4
-12 8 0 12 6 17 18 13 10 -2 18 1 18 7 0 10 -22 16 -45 11 -5 -1 -6 2 -2 6 18
18 39 11 58 -19 10 -18 22 -32 26 -32 4 0 6 -7 5 -14 -3 -13 -2 -13 14 0 10 7
15 9 12 4 -4 -6 0 -19 8 -30 8 -10 14 -16 14 -12 0 4 9 3 21 -3 41 -23 2 26
-46 56 -25 16 -45 33 -45 37 0 5 4 6 9 2 6 -3 8 4 6 16 -3 13 1 30 8 38 11 14
10 14 -6 2 -10 -8 -16 -20 -13 -27 3 -7 1 -16 -4 -19 -4 -3 -10 -1 -12 4 -1 5
-10 11 -18 13 -8 2 -21 10 -28 18 -8 8 -11 10 -9 5 3 -6 -1 -19 -9 -30 -8 -10
-14 -14 -14 -8 0 7 4 14 10 18 5 3 7 12 4 20 -4 8 -10 12 -15 9 -5 -3 -6 2 -3
11 5 12 10 13 17 6 15 -15 24 -14 30 4 4 8 1 17 -5 21 -6 4 -8 3 -4 -4 3 -6 2
-13 -4 -17 -6 -3 -14 4 -19 17 -8 18 -10 19 -10 5 -1 -11 -5 -15 -13 -11 -6 4
-8 3 -5 -2 3 -6 1 -16 -4 -24 -9 -13 -10 -13 -8 0 3 29 -1 41 -11 35 -6 -4 -8
-11 -5 -16 4 -5 -2 -6 -11 -2 -11 4 -13 8 -6 11 7 2 17 12 22 22 8 15 6 21
-10 30 -17 9 -22 7 -29 -12 -9 -21 -9 -19 -8 10 1 21 6 31 14 28 7 -3 15 -2
17 3 3 4 -1 8 -9 9 -8 1 -22 3 -30 4 -9 1 -14 6 -11 12 2 6 7 20 11 31 6 20 6
20 -7 0 -7 -12 -17 -20 -23 -20 -16 1 -35 15 -35 28 0 8 3 8 12 -1 7 -7 15
-12 19 -12 13 0 18 29 7 36 -6 4 -8 3 -4 -4 3 -6 2 -13 -4 -17 -6 -3 -14 4
-19 17 -8 18 -10 19 -10 5 -1 -11 -5 -15 -13 -11 -6 4 -8 3 -5 -2 3 -6 1 -16
-4 -24 -9 -13 -10 -13 -8 0 3 27 -1 41 -9 36 -17 -10 -35 11 -25 29 7 12 13
14 17 6 4 -6 2 -11 -4 -11 -6 0 -8 -5 -4 -11 4 -8 9 -7 14 2 5 7 2 22 -6 34
-8 12 -12 24 -9 27 3 2 -2 5 -10 6 -8 1 -22 3 -30 4 -20 2 -27 25 -9 32 8 3
14 10 14 16 0 6 -7 4 -16 -5 -12 -12 -19 -13 -30 -4 -8 6 -14 17 -14 24 0 6
-13 12 -29 12 -22 0 -28 -4 -24 -16 3 -9 -3 -5 -13 9 -21 29 -26 48 -14 55 5
3 7 -2 6 -12 -3 -14 3 -18 33 -19 20 -1 28 1 18 3 -15 4 -16 7 -5 21 10 13 8
13 -9 -1 -14 -12 -23 -15 -28 -8 -3 6 -2 11 3 11 14 0 23 28 11 35 -5 4 -9 3
-8 -2 4 -24 -3 -25 -17 -3 l-15 25 7 -25 c6 -21 5 -23 -8 -13 -12 10 -15 10
-15 -2 0 -8 5 -12 10 -8 5 3 4 -4 -2 -15 -6 -12 -17 -24 -24 -28 -9 -6 -9 -4
-2 7 6 8 10 21 9 29 -1 8 -2 21 -3 28 0 7 -6 10 -11 7 -6 -4 -8 -11 -5 -16 3
-5 -1 -6 -9 -3 -12 5 -11 9 5 25 18 18 18 21 4 42 -8 13 -13 26 -10 29 3 2 -2
5 -10 5 -11 0 -12 -4 -4 -13 8 -10 6 -19 -5 -36 -9 -12 -16 -17 -16 -11 0 7 5
15 10 18 14 9 4 22 -22 28 -22 6 -22 5 -4 -8 11 -8 16 -15 10 -15 -15 0 -30
14 -37 32 -4 12 -13 16 -24 12 -15 -5 -16 -4 -3 5 8 6 16 15 16 21 1 5 3 11 4
13 7 6 6 46 -1 41 -4 -2 -5 -12 -2 -22 6 -15 5 -15 -10 -3 -13 10 -15 17 -6
27 9 11 7 15 -5 20 -9 3 -13 11 -9 17 3 6 1 7 -5 3 -18 -11 -14 -26 5 -26 19
0 10 -13 -12 -16 -17 -3 -27 20 -18 44 3 9 3 14 -2 10 -4 -4 -9 -21 -11 -37
-3 -25 0 -29 16 -26 11 2 22 0 25 -5 3 -5 -10 -8 -29 -7 -27 2 -32 5 -26 17 9
18 2 42 -11 35 -5 -4 -6 1 -3 9 3 9 11 13 16 10 6 -4 6 1 -1 13 -6 11 -7 23
-4 27 3 3 1 6 -6 6 -8 0 -10 -7 -6 -21 6 -18 5 -20 -14 -10 -12 7 -21 16 -21
21 0 5 -7 7 -15 4 -8 -4 -12 -11 -8 -18 3 -6 -6 0 -20 13 -15 14 -27 19 -27
13 0 -7 -5 -12 -11 -12 -5 0 -8 4 -5 9 3 5 0 14 -8 20 -8 7 -17 23 -20 37 -6
21 -9 23 -27 13 -19 -10 -20 -8 -15 13 3 12 3 17 0 11 -7 -16 -25 -17 -22 -2
2 6 -4 14 -12 16 -12 4 -12 3 -1 -5 9 -7 10 -12 2 -16 -6 -4 -9 -12 -5 -17 3
-5 9 -7 14 -4 5 3 11 1 14 -4 3 -5 15 -7 25 -4 18 5 22 -9 11 -37 -1 -3 -2 -7
-2 -10 0 -3 -7 -6 -17 -6 -10 0 -18 6 -18 12 0 7 6 10 13 7 6 -2 15 0 18 5 11
18 -34 21 -45 4 -10 -16 -10 -15 -5 0 3 11 -2 21 -12 26 -20 11 -45 4 -36 -9
3 -5 0 -9 -5 -9 -18 0 -12 19 9 32 24 15 26 25 5 25 -8 0 -12 -4 -9 -8 2 -4
-5 -10 -16 -14 -11 -4 -17 -11 -14 -17 5 -7 2 -8 -6 -3 -7 4 -16 2 -20 -6 -7
-10 -11 -10 -24 0 -12 10 -17 9 -28 -8 -7 -12 -17 -21 -22 -21 -6 0 -5 5 2 12
19 19 14 29 -7 16 -11 -7 -17 -17 -13 -23 3 -5 -3 -3 -13 5 -17 14 -18 13 -12
-2 3 -10 1 -20 -5 -24 -6 -4 -8 -3 -4 4 3 6 2 13 -4 17 -9 5 -14 -7 -11 -27 0
-4 -6 -5 -14 -2 -8 4 -15 11 -15 18 0 7 -4 6 -9 -3 -6 -9 -11 -10 -15 -2 -6
10 6 15 27 12 4 0 7 3 7 7 0 5 7 9 15 10 8 1 22 3 30 4 8 1 11 6 8 11 -3 6 -1
7 5 3 7 -4 18 -4 24 0 19 12 52 13 59 2 4 -6 9 -6 13 1 4 6 2 11 -4 11 -6 0
-8 5 -4 11 4 8 9 7 15 -2 6 -11 11 -11 20 -2 16 16 20 43 7 43 -6 0 -8 -7 -5
-15 4 -8 2 -17 -3 -20 -4 -3 -10 1 -13 7 -3 10 -8 10 -21 -1 -15 -13 -19 -13
-26 -1 -5 8 -7 17 -4 21 2 4 0 10 -5 14 -10 6 -7 -27 4 -44 3 -6 -4 -9 -15 -8
-11 1 -20 5 -20 9 0 4 -5 8 -11 8 -8 0 -8 -5 1 -15 8 -9 9 -15 2 -15 -6 0 -13
4 -17 9 -3 6 -14 9 -24 8 -13 -1 -17 -7 -14 -22 4 -15 2 -17 -5 -6 -7 10 -11
10 -14 1 -2 -7 -16 -12 -31 -12 -15 -1 -30 -4 -33 -9 -3 -5 3 -6 13 -3 13 5
11 0 -8 -21 -23 -24 -29 -26 -49 -15 -17 9 -25 9 -34 -1 -8 -9 -8 -10 1 -5 15
8 44 -4 37 -15 -3 -5 -9 -7 -13 -5 -11 7 -25 -6 -50 -46 -23 -38 -38 -51 -27
-23 10 26 -3 16 -19 -15 -11 -20 -20 -28 -33 -24 -16 5 -16 5 1 -6 25 -16 22
-33 -4 -20 -11 7 -23 9 -26 7 -2 -3 4 -8 14 -11 10 -3 24 -15 31 -27 8 -12 9
-18 3 -14 -10 6 -16 -7 -12 -28 1 -5 -9 -17 -21 -27 -20 -16 -21 -20 -8 -36 8
-11 10 -16 6 -12 -5 4 -19 -3 -30 -15 -12 -13 -27 -22 -34 -21 -7 1 -8 0 -2
-3 5 -2 7 -10 3 -16 -3 -7 4 -3 17 8 l24 20 -15 -24 c-20 -32 -36 -37 -41 -14
-3 16 -5 15 -10 -3 -5 -19 -2 -22 20 -19 14 1 31 11 39 21 7 10 13 13 13 5 0
-7 4 -9 10 -6 6 3 7 -1 3 -10 -3 -10 -8 -12 -12 -7 -10 17 -38 -11 -35 -35 3
-17 -1 -20 -19 -17 -20 4 -21 4 -2 -5 11 -4 28 -7 37 -5 20 3 25 -12 7 -18 -8
-3 -7 -13 3 -33 9 -17 13 -36 10 -44 -3 -9 0 -11 9 -6 8 5 10 4 6 0 -14 -16
-39 -15 -33 1 3 9 1 12 -4 9 -6 -3 -10 -1 -10 4 0 6 5 11 10 11 6 0 10 5 10
11 0 5 -5 7 -12 3 -6 -4 -8 -3 -5 4 10 14 -1 39 -20 46 -13 5 -14 4 -4 -8 10
-11 8 -17 -6 -25 -10 -6 -13 -11 -8 -11 6 0 16 5 23 12 9 9 12 9 12 0 0 -6 -8
-16 -18 -21 -9 -6 -11 -11 -4 -11 6 0 12 -7 12 -16 0 -8 -4 -13 -8 -10 -5 3
-9 -1 -9 -9 0 -11 4 -12 13 -4 8 7 14 7 19 -1 3 -6 11 -8 16 -5 5 4 9 1 9 -6
0 -8 4 -8 15 1 13 10 18 11 28 1 9 -10 8 -11 -4 -6 -10 4 -20 2 -23 -4 -4 -6
-14 -8 -24 -5 -14 5 -14 4 -3 -4 8 -6 27 -9 42 -7 22 3 26 0 22 -16 -4 -15 -2
-18 13 -13 18 6 18 6 0 -8 -19 -15 -19 -16 1 -22 12 -4 24 -14 27 -22 8 -20
-12 -56 -26 -48 -7 5 -8 2 -4 -5 6 -9 13 -8 28 6 11 10 22 17 24 16 2 -2 5 -3
7 -2 27 8 36 6 28 -9 -9 -16 -8 -18 33 -66 21 -23 23 -32 15 -48 -9 -16 -8
-19 2 -13 9 6 11 3 6 -8 -4 -12 -1 -15 14 -12 13 3 19 0 16 -8 -2 -7 -11 -11
-19 -9 -8 1 -23 -8 -34 -20 l-19 -23 22 18 c12 11 26 16 31 13 5 -3 17 3 27
14 10 11 22 20 27 20 5 0 0 -10 -12 -22 -18 -19 -30 -52 -13 -35 11 11 32 -14
26 -31 -4 -14 -3 -15 5 -2 6 8 8 18 6 22 -6 10 10 11 19 1 4 -3 1 -13 -6 -21
-6 -9 -7 -13 -1 -9 6 3 18 -3 27 -13 11 -13 12 -20 4 -24 -8 -3 -8 -5 -1 -5 6
-1 18 7 25 16 12 14 12 16 0 8 -10 -6 -12 -4 -6 5 6 9 4 11 -5 5 -9 -5 -11 -4
-6 3 10 16 23 15 30 -3 3 -9 -3 -24 -14 -35 -22 -22 -13 -28 9 -7 11 10 13 9
8 -5 -4 -13 -1 -16 14 -13 13 3 19 0 16 -8 -2 -7 -11 -11 -20 -9 -8 1 -18 -1
-21 -6 -4 -7 27 -8 44 -2 3 1 10 1 15 0 6 -1 7 2 3 6 -4 4 -3 13 4 21 9 11 7
13 -15 9 -27 -5 -46 18 -25 30 7 4 8 3 4 -4 -4 -7 -1 -13 6 -13 7 -1 18 -2 23
-4 6 -1 14 -3 19 -3 5 -1 3 -8 -3 -15 -6 -8 -8 -17 -4 -20 3 -4 -2 -9 -11 -13
-9 -3 -16 -10 -16 -15 0 -5 9 -4 20 3 11 7 20 18 20 24 0 16 28 25 36 12 4 -6
3 -8 -3 -5 -5 3 -20 -8 -33 -26 -16 -21 -18 -27 -6 -18 23 19 86 23 79 5 -5
-14 23 -74 36 -74 5 0 11 -10 15 -22 4 -16 9 -19 14 -11 5 8 13 9 22 3 13 -8
12 -10 -3 -10 -10 0 -15 -5 -12 -10 4 -6 12 -7 18 -4 7 4 9 4 5 -1 -5 -5 7
-17 25 -28 18 -12 27 -22 19 -24 -6 -3 -9 -10 -6 -15 4 -7 2 -8 -4 -4 -6 4 -8
14 -5 23 5 13 2 15 -11 10 -12 -5 -15 -3 -10 6 4 6 4 9 -1 5 -4 -4 -19 5 -31
20 -20 22 -24 24 -24 9 0 -11 -4 -15 -12 -11 -7 4 -8 3 -4 -5 4 -6 12 -9 17
-5 13 7 58 -33 55 -49 -1 -7 -6 -19 -11 -27 -5 -9 0 -8 13 4 21 18 28 13 23
-17 -1 -5 9 -6 21 -2 22 6 22 6 4 -9 -26 -21 -12 -21 19 0 22 14 25 14 41 -5
10 -11 21 -18 26 -15 4 3 8 0 8 -6 0 -6 5 -8 13 -4 7 5 6 0 -3 -11 -14 -17
-13 -18 2 -12 10 3 20 1 24 -5 4 -7 3 -8 -4 -4 -7 4 -12 2 -12 -3 0 -8 -7 -7
-20 1 -11 7 -15 15 -9 19 7 4 4 9 -6 12 -10 5 -14 3 -9 -5 4 -7 3 -8 -5 -4 -6
4 -8 13 -4 19 4 7 -1 6 -10 -2 -10 -8 -15 -16 -12 -19 3 -3 -1 -12 -8 -21 -10
-13 -10 -14 3 -5 8 5 21 9 28 8 6 -1 17 -2 23 -3 5 0 8 -5 4 -11 -3 -5 -12 -7
-20 -3 -8 3 -15 0 -15 -7 0 -6 4 -9 9 -5 5 3 12 1 16 -5 3 -5 12 -10 18 -10 8
0 8 3 -2 9 -8 5 -9 11 -3 15 6 3 13 2 17 -4 3 -5 12 -10 18 -10 7 0 6 4 -3 10
-9 6 -10 10 -3 10 6 0 15 -5 18 -10 4 -7 13 -7 26 0 13 7 19 7 19 0 0 -31 18
-63 31 -55 5 4 6 11 3 17 -4 7 -2 8 4 4 11 -7 6 -36 -7 -36 -4 0 -12 5 -19 12
-7 7 -13 8 -13 3 -6 -41 -5 -55 2 -55 4 0 11 5 14 10 3 6 1 10 -4 10 -6 0 -11
5 -11 11 0 8 5 8 15 -1 12 -10 18 -10 30 0 8 7 16 9 17 4 0 -5 2 -13 3 -19 2
-5 3 -16 4 -23 0 -7 6 -10 13 -6 7 4 8 3 4 -4 -13 -21 -35 -2 -30 26 l5 27
-22 -22 c-21 -21 -35 -68 -17 -57 5 3 7 13 6 21 -2 9 2 18 9 20 8 3 11 -3 8
-16 -3 -15 0 -18 13 -14 14 5 15 3 5 -8 -21 -22 -15 -31 7 -9 28 28 50 16 46
-24 -2 -22 1 -33 10 -33 7 0 11 4 8 9 -3 4 1 8 8 8 10 0 9 3 -2 10 -8 5 -11
12 -7 17 14 13 26 -19 17 -43 -6 -14 -5 -26 1 -29 5 -4 7 -11 4 -16 -9 -14 3
-11 33 8 l27 17 -23 -25 c-12 -14 -19 -28 -15 -32 3 -4 -2 -17 -13 -29 l-19
-23 23 19 c12 11 21 26 20 34 -2 8 2 17 9 19 8 3 11 -3 8 -16 -3 -14 1 -18 11
-14 16 6 16 -17 0 -28 -4 -4 -3 -10 3 -13 10 -6 13 0 10 20 -2 14 26 22 42 14
9 -5 20 -6 24 -2 5 4 1 -4 -8 -18 -9 -13 -17 -28 -17 -32 0 -9 42 -4 60 7 13
8 13 6 1 -8 -7 -9 -17 -14 -22 -11 -5 3 -16 1 -26 -4 -13 -8 -11 -10 13 -8 16
1 35 5 43 10 9 6 12 5 7 -2 -3 -6 3 -14 15 -17 11 -4 18 -9 16 -12 -3 -2 -15
0 -26 7 -14 7 -21 7 -21 0 0 -6 -11 -8 -27 -5 -25 6 -24 4 7 -12 37 -19 56
-58 23 -46 -10 3 -16 4 -13 2 43 -36 46 -38 60 -28 13 9 12 10 -2 6 -12 -4
-16 -1 -13 14 2 10 -1 19 -6 19 -6 0 -8 4 -4 9 3 6 -3 14 -12 20 -10 6 -13 11
-6 11 6 0 14 -4 17 -9 4 -5 17 -8 31 -7 13 2 22 -1 19 -6 -3 -5 -12 -7 -20 -4
-8 3 -14 1 -14 -3 0 -5 6 -12 13 -14 8 -4 7 -6 -3 -7 -10 0 -6 -6 9 -14 l24
-14 -21 -6 c-14 -5 -19 -12 -15 -19 4 -7 -6 -3 -22 7 -20 13 -26 14 -18 4 7
-8 10 -18 6 -22 -4 -4 -13 4 -21 16 -10 18 -12 19 -7 3 14 -39 11 -50 -13 -49
-15 1 -19 -2 -13 -10 10 -12 -43 -68 -54 -57 -3 3 -3 -3 1 -13 5 -13 4 -17 -4
-12 -14 8 -7 -31 9 -50 8 -10 8 -14 0 -14 -6 0 -11 5 -11 11 0 5 -5 7 -12 3
-7 -5 -8 -3 -3 6 5 8 4 11 -3 6 -6 -3 -13 -2 -17 4 -8 13 -25 13 -25 0 0 -5 5
-9 11 -7 6 1 14 -4 17 -12 2 -8 0 -11 -6 -7 -14 8 -43 -4 -36 -15 3 -5 -5 -10
-18 -10 -17 -1 -18 -3 -5 -6 9 -2 15 -9 12 -14 -3 -5 1 -6 9 -3 9 3 15 9 14
12 -2 23 5 30 29 28 27 -3 40 -30 21 -43 -6 -3 -8 -1 -4 5 10 16 -13 25 -29
12 -8 -7 -13 -15 -11 -19 3 -4 -12 -8 -32 -9 -28 -2 -33 0 -22 8 9 6 10 10 3
10 -6 0 -15 -5 -18 -10 -4 -6 -11 -7 -17 -4 -7 4 -7 0 0 -12 5 -11 7 -25 4
-33 -3 -9 0 -11 7 -7 7 4 9 16 6 27 -5 14 -2 17 9 13 12 -4 13 -11 6 -24 -5
-9 -6 -21 -2 -25 4 -3 2 -6 -3 -5 -20 4 -35 0 -35 -11 0 -6 7 -8 16 -5 9 3 12
2 9 -4 -4 -6 -14 -9 -23 -8 -10 2 -16 -3 -14 -10 1 -8 -2 -11 -8 -7 -5 3 -10
2 -10 -4 0 -5 3 -11 8 -14 4 -2 1 -2 -7 0 -17 4 -43 -16 -35 -28 3 -5 -3 -6
-13 -2 -15 6 -16 4 -6 -8 6 -8 9 -19 5 -24 -10 -14 -32 -17 -32 -5 0 6 7 10
16 10 8 0 12 5 9 10 -4 6 -12 8 -18 4 -7 -3 -1 4 13 16 14 12 24 25 23 29 -2
3 1 6 6 6 13 0 26 14 26 28 1 7 6 11 13 10 7 -2 12 0 13 5 0 4 2 17 5 30 2 12
-1 22 -7 22 -5 0 -7 -4 -4 -10 3 -5 0 -10 -7 -10 -9 0 -9 -3 2 -10 13 -8 12
-10 -2 -10 -10 0 -18 -5 -18 -11 0 -5 -6 -7 -12 -3 -10 6 -10 5 -1 -7 10 -12
7 -17 -17 -28 -16 -7 -28 -17 -27 -23 1 -5 -9 -17 -23 -26 -23 -16 -24 -16
-17 1 3 9 2 17 -4 17 -6 0 -9 -8 -7 -17 2 -10 10 -17 17 -15 7 1 10 -2 6 -8
-4 -6 -1 -17 5 -25 9 -11 9 -15 1 -15 -6 0 -11 5 -11 11 0 5 -5 7 -10 4 -6 -4
-8 -10 -6 -14 3 -4 0 -13 -6 -21 -8 -12 -9 -12 -4 3 3 9 2 17 -2 18 -4 0 -18
2 -32 4 -14 2 -19 1 -12 -1 6 -3 10 -9 8 -13 -3 -4 0 -13 6 -21 8 -12 9 -12 4
2 -3 10 -2 19 2 22 4 3 8 -4 9 -14 3 -31 -14 -32 -36 -4 -12 15 -21 22 -21 17
0 -5 5 -14 10 -19 12 -12 22 -54 12 -53 -19 3 -32 -2 -32 -12 0 -6 7 -8 16 -5
9 3 12 2 9 -4 -4 -6 -12 -9 -19 -8 -6 2 -11 -1 -11 -7 0 -5 4 -9 10 -7 5 2 6
0 2 -5 -5 -4 -18 -8 -30 -8 -15 0 -21 -6 -19 -17 1 -9 -2 -19 -8 -23 -6 -3 -7
0 -4 9 3 9 1 16 -5 16 -10 0 -15 -13 -12 -32 1 -10 -41 0 -53 12 -5 5 -14 10
-19 10 -5 0 2 -9 17 -21 28 -22 27 -39 -4 -36 -10 1 -17 5 -14 9 3 4 12 5 22
2 14 -5 14 -4 2 4 -8 6 -17 9 -21 6 -4 -2 -10 2 -13 8 -2 7 -3 2 -1 -12 2 -14
4 -28 4 -32 1 -4 9 -5 19 -2 14 5 14 4 2 -4 -8 -6 -17 -9 -21 -6 -4 2 -10 0
-14 -6 -3 -5 -1 -10 4 -10 6 0 11 -5 11 -11 0 -6 -5 -7 -13 -2 -6 4 -21 8 -32
8 -11 0 -19 6 -18 13 2 6 -2 12 -7 12 -13 0 -13 -17 0 -25 8 -5 7 -11 -1 -21
-6 -7 -15 -12 -19 -9 -5 3 -14 -8 -21 -24 -11 -25 -16 -28 -28 -18 -12 9 -13
9 -7 0 4 -7 2 -13 -3 -13 -6 0 -11 -8 -12 -17 0 -10 -3 -13 -5 -6 -3 7 -12 9
-20 6 -25 -9 -15 -20 16 -17 32 4 49 -11 31 -29 -9 -9 -11 -8 -6 5 4 11 2 18
-4 18 -10 0 -15 -12 -13 -30 0 -3 -10 -7 -23 -8 -15 -1 -22 3 -21 15 0 9 -6
18 -14 20 -13 4 -13 3 0 -6 8 -5 11 -13 7 -17 -3 -4 -13 -1 -22 6 -10 8 -15 9
-15 1 0 -6 4 -11 9 -11 6 0 8 -9 6 -20 -2 -12 0 -18 6 -15 5 4 6 11 3 17 -7
12 9 4 34 -15 10 -8 10 -12 0 -18 -7 -4 -19 -2 -27 4 -12 10 -14 9 -8 -6 4
-10 3 -16 -2 -13 -12 8 -34 -21 -26 -34 3 -6 12 -7 18 -4 7 4 8 3 4 -2 -5 -5
-18 -9 -30 -9 -12 -1 -21 -6 -19 -13 2 -10 -3 -9 -20 1 -13 8 -29 13 -35 12
-7 -2 -19 -3 -25 -4 -8 -1 -6 -6 5 -12 17 -10 15 -29 -4 -29 -6 0 -8 4 -5 9 6
10 -24 25 -32 16 -3 -3 0 -5 6 -5 7 0 12 -7 12 -15 0 -8 9 -23 21 -34 15 -14
17 -21 8 -26 -8 -5 -10 -4 -5 3 7 11 -6 17 -28 13 -4 -1 -15 4 -23 11 -12 9
-16 9 -23 -2 -10 -16 -3 -33 10 -25 10 6 19 -16 13 -32 -3 -7 -11 -13 -19 -13
-8 0 -14 -5 -14 -11 0 -5 6 -7 13 -3 8 5 8 2 -2 -9 -14 -18 -26 -23 -16 -8 3
5 1 12 -5 16 -9 6 -14 -7 -11 -31 1 -7 -8 -14 -20 -17 -13 -3 -18 -10 -14 -17
6 -9 2 -9 -12 -2 -22 12 -49 0 -38 -18 5 -9 1 -10 -16 -6 l-24 7 23 -14 c12
-7 20 -16 16 -20 -4 -4 -13 -2 -20 4 -14 12 -14 -7 0 -29 13 -22 -3 -27 -20
-6 -13 16 -13 14 1 -14 9 -18 20 -30 26 -27 5 4 7 11 4 16 -4 5 -2 9 4 9 5 0
8 9 6 20 -2 11 0 18 4 15 5 -2 7 9 6 25 -2 18 1 27 8 23 6 -4 7 -1 2 7 -5 8
-4 11 3 6 6 -3 9 -15 7 -26 -2 -11 1 -20 7 -20 6 0 2 -8 -9 -18 -14 -11 -19
-27 -18 -47 2 -16 1 -24 -2 -17 -6 15 -23 6 -23 -13 0 -9 6 -12 18 -9 10 4 13
3 6 -3 -5 -4 -10 -23 -9 -40 1 -42 -16 -26 -20 17 -1 17 -8 37 -15 43 -10 9
-11 9 -5 -2 4 -8 2 -17 -6 -22 -11 -6 -10 -11 4 -27 22 -24 22 -31 -2 -25 -10
3 -22 0 -25 -5 -4 -6 2 -8 14 -5 11 3 20 0 20 -6 0 -6 3 -10 8 -10 26 4 34 -1
22 -16 -10 -12 -9 -18 5 -31 9 -9 14 -23 11 -31 -4 -8 4 -24 16 -35 13 -11 18
-17 11 -14 -6 4 -14 -3 -18 -14 -4 -11 -10 -18 -15 -15 -10 6 -25 -14 -16 -22
3 -3 12 0 21 7 15 12 22 0 8 -14 -13 -12 -10 -44 3 -39 7 3 22 -9 32 -26 10
-17 22 -28 25 -24 15 15 6 -12 -10 -30 -13 -15 -14 -18 -3 -12 28 17 42 13 58
-16 10 -16 26 -32 36 -35 19 -6 19 -7 1 -20 -10 -8 -14 -14 -8 -14 7 0 18 7
26 14 13 13 17 12 36 -8 12 -12 18 -26 14 -30 -5 -4 -1 -6 7 -4 8 2 14 -2 13
-9 -2 -7 4 -10 12 -7 8 4 12 10 9 15 -3 5 0 9 6 9 6 0 8 5 5 10 -3 6 -1 10 5
10 7 0 9 -8 5 -19 -3 -11 0 -23 6 -27 7 -4 9 -3 5 4 -3 6 -1 14 5 18 8 4 9 3
5 -4 -4 -7 -2 -12 4 -12 6 0 9 -4 6 -9 -8 -12 18 -32 43 -34 12 -1 21 -5 21
-9 0 -4 5 -8 11 -8 8 0 9 4 0 13 -6 8 -8 17 -5 20 4 4 -3 4 -15 2 -36 -7 -52
4 -39 25 12 18 12 18 26 -1 7 -11 18 -17 23 -13 6 3 3 12 -8 21 -10 8 0 5 21
-7 31 -17 41 -18 47 -8 5 7 9 9 9 3 0 -5 -4 -14 -8 -20 -10 -14 -32 -17 -29
-4 1 6 -4 14 -11 16 -10 4 -10 -1 -1 -21 13 -27 24 -33 34 -16 3 5 16 10 28
10 16 0 18 -3 9 -9 -11 -6 -10 -10 4 -15 9 -3 19 -4 22 -1 3 3 0 5 -7 5 -7 0
-9 5 -6 10 5 8 11 8 20 0 9 -8 15 -8 20 0 3 6 11 7 17 4 7 -4 8 -2 4 4 -4 7
-2 12 3 12 6 0 10 3 10 8 -5 28 2 35 17 16 15 -19 16 -19 10 1 -6 19 -6 19 8
1 8 -10 13 -31 11 -47 -2 -16 0 -27 5 -24 5 3 7 12 4 19 -3 7 5 24 16 37 15
17 20 19 16 7 -3 -10 -1 -18 4 -18 6 0 10 8 10 18 1 15 2 15 17 -3 13 -16 15
-17 10 -2 -4 9 -2 17 4 17 6 0 8 9 4 20 -4 11 -2 20 4 20 6 0 11 -8 12 -17 0
-15 2 -15 9 2 5 11 9 14 9 7 1 -11 3 -11 14 0 15 14 19 50 5 42 -5 -3 -5 -10
-2 -16 4 -6 2 -8 -4 -4 -6 3 -13 2 -17 -4 -4 -6 -11 -7 -17 -4 -7 5 -2 11 11
16 19 7 21 11 11 23 -9 10 -9 15 -1 15 6 0 11 -4 11 -10 0 -5 3 -9 8 -9 19 3
31 -2 28 -13 -1 -7 -1 -10 1 -5 3 4 10 4 16 0 7 -4 7 -1 -1 9 -9 11 -10 18 -2
23 5 3 10 1 10 -4 0 -6 5 -11 11 -11 8 0 8 4 0 14 -8 10 -9 16 -1 21 5 3 10 1
10 -6 0 -7 7 -4 16 7 13 16 15 16 10 2 -3 -10 -1 -20 3 -22 5 -3 8 5 8 17 1
41 3 48 13 42 6 -3 10 -1 10 4 0 15 -13 14 -36 -5 -10 -8 -13 -12 -5 -8 9 5
12 3 7 -5 -4 -6 -12 -8 -18 -5 -6 4 -8 2 -4 -4 3 -6 -1 -9 -11 -8 -10 2 -17 6
-15 9 1 4 2 13 2 20 0 9 3 8 9 -2 5 -8 11 -9 15 -3 4 6 -2 16 -11 22 -12 7
-13 10 -3 7 20 -6 52 11 45 23 -3 6 1 7 9 4 11 -4 14 0 11 16 -3 17 -1 19 9
11 9 -7 16 -7 23 0 15 15 36 1 29 -18 -3 -8 -1 -11 5 -8 5 4 7 15 4 26 -7 21
10 27 19 7 3 -7 4 -4 3 7 -1 12 3 19 11 17 8 -1 11 2 8 7 -4 5 3 12 14 16 11
3 20 13 20 21 0 8 5 12 10 9 6 -3 10 -1 10 4 0 6 -3 11 -7 11 -14 0 -35 -17
-33 -26 3 -15 -15 -15 -35 1 -18 14 -19 15 -1 9 16 -6 17 -5 7 17 -11 21 -11
22 2 7 15 -18 33 -25 23 -9 -3 5 1 12 10 15 8 3 12 10 9 16 -3 6 0 7 9 4 11
-4 14 0 11 16 -3 17 -1 19 9 11 9 -7 16 -7 23 0 14 14 36 2 30 -15 -3 -6 4
-12 14 -12 13 0 15 4 8 12 -7 8 -6 14 1 19 14 9 1 28 -14 22 -7 -3 -19 -1 -27
4 -12 7 -12 9 1 10 8 1 20 3 25 3 6 1 16 5 22 9 9 6 11 3 7 -7 -4 -10 -1 -16
7 -16 7 0 9 3 6 7 -9 9 12 32 26 29 7 -1 9 -1 5 1 -16 9 -7 22 12 18 11 -2 23
1 26 7 4 6 2 8 -4 4 -6 -3 -13 -2 -16 3 -9 14 20 21 35 8 8 -8 8 -5 -1 7 -13
18 -13 19 2 14 22 -9 30 2 15 20 -10 13 -8 14 11 8 17 -6 22 -3 22 9 0 10 5
13 13 9 9 -6 9 -4 -1 8 -7 8 -9 24 -6 34 6 16 5 17 -7 6 -7 -6 -18 -12 -23
-12 -6 0 -3 5 7 11 10 6 14 15 10 22 -5 9 -3 9 8 0 17 -14 40 0 35 21 -2 6 -1
8 1 3 3 -4 9 -4 14 -1 7 4 7 10 0 17 -7 9 0 12 24 12 22 0 31 -4 28 -12 -3 -7
0 -13 7 -13 6 0 8 5 5 10 -3 6 1 13 9 16 9 3 16 13 16 21 0 8 5 11 10 8 6 -4
9 -1 8 6 -2 7 2 13 7 14 14 0 55 43 55 58 0 8 4 7 10 -3 8 -13 10 -12 10 3 0
9 -3 17 -7 17 -12 0 -35 -16 -36 -26 -1 -5 -6 -8 -10 -6 -5 1 -6 -1 -3 -6 2
-4 1 -14 -5 -22 -7 -12 -9 -10 -9 8 0 13 -4 21 -8 18 -5 -3 -9 1 -9 9 0 10 4
12 12 5 9 -7 16 -6 25 5 7 8 9 15 4 15 -5 0 -1 5 9 11 9 6 15 14 12 20 -3 5 1
6 9 3 11 -4 14 0 11 16 -3 17 -1 19 9 11 9 -7 16 -7 24 1 9 9 17 7 32 -10 23
-24 40 -31 21 -8 -8 10 -9 16 -1 21 14 9 1 28 -14 22 -7 -3 -19 -1 -27 4 -12
7 -12 9 1 10 8 1 20 3 25 3 6 1 16 5 22 9 9 6 11 3 7 -7 -3 -9 -1 -16 6 -16 6
0 9 4 5 9 -3 5 4 12 15 16 11 3 20 13 20 21 0 8 5 12 10 9 6 -3 10 -1 10 4 0
6 -3 11 -7 11 -14 0 -35 -17 -34 -26 1 -5 -13 -9 -31 -10 -18 -1 -27 1 -20 3
6 3 10 9 7 14 -4 5 1 6 11 2 14 -5 15 -3 5 15 -7 14 -8 23 -1 27 6 4 10 3 9
-2 -3 -19 2 -33 12 -33 5 0 8 4 5 9 -3 5 1 12 10 15 8 3 12 10 9 16 -3 6 0 7
9 4 11 -4 14 0 11 16 -3 17 -1 19 9 11 9 -7 16 -7 24 1 9 9 17 7 32 -10 23
-25 39 -30 20 -7 -10 12 -9 16 5 21 13 5 14 9 3 15 -7 5 -17 9 -23 9 -5 0 -4
-4 4 -9 7 -5 9 -11 5 -13 -5 -3 -18 3 -29 14 -19 18 -19 19 -1 12 16 -6 18 -4
13 10 -5 12 0 19 18 26 14 5 23 15 21 22 -1 7 -1 10 1 6 10 -17 21 -7 17 14
-4 19 -3 20 4 5 7 -17 9 -17 26 2 11 12 15 21 10 21 -5 0 -1 5 9 11 9 6 15 14
12 20 -4 5 2 6 11 2 13 -5 15 -3 9 7 -5 8 -4 11 3 6 6 -3 13 -2 17 4 4 6 11 8
16 4 5 -3 16 -1 24 6 9 8 15 8 20 0 3 -6 11 -8 16 -5 5 4 9 1 9 -6 0 -7 3 -9
7 -6 3 4 12 2 20 -5 10 -8 17 -8 25 0 7 7 17 12 23 12 5 0 2 -5 -8 -11 -14 -8
-15 -14 -7 -24 8 -10 8 -15 -1 -21 -8 -5 -9 -3 -4 6 6 9 4 11 -5 5 -9 -5 -11
-4 -6 3 4 8 2 10 -8 6 -8 -3 -16 2 -19 13 -4 14 -5 15 -6 2 -1 -18 20 -39 41
-43 7 -1 19 -6 27 -10 10 -6 12 -5 7 2 -4 7 -2 12 3 12 16 0 13 -27 -3 -33 -7
-3 -16 -15 -19 -26 -3 -12 -1 -19 4 -15 5 3 9 12 9 20 0 8 5 14 10 14 6 0 10
-6 10 -14 0 -16 27 -29 35 -16 3 5 0 12 -6 16 -8 5 -9 3 -4 -6 5 -9 4 -11 -4
-6 -6 4 -9 12 -6 17 4 5 1 9 -6 9 -17 0 7 27 30 33 19 4 20 -9 7 -85 -2 -16 0
-28 4 -28 15 0 21 18 8 24 -9 3 -7 9 7 21 11 9 19 21 17 26 -1 6 2 8 7 4 15
-8 2 -35 -17 -35 -12 0 -13 -3 -4 -12 8 -8 15 -8 27 2 8 7 16 9 17 4 0 -5 2
-13 3 -19 2 -5 3 -16 4 -23 0 -7 6 -10 13 -6 7 4 8 3 4 -4 -13 -21 -35 -2 -30
26 l5 27 -22 -22 c-21 -21 -35 -68 -17 -57 5 3 7 13 6 21 -2 9 2 18 9 20 8 3
11 -3 8 -16 -3 -15 0 -18 13 -14 14 5 15 3 5 -8 -21 -22 -15 -31 7 -9 11 11
26 17 35 14 18 -7 15 -26 -5 -32 -9 -3 -11 1 -6 13 5 15 4 16 -9 5 -8 -7 -15
-17 -15 -23 0 -6 3 -7 6 -4 9 9 46 -12 40 -22 -3 -4 1 -8 9 -8 8 0 12 4 9 9
-3 4 0 8 6 8 6 0 8 5 4 11 -5 8 -9 8 -14 -1 -5 -8 -10 -8 -14 -2 -3 5 2 13 11
16 22 9 33 -12 23 -40 -6 -14 -5 -26 1 -29 5 -4 7 -11 4 -16 -9 -14 3 -11 33
8 l27 17 -23 -25 c-12 -14 -19 -28 -15 -32 3 -4 -2 -17 -13 -29 l-19 -23 23
19 c12 11 21 26 20 34 -2 8 2 17 9 19 8 3 11 -3 8 -16 -3 -14 1 -18 11 -14 16
6 16 -17 0 -28 -4 -4 -3 -10 3 -13 10 -6 13 0 10 20 -2 14 26 22 42 14 9 -5
20 -6 24 -2 4 4 2 -3 -6 -15 -7 -12 -17 -19 -22 -16 -5 3 -4 9 3 13 8 5 6 9
-6 14 -10 4 -15 4 -11 0 4 -4 1 -14 -6 -22 -10 -13 -9 -14 1 -8 7 4 14 1 18
-7 5 -14 64 -19 64 -5 0 8 27 4 37 -6 4 -4 3 -7 -2 -6 -20 4 -35 0 -35 -11 0
-5 5 -7 12 -3 6 4 8 3 4 -4 -3 -6 -2 -13 4 -17 5 -3 10 2 10 12 0 15 2 16 10
3 6 -9 5 -17 -2 -21 -7 -4 -6 -9 3 -15 7 -4 14 -3 17 4 2 7 8 12 14 12 6 0 6
-6 -2 -15 -10 -12 -6 -18 19 -33 17 -10 28 -22 23 -27 -4 -4 2 -5 13 -1 11 4
16 4 13 0 -4 -4 -3 -14 2 -24 6 -12 5 -23 -5 -36 -20 -26 -19 -43 1 -18 12 15
15 16 10 2 -4 -12 0 -16 15 -13 12 3 19 -1 17 -7 -2 -6 -14 -12 -26 -13 -12
-1 -25 -4 -28 -8 -5 -5 41 -2 56 3 3 2 9 1 15 0 5 -1 7 2 3 6 -4 4 -3 13 4 21
9 11 7 13 -15 9 -27 -5 -46 18 -25 30 7 4 8 3 4 -4 -4 -7 -1 -13 6 -13 7 -1
18 -2 23 -4 6 -1 14 -3 19 -3 5 -1 3 -8 -3 -15 -6 -8 -8 -17 -4 -20 3 -4 -2
-9 -11 -13 -9 -3 -16 -11 -16 -17 0 -7 4 -7 12 1 18 18 32 14 17 -5 -13 -15
-12 -15 8 -2 15 9 19 17 13 23 -13 13 -13 26 1 26 5 0 8 -4 4 -9 -8 -13 25
-31 55 -31 7 0 7 -6 0 -19 -7 -13 -7 -22 0 -26 13 -8 13 -25 0 -25 -5 0 -9 6
-7 12 1 7 -4 12 -10 11 -7 -2 -13 2 -13 8 0 5 -4 8 -9 4 -5 -3 -13 0 -17 6 -5
8 -3 9 6 4 9 -5 11 -4 6 4 -9 15 -27 5 -20 -12 2 -7 14 -17 27 -23 12 -5 21
-16 19 -23 -1 -7 2 -19 8 -25 5 -7 7 -16 3 -19 -3 -4 -1 -7 6 -7 7 0 11 7 8
15 -4 8 -2 17 3 20 6 4 11 1 11 -4 1 -6 2 -17 3 -23 1 -7 -2 -18 -6 -25 -5 -6
-5 -14 2 -18 6 -4 9 -1 8 7 -2 7 2 12 9 11 6 -1 17 5 25 14 8 10 8 14 1 10 -6
-4 -15 -2 -19 4 -4 8 -3 9 4 5 8 -5 10 -2 6 8 -3 9 -1 16 6 16 6 0 9 -4 6 -8
-3 -5 4 -16 15 -25 16 -14 17 -21 9 -37 -6 -11 -16 -20 -22 -20 -6 0 -8 -3 -5
-6 4 -4 14 -1 22 6 14 12 15 9 11 -21 -3 -19 -3 -28 0 -21 3 6 10 12 15 12 6
0 7 -4 4 -10 -4 -6 1 -7 11 -3 13 5 15 3 9 -8 -8 -12 -6 -12 8 0 15 12 17 12
11 -3 -3 -9 -1 -16 5 -16 6 0 11 -6 11 -14 0 -8 7 -16 15 -20 8 -3 14 -11 13
-18 -2 -7 3 -12 11 -10 18 4 52 -28 44 -42 -3 -6 -2 -7 2 -3 5 4 10 15 11 23
1 9 0 13 -3 10 -3 -3 -14 4 -24 15 -9 11 -21 19 -25 17 -4 -2 -8 5 -10 15 -3
23 -14 36 -14 17 0 -9 -5 -7 -14 5 -8 11 -11 26 -8 34 4 10 1 13 -12 8 -11 -5
-15 -3 -10 5 4 6 3 8 -4 5 -28 -18 -52 28 -27 50 4 5 5 2 1 -5 -4 -6 -2 -12 4
-12 6 0 9 -4 5 -9 -3 -5 -1 -12 5 -16 5 -3 10 1 10 9 0 9 4 16 10 16 5 0 7 -8
3 -17 -3 -10 -2 -15 2 -11 5 5 17 -6 27 -23 15 -25 21 -29 33 -19 9 8 15 8 15
2 0 -6 -5 -12 -12 -14 -7 -3 -8 -10 -4 -17 6 -9 11 -10 15 -3 4 7 12 8 21 2
13 -8 12 -10 -3 -10 -10 0 -15 -5 -12 -10 4 -6 11 -7 17 -4 7 4 8 2 4 -4 -4
-7 -2 -12 3 -12 11 0 15 15 11 35 -1 6 2 6 6 2 10 -10 14 -37 6 -37 -4 0 -8
-13 -8 -30 -1 -16 3 -30 8 -30 5 0 7 3 5 7 -3 5 0 17 4 28 8 18 9 18 5 -3 -3
-16 0 -22 8 -19 7 3 23 -4 37 -14 19 -16 20 -18 4 -12 -18 6 -18 5 -6 -10 9
-11 21 -15 35 -12 16 5 18 4 6 -4 -18 -12 -7 -26 12 -15 23 15 37 13 30 -4 -4
-10 -7 -12 -10 -4 -2 7 -8 9 -13 6 -17 -10 10 -32 31 -27 11 3 20 0 20 -6 0
-5 -6 -8 -13 -5 -9 3 -12 -4 -11 -23 2 -42 3 -45 13 -38 5 3 12 -3 14 -12 4
-17 5 -17 6 0 0 10 6 15 11 12 6 -4 8 -10 5 -15 -3 -5 4 -7 15 -5 12 2 26 -4
35 -18 8 -12 15 -16 15 -10 0 7 7 10 16 6 13 -5 13 -8 2 -15 -10 -8 -10 -9 2
-5 8 2 14 10 13 16 -5 21 18 11 27 -11 7 -18 9 -19 9 -5 1 9 6 17 12 17 5 0 7
-5 3 -11 -5 -8 -1 -8 14 0 14 7 23 8 27 1 3 -5 1 -10 -6 -10 -7 0 -10 -3 -6
-6 11 -11 29 7 18 19 -6 8 -5 19 5 31 8 11 14 15 14 10 0 -6 -5 -15 -12 -22
-9 -9 -9 -12 -1 -12 7 0 15 5 18 10 4 6 11 8 16 4 14 -8 0 -26 -14 -18 -7 4
-9 4 -5 -1 4 -4 3 -14 -4 -22 -8 -11 -7 -12 5 -7 8 3 18 12 21 21 5 12 9 13
21 3 9 -7 18 -10 22 -7 3 4 13 1 22 -6 14 -11 14 -10 2 6 -15 20 -2 23 19 4
12 -10 12 -9 2 4 -6 9 -9 18 -6 22 3 3 1 15 -6 26 -6 12 -8 21 -5 21 3 0 14
-19 25 -42 10 -24 19 -36 19 -26 1 10 8 15 19 14 17 -3 49 30 39 41 -9 8 -28
-7 -22 -18 4 -5 2 -9 -3 -9 -6 0 -9 10 -8 23 1 19 5 22 38 18 36 -3 51 10 28
24 -5 3 -10 12 -9 18 0 9 2 8 6 -1 2 -6 9 -9 14 -6 6 3 16 0 24 -6 11 -9 19
-10 28 -1 8 6 18 7 22 3 5 -4 5 -1 1 6 -4 7 -12 10 -17 7 -5 -4 -9 1 -9 9 0 8
5 18 12 22 6 4 8 3 5 -3 -4 -6 0 -13 8 -16 11 -5 12 -1 4 20 -7 20 -7 24 5 20
10 -4 13 2 11 23 -1 17 2 28 9 27 6 -1 10 6 10 15 -1 10 3 15 9 11 6 -4 8 0 4
11 -4 11 -3 15 4 11 6 -4 8 -13 5 -20 -2 -7 1 -18 7 -24 9 -9 8 -11 -4 -6 -17
6 -32 -8 -35 -32 -1 -7 2 -13 7 -13 6 0 7 -4 4 -10 -3 -5 -1 -10 5 -10 6 0 8
-5 4 -12 -4 -7 -3 -8 4 -4 9 5 9 13 1 27 -12 23 -5 54 11 44 5 -3 17 3 27 14
9 11 21 17 27 14 5 -4 2 4 -7 16 -16 24 -13 51 5 51 6 0 5 -6 -2 -15 -8 -9 -8
-15 -2 -15 6 0 14 -9 17 -21 4 -11 9 -18 12 -16 2 3 -1 16 -8 28 -10 20 -8 26
20 51 17 15 27 28 22 28 -5 0 -18 -8 -27 -17 -17 -17 -17 -17 -11 -1 3 10 2
20 -3 23 -9 6 -14 -8 -11 -28 0 -4 -4 -7 -9 -7 -13 0 -13 3 7 45 9 19 24 35
32 35 13 -1 13 -2 -1 -11 -27 -16 -21 -25 16 -25 l34 0 -22 27 c-11 14 -25 24
-31 21 -5 -3 -4 1 2 9 9 11 9 19 2 26 -7 7 -6 12 5 16 8 3 18 1 22 -5 4 -7 3
-8 -4 -4 -7 4 -12 3 -12 -1 0 -12 41 -36 48 -28 10 10 11 35 1 29 -5 -3 -7
-10 -4 -15 4 -5 2 -9 -4 -9 -21 0 -20 19 1 34 12 9 18 16 12 16 -5 0 -15 -5
-22 -12 -16 -16 -15 -3 3 32 9 17 21 30 27 30 6 0 9 3 5 6 -6 7 -54 -24 -49
-31 2 -3 1 -11 -2 -18 -3 -8 -5 -7 -5 3 2 28 -1 40 -11 40 -5 0 -7 -8 -4 -17
5 -17 5 -17 -6 0 -6 9 -15 15 -20 12 -5 -3 -11 -1 -14 4 -3 4 2 8 12 8 34 0
43 3 37 13 -4 6 -11 7 -17 4 -6 -4 -6 0 1 13 6 11 7 24 3 28 -4 5 -1 5 7 0 11
-6 13 -3 9 13 -4 12 -2 25 3 28 5 3 7 9 4 14 -3 5 2 13 10 18 15 8 15 10 0 22
-13 11 -14 10 -9 -5 5 -11 3 -16 -2 -12 -6 3 -16 2 -24 -4 -10 -5 -10 -9 -3
-9 14 0 10 -31 -7 -57 -10 -16 -11 -16 -5 2 13 36 8 64 -15 82 -10 8 -11 12
-3 13 6 0 15 -5 18 -10 4 -6 11 -8 16 -4 5 3 6 11 2 17 -4 7 -8 18 -9 25 -3
19 -25 43 -34 37 -5 -3 -11 4 -15 15 -3 11 -11 20 -16 20 -5 0 -2 -11 7 -25 9
-14 21 -22 26 -19 6 4 8 -2 3 -17 -4 -17 -3 -20 3 -10 7 9 12 10 16 2 4 -6 5
-11 2 -11 -2 0 -11 -3 -20 -6 -11 -4 -16 0 -16 12 -1 25 -22 51 -38 48 -7 -1
-8 0 -2 3 8 3 7 9 -1 19 -7 8 -9 17 -5 21 3 3 6 1 6 -6 0 -7 5 -9 11 -6 6 5 4
11 -7 19 -14 11 -20 10 -34 -3 -9 -9 -15 -19 -13 -23 2 -4 0 -9 -5 -12 -4 -2
-8 6 -8 19 0 15 5 21 13 18 7 -3 13 0 13 6 0 11 -13 15 -37 12 -6 -1 -14 3
-18 9 -3 6 0 7 9 4 24 -9 19 4 -9 22 -18 12 -29 13 -38 6 -10 -8 -13 -6 -13 7
0 12 6 17 18 13 10 -2 18 1 18 7 0 10 -21 16 -43 12 -5 -1 -6 3 -3 8 7 10 25
9 44 -2 7 -5 12 -4 12 2 0 10 -7 12 -26 10 -3 0 -12 8 -19 17 -11 16 -15 16
-30 4 -17 -14 -53 -25 -40 -12 4 4 12 7 18 7 7 0 13 6 13 13 1 6 2 17 3 24 1
9 4 9 13 0 7 -7 15 -12 19 -12 13 0 18 29 7 36 -6 4 -8 3 -4 -4 3 -6 2 -13 -4
-17 -6 -3 -14 4 -19 17 -8 18 -10 19 -10 5 -1 -11 -5 -15 -13 -11 -6 4 -8 3
-5 -2 3 -6 1 -16 -4 -24 -9 -13 -10 -13 -8 0 3 29 -1 41 -11 35 -6 -4 -8 -11
-5 -16 3 -5 -1 -6 -9 -3 -12 5 -11 9 5 25 18 18 18 21 4 42 -8 13 -13 26 -10
29 3 2 -2 5 -10 5 -11 0 -12 -4 -4 -13 8 -10 6 -19 -5 -36 -9 -12 -16 -17 -16
-11 0 7 5 15 10 18 14 9 4 22 -22 28 -22 6 -22 5 -4 -8 11 -8 16 -15 10 -15
-15 0 -30 14 -37 32 -4 12 -12 16 -24 11 -10 -3 -15 -3 -12 1 9 10 50 16 44 7
-6 -10 25 -24 33 -16 7 7 -12 26 -29 28 -21 4 -39 17 -39 30 0 8 3 8 12 -1 7
-7 15 -12 19 -12 13 0 18 29 7 36 -6 4 -8 3 -4 -4 3 -6 2 -13 -4 -17 -6 -3
-14 4 -19 17 -8 18 -10 19 -10 5 -1 -11 -5 -15 -13 -11 -6 4 -8 3 -5 -2 3 -6
1 -16 -4 -24 -9 -13 -10 -13 -8 0 3 29 -1 41 -12 34 -8 -4 -8 -1 0 14 9 18 8
23 -9 32 -17 9 -22 7 -29 -12 -9 -21 -9 -19 -8 10 1 21 6 31 14 28 7 -3 15 0
19 7 4 7 4 9 -1 5 -4 -4 -21 0 -38 9 -26 13 -28 17 -14 25 9 5 17 14 17 19 0
6 -7 3 -16 -5 -17 -17 -39 -12 -28 6 4 7 2 8 -4 4 -7 -4 -12 -1 -12 7 0 8 -11
14 -29 14 -22 0 -28 -4 -24 -16 4 -14 3 -14 -5 -1 -14 18 2 39 26 35 9 -1 11
0 4 2 -11 4 -11 8 0 21 11 15 10 14 -8 -1 -11 -9 -25 -17 -31 -17 -13 0 -25
-28 -18 -40 3 -5 1 -11 -4 -14 -10 -7 -8 28 4 59 7 18 5 17 -21 -5 -18 -16
-23 -18 -14 -6 13 18 13 19 -1 14 -9 -4 -16 -1 -16 7 0 10 5 11 18 4 13 -7 20
-5 27 7 6 11 11 13 16 5 4 -6 11 -11 16 -11 13 0 20 29 8 36 -6 4 -8 3 -4 -4
3 -6 2 -13 -4 -17 -6 -3 -14 4 -19 17 -8 18 -10 19 -10 5 -1 -11 -5 -15 -13
-11 -7 5 -8 3 -3 -5 6 -10 3 -11 -12 -2 -11 6 -24 7 -28 3 -5 -4 -5 -1 -1 6 4
7 11 10 15 8 4 -3 13 -1 20 3 11 7 11 13 1 27 -8 14 -10 15 -6 2 7 -24 -5 -30
-21 -10 -8 9 -12 12 -10 7 3 -6 -1 -19 -9 -30 -8 -10 -14 -14 -14 -8 0 7 5 15
10 18 16 10 -8 35 -26 28 -10 -4 -15 0 -14 8 4 27 0 40 -11 33 -8 -4 -8 -1 0
14 9 18 8 23 -9 32 -17 9 -22 7 -29 -12 -9 -21 -9 -19 -8 10 1 21 6 31 14 28
7 -3 15 0 19 7 4 7 4 9 -1 5 -4 -4 -21 0 -38 9 -26 13 -28 17 -14 25 9 5 17
13 17 19 0 5 -10 1 -22 -10 -11 -11 -26 -18 -31 -14 -6 3 -7 1 -3 -6 4 -6 12
-8 18 -5 7 5 8 2 3 -6 -6 -9 -4 -11 5 -5 9 5 11 4 6 -4 -6 -8 -12 -9 -20 -2
-7 6 -17 7 -21 3 -5 -4 -5 -2 -1 5 3 6 -3 18 -16 27 -12 9 -18 19 -14 23 4 4
10 3 14 -2 10 -14 42 -18 42 -6 0 14 -21 25 -52 27 -20 1 -25 -2 -21 -15 4
-13 3 -14 -5 -1 -14 18 2 39 26 35 9 -1 11 0 4 2 -11 4 -11 8 0 21 11 15 10
14 -8 -1 -11 -9 -26 -17 -32 -17 -7 0 -12 -4 -12 -10 0 -5 -5 -10 -11 -10 -8
0 -8 4 0 14 6 7 8 22 5 32 -6 16 -5 17 7 7 7 -7 16 -13 20 -13 13 0 18 29 7
36 -6 4 -8 3 -4 -4 3 -6 2 -13 -4 -17 -6 -3 -14 4 -19 17 -8 18 -10 19 -10 5
-1 -10 -5 -16 -9 -13 -4 2 -9 -4 -9 -15 -1 -12 2 -17 10 -12 7 3 3 -3 -7 -15
-21 -24 -34 -30 -20 -9 5 6 9 19 8 27 -1 8 -2 21 -3 28 0 7 -6 10 -11 7 -6 -4
-8 -11 -5 -16 3 -5 -1 -6 -10 -2 -12 4 -13 8 -5 13 9 6 9 9 0 12 -10 3 -10 9
-3 22 7 13 13 15 17 7 4 -6 2 -11 -4 -11 -6 0 -8 -5 -4 -11 4 -8 9 -7 14 2 14
22 -44 87 -84 93 -6 1 -17 6 -25 10 -10 6 -12 5 -7 -2 4 -7 2 -12 -3 -12 -13
0 -14 10 -2 29 6 9 11 10 15 2 4 -6 11 -11 16 -11 13 0 20 29 8 36 -6 4 -8 3
-4 -4 3 -6 2 -13 -4 -17 -6 -3 -14 4 -18 16 l-9 23 -6 -23 c-5 -19 -9 -21 -25
-12 -11 6 -23 7 -27 3 -3 -4 -5 0 -3 8 2 10 -3 14 -16 12 -10 -2 -15 1 -12 7
4 5 15 9 26 8 10 -1 17 -4 15 -7 -2 -3 5 -11 15 -17 16 -11 18 -9 15 13 -2 25
-15 47 -15 27 0 -12 -18 -12 -37 0 -6 4 -14 3 -18 -3 -3 -5 -11 -10 -18 -10
-6 0 -2 6 8 14 10 7 26 11 36 9 9 -3 20 1 24 7 5 9 1 10 -16 5 -19 -6 -21 -5
-12 5 9 10 9 17 0 33 -9 15 -9 21 1 24 6 3 12 9 12 14 0 6 -4 7 -10 4 -5 -3
-10 1 -10 10 0 9 5 13 10 10 6 -3 13 1 16 9 3 9 10 13 15 10 5 -3 6 1 3 9 -3
8 2 17 12 21 12 5 15 2 10 -11 -6 -14 -5 -15 5 -6 10 10 9 16 -2 29 -12 15
-12 16 9 10 17 -6 22 -3 22 9 0 10 5 13 13 9 9 -6 9 -4 -1 8 -9 11 -10 18 -2
23 5 3 10 2 10 -2 0 -5 11 -9 24 -9 14 0 22 4 19 9 -3 4 -7 6 -10 3 -3 -3 -13
-1 -22 3 -11 6 -23 4 -36 -5 -13 -10 -15 -14 -4 -14 8 -1 -1 -9 -20 -19 -19
-10 -30 -20 -25 -23 5 -3 3 -3 -4 -1 -8 1 -10 -2 -6 -9 5 -7 3 -8 -6 -3 -8 5
-11 4 -7 -3 9 -13 -2 -44 -13 -37 -12 7 -23 -13 -25 -44 -2 -14 -6 -35 -10
-46 -5 -14 -4 -16 3 -6 5 7 12 9 15 4 3 -5 -2 -14 -12 -20 -15 -10 -18 -8 -18
10 -1 40 -3 47 -14 47 -6 0 -9 -6 -6 -13 3 -8 -1 -14 -8 -14 -10 0 -11 5 -4
19 5 10 14 18 20 18 6 0 7 5 4 10 -4 6 -1 9 6 8 6 -2 14 3 17 11 3 9 0 11 -8
6 -9 -5 -11 -4 -6 4 4 6 11 9 16 6 5 -3 11 -1 15 5 3 5 1 10 -4 10 -20 0 -11
17 15 29 15 7 24 17 21 25 -4 10 1 12 16 8 20 -5 20 -4 8 11 -7 9 -18 14 -25
10 -6 -3 -7 -2 -3 2 11 13 38 15 31 3 -4 -6 -1 -8 7 -6 8 3 13 10 12 16 -2 6
4 9 12 6 10 -4 13 0 10 16 -3 17 -1 19 9 11 9 -7 16 -7 24 1 9 9 17 7 32 -10
23 -25 39 -30 20 -7 -10 12 -9 16 5 21 13 5 14 9 3 15 -7 5 -17 9 -23 9 -5 0
-4 -4 4 -9 7 -5 9 -11 5 -13 -5 -3 -18 4 -28 15 -18 19 -18 20 -2 14 14 -6 17
-3 12 8 -4 10 3 19 18 27 16 7 22 16 18 26 -4 11 0 10 15 -4 24 -23 19 -37
-10 -29 -18 5 -19 4 -7 -5 12 -9 10 -10 -10 -5 -24 6 -24 5 -6 -9 22 -18 40
-21 31 -7 -3 5 4 12 15 16 11 3 20 13 20 21 0 8 5 12 10 9 6 -3 10 -1 10 4 0
6 -5 11 -11 11 -5 0 -7 4 -4 10 3 6 -1 7 -10 3 -14 -5 -14 -8 -3 -15 11 -8 10
-9 -1 -6 -8 2 -15 11 -17 20 -1 11 3 15 14 11 10 -4 13 -2 8 5 -5 8 -2 10 8 6
11 -4 14 0 11 16 -3 17 -1 19 9 11 9 -7 16 -7 23 0 15 15 36 1 29 -20 -4 -9 2
-5 13 9 11 13 19 29 18 35 -1 5 5 8 13 7 8 -2 12 0 8 4 -10 10 10 34 25 30 7
-1 9 -1 5 1 -16 9 -7 22 12 18 11 -2 23 1 26 7 4 6 2 8 -4 4 -6 -3 -13 -2 -16
3 -3 5 1 11 9 15 8 3 19 -3 24 -12 6 -9 11 -12 11 -7 0 6 -6 17 -12 24 -11 11
-10 13 4 8 22 -8 30 3 15 21 -10 13 -8 14 11 8 17 -6 22 -3 22 9 0 10 5 13 12
9 7 -5 8 -3 2 7 -5 8 -7 22 -5 33 1 10 -1 16 -7 13 -5 -4 -9 0 -9 8 0 10 4 12
12 5 9 -7 16 -6 25 5 7 8 9 15 4 15 -5 0 -1 5 9 11 9 6 15 14 12 20 -3 5 1 6
9 3 11 -4 14 0 11 16 -3 17 -1 19 9 11 9 -7 16 -7 23 0 15 15 36 1 29 -20 -4
-9 2 -5 13 9 20 25 18 45 -3 37 -7 -3 -19 -1 -27 4 -12 7 -12 9 1 10 8 1 20 3
25 3 6 1 16 5 22 9 9 6 11 3 7 -7 -4 -10 -1 -16 7 -16 7 0 9 3 6 7 -9 9 12 32
26 29 7 -1 9 -1 5 1 -16 9 -7 22 12 18 11 -2 23 1 26 7 4 6 2 8 -4 4 -6 -3
-13 -2 -16 3 -3 5 1 11 9 15 8 3 19 -3 24 -12 6 -9 11 -12 11 -7 0 6 -6 17
-12 24 -11 11 -10 13 4 8 22 -8 30 3 15 21 -10 13 -8 14 11 8 17 -6 22 -3 22
9 0 10 5 13 13 9 9 -6 9 -4 -1 8 -7 8 -9 24 -5 33 4 11 2 16 -4 12 -5 -3 -10
0 -10 8 0 10 4 12 12 5 9 -7 17 -5 26 7 12 15 12 16 -6 10 l-20 -7 20 16 c11
8 19 19 18 24 -2 5 5 6 14 3 12 -5 14 -3 8 8 -5 8 -4 11 0 6 16 -14 15 -39 -1
-33 -8 3 -12 2 -9 -3 3 -5 1 -12 -5 -16 -6 -4 -7 -11 -4 -17 4 -6 2 -8 -4 -4
-6 3 -14 1 -18 -5 -4 -7 -3 -9 4 -5 6 3 13 2 17 -4 10 -16 24 -2 20 20 -4 22
10 27 19 8 3 -7 3 0 1 15 -2 17 1 27 8 26 20 -3 47 12 47 28 0 8 5 11 10 8 6
-3 10 -1 10 4 0 6 -5 11 -11 11 -5 0 -7 5 -3 12 4 7 3 8 -5 4 -6 -4 -9 -12 -6
-17 4 -5 1 -9 -5 -9 -6 0 -9 -4 -6 -9 3 -5 0 -14 -8 -20 -10 -8 -17 -6 -32 12
-10 12 -12 16 -4 10 8 -7 21 -13 29 -13 12 0 9 6 -8 19 -18 14 -21 20 -11 26
9 5 11 4 6 -3 -9 -15 -1 -15 25 -1 11 5 17 14 14 19 -3 6 1 7 9 4 8 -3 18 -15
22 -27 6 -20 7 -20 21 6 15 29 29 37 19 11 -3 -9 -2 -12 4 -9 6 4 10 12 9 18
-3 25 1 38 11 32 6 -3 10 -1 10 4 0 19 -40 5 -43 -15 -1 -5 -6 -8 -10 -6 -5 1
-6 -1 -3 -6 2 -4 1 -14 -5 -22 -7 -12 -9 -10 -9 8 0 13 -4 21 -8 18 -5 -3 -9
1 -9 9 0 10 4 12 12 5 13 -11 40 11 28 23 -6 7 11 11 33 8 18 -2 26 30 12 48
-11 14 -11 14 2 4 27 -21 45 5 26 37 -7 12 -6 13 5 3 20 -19 34 -16 18 4 -8 9
-9 14 -3 10 15 -8 25 17 18 40 -4 11 -2 14 3 8 4 -6 14 -10 21 -9 6 1 16 2 21
3 11 1 9 20 -3 40 -6 9 -5 12 1 8 21 -13 36 25 37 88 1 35 5 67 10 72 5 4 6 3
2 -4 -4 -7 -3 -13 2 -13 17 0 22 13 11 27 -8 9 -15 10 -24 3 -10 -8 -15 -8
-21 1 -4 8 -3 9 5 5 6 -4 14 0 17 9 6 14 8 13 21 -5 8 -11 19 -17 26 -13 7 4
6 0 -2 -10 -7 -9 -9 -17 -3 -17 5 0 12 7 16 15 3 9 12 12 23 8 10 -3 15 -3 11
1 -5 7 -26 13 -50 15 -9 1 -41 61 -32 61 4 0 2 6 -3 13 -5 6 -9 19 -8 27 0 8
-5 21 -13 29 -11 11 -11 16 1 30 8 9 13 25 11 35 -1 11 5 26 14 33 15 13 15
13 -4 4 -25 -12 -35 -6 -27 17 4 14 3 15 -6 2 -5 -8 -14 -11 -18 -6 -4 4 1 14
11 22 11 8 15 14 9 14 -7 0 -15 -5 -18 -10 -4 -6 -11 -7 -17 -4 -6 4 -5 10 3
15 11 7 11 9 -1 9 -13 0 -13 1 0 10 8 5 11 10 5 10 -5 0 -17 -4 -25 -10 -12
-7 -12 -12 4 -28 14 -16 15 -22 4 -28 -7 -4 -10 -4 -6 0 8 10 -14 36 -24 29
-18 -10 -6 18 15 37 19 18 19 20 3 14 -14 -5 -17 -4 -12 5 4 6 4 11 -1 10 -19
-3 -33 2 -33 12 0 5 4 8 8 5 5 -3 9 1 9 9 0 20 -13 19 -21 -2 -5 -11 -1 -22 9
-29 9 -7 12 -14 8 -16 -4 -3 -1 -3 7 -1 11 3 12 1 3 -8 -12 -12 -37 -3 -28 11
3 5 1 11 -5 15 -5 3 -10 2 -10 -3 0 -5 -6 -9 -14 -9 -8 0 -11 8 -8 19 2 10 -1
18 -7 18 -6 0 -11 6 -11 13 1 6 10 1 20 -12 11 -13 20 -19 20 -14 0 5 -6 15
-12 22 -11 11 -10 13 3 8 13 -4 16 -1 11 15 -4 16 -2 19 8 13 9 -6 11 -4 5 5
-6 10 -11 9 -22 -5 -16 -23 -63 -32 -63 -13 0 9 -3 9 -9 -2 -6 -8 -7 -19 -4
-25 4 -5 2 -6 -3 -2 -5 5 -9 16 -9 25 0 9 -6 16 -13 14 -10 -2 -10 2 0 18 14
21 28 27 28 10 0 -5 -5 -10 -11 -10 -5 0 -7 -5 -3 -11 4 -8 9 -7 15 2 6 10 9
10 9 2 0 -7 7 -10 18 -7 15 5 15 4 2 -6 -13 -10 -12 -11 3 -6 10 3 21 6 23 6
3 0 2 5 -1 10 -3 6 -15 10 -26 10 -11 0 -18 4 -15 9 7 10 -22 24 -34 16 -5 -3
-11 -1 -15 5 -3 5 -1 10 4 10 6 0 11 5 11 11 0 8 -6 7 -16 -2 -14 -11 -19 -10
-34 9 -16 19 -21 20 -42 9 -13 -6 -25 -15 -26 -19 -2 -9 -12 -12 -18 -5 -3 3
7 14 21 25 23 18 24 21 6 19 -11 0 -17 -5 -14 -11 4 -5 -1 -7 -10 -3 -21 8
-49 -2 -41 -14 3 -5 -2 -6 -10 -3 -9 3 -16 10 -16 16 0 5 4 7 9 3 5 -3 12 -1
16 5 9 15 15 54 7 46 -7 -7 -8 -11 -11 -38 -1 -9 -4 -8 -11 2 -7 11 -10 11
-10 2 0 -7 -5 -10 -10 -7 -8 5 -8 11 0 20 7 9 6 16 -7 26 -16 13 -17 12 -5 -3z
m-3108 -62 c0 -3 -4 -8 -10 -11 -5 -3 -10 -1 -10 4 0 6 5 11 10 11 6 0 10 -2
10 -4z m3183 -16 c-3 -12 -8 -19 -11 -16 -5 6 5 36 12 36 2 0 2 -9 -1 -20z
m125 -47 c-6 -7 -15 -13 -21 -13 -6 0 -2 7 9 16 19 15 19 15 -3 11 -15 -3 -20
-1 -16 8 5 16 -12 14 -47 -4 -22 -11 -23 -10 -8 2 10 8 14 18 10 22 -4 5 -1 5
6 1 7 -4 12 -1 12 9 0 12 8 10 34 -12 27 -20 32 -30 24 -40z m-3178 27 c0 -5
-5 -10 -11 -10 -5 0 -7 5 -4 10 3 6 8 10 11 10 2 0 4 -4 4 -10z m2874 -19 c-9
-9 -34 -9 -34 -1 0 5 9 8 20 7 10 -1 17 -3 14 -6z m-3102 -18 c-10 -4 -8 -9 5
-19 15 -12 15 -13 2 -8 -10 3 -20 1 -23 -5 -4 -6 -14 -7 -24 -4 -14 5 -15 3
-4 -8 15 -16 16 -29 1 -29 -5 0 -8 4 -4 9 3 5 0 13 -6 16 -6 5 2 18 23 35 18
15 35 26 38 23 3 -3 -1 -8 -8 -10z m43 -12 c3 -5 0 -13 -6 -17 -7 -4 -9 -3 -5
4 3 5 0 13 -6 15 -9 4 -10 6 -1 6 6 1 14 -3 18 -8z m405 -13 c0 -4 -4 -8 -9
-8 -6 0 -12 4 -15 8 -3 5 1 9 9 9 8 0 15 -4 15 -9z m78 -14 c2 -1 -4 -4 -13
-8 -9 -3 -13 -2 -10 4 3 6 1 10 -4 10 -6 0 -11 5 -11 11 0 8 6 7 18 -2 9 -7
18 -14 20 -15z m2436 -13 c-2 -2 -10 2 -19 9 -17 14 -21 0 -4 -17 9 -9 7 -11
-7 -8 -11 2 -21 4 -24 5 -3 1 -9 2 -15 1 -5 -1 1 8 15 21 22 22 26 22 40 8 9
-8 15 -17 14 -19z m46 35 c0 -3 -4 -8 -10 -11 -5 -3 -10 -1 -10 4 0 6 5 11 10
11 6 0 10 -2 10 -4z m-3076 -32 c3 -8 2 -12 -4 -9 -6 3 -10 3 -11 -2 -3 -30
-10 -46 -31 -63 -21 -18 -14 -30 8 -12 5 4 4 1 -3 -7 -10 -12 -15 -12 -27 -2
-13 11 -15 9 -12 -16 3 -21 0 -30 -10 -30 -8 0 -14 4 -14 9 0 4 5 8 10 8 6 0
10 5 10 11 0 5 -4 8 -9 4 -5 -3 -12 -1 -16 5 -3 6 1 13 9 16 9 3 13 11 9 17
-3 5 -1 7 5 3 6 -3 13 -2 17 4 4 6 11 7 17 4 7 -5 9 -1 5 9 -4 10 0 20 11 26
9 6 13 11 8 11 -5 0 -3 7 4 15 15 19 16 19 24 -1z m553 -16 c-3 -8 -6 -5 -6 6
-1 11 2 17 5 13 3 -3 4 -12 1 -19z m45 -16 c-7 -2 -9 -9 -5 -15 3 -7 2 -8 -2
-4 -16 14 -14 36 3 29 10 -4 12 -7 4 -10z m2375 -37 c0 -8 -4 -12 -9 -9 -5 3
-6 10 -3 15 9 13 12 11 12 -6z m-2281 -20 c1 -8 -2 -15 -7 -15 -5 0 -9 5 -9
12 0 7 -7 5 -18 -5 -16 -15 -18 -15 -18 2 0 10 6 17 12 14 7 -2 15 1 19 7 8
13 18 6 21 -15z m2919 15 c3 -5 1 -10 -4 -10 -6 0 -11 5 -11 10 0 6 2 10 4 10
3 0 8 -4 11 -10z m45 -56 c0 -8 -4 -14 -8 -14 -4 0 -8 9 -8 19 0 11 4 17 8 15
4 -3 8 -12 8 -20z m65 -25 c-4 -5 -2 -9 3 -9 5 0 9 -6 9 -14 0 -8 -6 -12 -14
-9 -7 3 -10 9 -7 14 3 5 -1 9 -9 9 -16 0 -30 24 -20 34 9 9 44 -14 38 -25z
m-3801 -17 c3 -5 -1 -9 -9 -9 -8 0 -12 4 -9 9 3 4 7 8 9 8 2 0 6 -4 9 -8z
m812 -4 c3 -4 -1 -5 -10 -4 -8 1 -18 5 -22 8 -3 4 1 5 10 4 8 -1 18 -5 22 -8z
m63 -14 c-15 -18 -22 -13 -13 10 3 9 10 13 16 10 5 -3 4 -12 -3 -20z m2872 9
c13 -16 12 -17 -3 -4 -17 13 -22 21 -14 21 2 0 10 -8 17 -17z m-2910 -30 c13
-16 12 -17 -3 -4 -10 7 -18 15 -18 17 0 8 8 3 21 -13z m-851 3 c0 -2 -8 -10
-17 -17 -16 -13 -17 -12 -4 4 13 16 21 21 21 13z m2850 -40 c0 -3 -4 -8 -10
-11 -5 -3 -10 -1 -10 4 0 6 5 11 10 11 6 0 10 -2 10 -4z m964 -4 c3 -5 -1 -9
-9 -9 -8 0 -12 4 -9 9 3 4 7 8 9 8 2 0 6 -4 9 -8z m-950 -20 c2 -4 -5 -9 -17
-9 -17 -2 -19 0 -7 7 18 12 18 12 24 2z m-2910 -24 c-3 -4 -9 -8 -15 -8 -5 0
-9 4 -9 8 0 5 7 9 15 9 8 0 12 -4 9 -9z m989 -3 c4 -8 3 -16 -1 -19 -4 -3 -9
4 -9 15 -2 23 3 25 10 4z m2881 -1 c3 -8 2 -12 -4 -9 -6 3 -10 10 -10 16 0 14
7 11 14 -7z m-2815 -11 c-12 -15 -12 -16 3 -10 17 6 27 -3 66 -59 12 -17 12
-17 8 -1 -5 15 -2 16 14 7 24 -13 24 -19 5 -44 -13 -17 -15 -17 -15 -3 0 9 -9
22 -20 30 -11 8 -17 17 -13 20 6 6 -11 11 -29 8 -5 0 -7 4 -5 10 1 6 -4 14
-12 17 -8 3 -11 0 -7 -7 4 -6 3 -18 -2 -27 -6 -11 -9 -5 -8 23 0 21 5 41 11
45 17 12 18 9 4 -9z m-1092 -75 c-3 -8 -6 -5 -6 6 -1 11 2 17 5 13 3 -3 4 -12
1 -19z m2738 -27 c-3 -5 -1 -12 5 -16 5 -3 10 1 10 9 0 9 5 16 10 16 12 0 9
-22 -5 -32 -5 -4 -16 -1 -24 5 -12 10 -14 9 -8 -6 4 -10 3 -16 -2 -13 -12 8
-32 -18 -28 -35 2 -8 2 -11 0 -6 -3 4 -9 7 -14 7 -6 0 -7 -4 -4 -10 3 -5 1
-10 -4 -10 -6 0 -11 5 -11 11 0 5 -6 7 -12 3 -10 -6 -10 -5 -1 8 7 8 11 18 8
21 -3 4 -2 5 2 2 3 -3 15 2 25 12 10 9 18 12 18 7 0 -5 7 2 16 14 14 21 31 32
19 13z m-2705 -21 c0 -5 -5 -10 -11 -10 -5 0 -7 5 -4 10 3 6 8 10 11 10 2 0 4
-4 4 -10z m1144 -18 c3 -5 -1 -9 -9 -9 -8 0 -15 4 -15 9 0 4 4 8 9 8 6 0 12
-4 15 -8z m41 -20 c-3 -3 -11 0 -18 7 -9 10 -8 11 6 5 10 -3 15 -9 12 -12z
m80 -35 c4 5 5 2 1 -4 -6 -12 4 -17 26 -14 3 0 5 -7 3 -17 -3 -17 -17 -18 -45
-2 -10 7 -11 9 -2 10 7 0 11 4 7 10 -3 5 -13 7 -23 4 -14 -5 -15 -4 -2 5 10 7
11 11 3 11 -7 0 -13 5 -13 12 0 6 7 4 18 -5 10 -10 22 -14 27 -10z m2597 -16
c-4 -10 -7 -11 -10 -3 -2 7 -9 9 -14 6 -6 -4 -8 -3 -5 3 10 16 36 11 29 -6z
m-2512 -56 c0 -1 -6 -8 -14 -15 -12 -9 -15 -8 -13 8 0 12 6 18 14 15 7 -3 13
-6 13 -8z m1224 -1 c3 -8 2 -12 -4 -9 -6 3 -10 10 -10 16 0 14 7 11 14 -7z
m1266 6 c0 -5 -4 -10 -10 -10 -5 0 -10 5 -10 10 0 6 5 10 10 10 6 0 10 -4 10
-10z m-2535 -40 c3 -6 -1 -7 -9 -4 -18 7 -21 14 -7 14 6 0 13 -4 16 -10z m85
-54 c0 -2 -9 -6 -20 -9 -11 -3 -18 -1 -14 4 5 9 34 13 34 5z m2325 -36 c-3 -5
3 -11 12 -14 15 -4 15 -5 -1 -3 -11 1 -20 10 -22 20 -1 9 2 15 7 11 5 -3 7 -9
4 -14z m-1308 3 c-7 -11 19 -33 29 -25 4 4 4 1 0 -6 -6 -10 -11 -10 -22 -1
-11 9 -14 8 -14 -4 0 -9 -9 -19 -20 -22 -12 -4 -17 -11 -14 -18 5 -8 3 -8 -6
0 -19 18 -23 48 -5 33 20 -16 40 -3 24 16 -10 12 -9 13 5 8 9 -4 16 -3 15 2
-2 14 0 24 7 24 3 0 3 -3 1 -7z m-2227 -9 c0 -8 -19 -13 -24 -6 -3 5 1 9 9 9
8 0 15 -2 15 -3z m51 -77 c-10 -9 -11 -8 -5 6 3 10 9 15 12 12 3 -3 0 -11 -7
-18z m1339 -3 c0 -2 -9 0 -20 6 -11 6 -20 13 -20 16 0 2 9 0 20 -6 11 -6 20
-13 20 -16z m2070 16 c0 -5 -5 -10 -11 -10 -5 0 -7 5 -4 10 3 6 8 10 11 10 2
0 4 -4 4 -10z m-3435 -20 c-6 -10 8 -14 35 -10 22 3 6 -10 -18 -15 -20 -3 -37
17 -25 29 10 10 15 7 8 -4z m2195 6 c0 -2 -7 -7 -16 -10 -8 -3 -12 -2 -9 4 6
10 25 14 25 6z m-859 -63 c13 -16 12 -17 -3 -4 -10 7 -18 15 -18 17 0 8 8 3
21 -13z m-1250 -23 c5 0 9 -5 9 -11 0 -8 -4 -8 -15 1 -8 6 -19 9 -24 6 -12 -8
-24 11 -16 24 4 6 12 4 21 -5 9 -8 20 -15 25 -15z m1294 2 c-3 -3 -11 0 -18 7
-9 10 -8 11 6 5 10 -3 15 -9 12 -12z m-1271 -36 c-3 -9 -10 -13 -15 -10 -5 3
-3 11 4 19 15 16 19 13 11 -9z m77 -39 c-10 -9 -11 -8 -5 6 3 10 9 15 12 12 3
-3 0 -11 -7 -18z m3089 13 c0 -5 -5 -10 -11 -10 -5 0 -7 5 -4 10 3 6 8 10 11
10 2 0 4 -4 4 -10z m-1777 -17 c-4 -10 -2 -14 4 -10 6 4 19 -3 29 -14 10 -12
31 -27 46 -35 16 -8 27 -18 27 -22 -3 -19 2 -33 10 -28 5 4 23 -8 41 -25 17
-17 34 -29 37 -26 3 4 15 0 26 -8 14 -10 24 -11 33 -4 8 7 15 6 20 -2 4 -7 3
-9 -4 -5 -5 3 -12 1 -14 -5 -3 -9 -9 -9 -26 0 -25 13 -30 4 -6 -13 13 -10 13
-12 -5 -13 -11 -1 -20 1 -20 5 3 20 -2 33 -13 30 -7 -1 -35 8 -61 21 -35 17
-45 27 -38 34 16 16 13 31 -4 17 -23 -19 -39 -1 -19 21 24 26 6 24 -25 -3
l-26 -23 24 28 c23 25 23 27 5 28 -10 1 -23 1 -27 0 -5 -1 -6 3 -3 8 4 5 -4
17 -16 26 -20 13 -21 17 -8 25 20 13 20 13 13 -7z m1775 -31 c-11 -13 -10 -15
4 -9 11 4 15 2 12 -6 -5 -14 -48 -17 -60 -4 -5 4 0 5 10 1 13 -5 17 -4 13 3
-4 6 0 14 9 17 8 3 12 11 8 17 -4 8 -3 9 5 5 9 -6 9 -11 -1 -24z m-1786 -28
c-9 -16 -10 -14 -9 8 1 15 6 23 11 18 4 -4 4 -16 -2 -26z m1778 -29 c0 -3 -6
-2 -14 1 -8 3 -17 0 -21 -5 -3 -6 -11 -9 -16 -6 -8 6 -13 -9 -10 -28 1 -5 -3
-6 -8 -3 -5 4 -14 -1 -19 -10 -5 -10 -22 -18 -38 -20 -28 -3 -28 -2 -7 9 16 9
19 16 12 29 -6 11 -6 19 1 23 6 4 10 3 9 -2 -3 -18 2 -33 11 -33 5 0 7 8 4 18
-5 14 -4 15 5 2 10 -13 15 -8 12 13 0 4 4 7 10 7 5 0 7 6 3 13 -5 8 -2 8 9 -2
20 -16 23 -1 5 17 -7 7 2 6 20 -3 17 -9 32 -18 32 -20z m-1412 -29 c0 -19 -3
-22 -13 -13 -7 7 -10 18 -8 24 8 21 21 14 21 -11z m-1518 -2 c0 -8 -19 -13
-24 -6 -3 5 1 9 9 9 8 0 15 -2 15 -3z m1234 -30 c3 -8 2 -12 -4 -9 -6 3 -10
10 -10 16 0 14 7 11 14 -7z m297 -7 c-10 -9 -11 -8 -5 6 3 10 9 15 12 12 3 -3
0 -11 -7 -18z m-231 -28 c0 -5 -4 -9 -8 -9 -5 0 -9 7 -9 15 0 8 4 12 9 9 4 -3
8 -9 8 -15z m-1224 -34 c1 -8 -2 -15 -6 -15 -5 0 -8 9 -7 20 1 21 10 18 13 -5z
m2724 11 c0 -3 -4 -8 -10 -11 -5 -3 -10 -1 -10 4 0 6 5 11 10 11 6 0 10 -2 10
-4z m-100 -16 c0 -5 -5 -10 -11 -10 -5 0 -7 5 -4 10 3 6 8 10 11 10 2 0 4 -4
4 -10z m-2578 -47 c-11 -22 -4 -46 10 -37 6 4 8 2 5 -4 -6 -9 -47 -6 -47 5 0
6 32 53 37 53 2 0 0 -8 -5 -17z m38 -7 c0 -2 -7 -7 -16 -10 -8 -3 -12 -2 -9 4
6 10 25 14 25 6z m2460 -26 c0 -5 -5 -10 -11 -10 -5 0 -7 5 -4 10 3 6 8 10 11
10 2 0 4 -4 4 -10z m3 -47 c-16 -13 -16 -14 -1 -9 12 3 15 1 11 -9 -3 -8 -9
-13 -13 -10 -5 3 -15 2 -24 -1 -15 -6 -15 -8 1 -20 15 -12 15 -13 2 -8 -10 3
-20 0 -24 -5 -3 -6 -11 -9 -16 -6 -8 6 -13 -8 -10 -27 0 -5 -2 -7 -6 -6 -5 1
-24 -14 -44 -35 -21 -20 -33 -37 -27 -37 5 0 7 -4 3 -10 -3 -5 -13 -2 -23 8
-17 16 -17 17 0 28 10 5 15 14 11 19 -4 5 -1 4 8 -3 9 -6 19 -9 22 -5 4 3 -1
12 -11 20 -16 12 -16 13 2 7 16 -6 17 -4 7 14 -7 14 -8 23 -1 27 6 4 10 3 9
-2 -3 -19 2 -33 12 -33 5 0 8 4 4 9 -3 5 4 16 15 24 11 7 17 18 12 23 -4 4 0
3 9 -4 9 -6 19 -9 22 -5 4 3 -1 12 -11 20 -16 12 -16 13 2 7 16 -6 17 -5 7 17
-11 21 -11 22 2 7 15 -18 33 -25 23 -9 -3 5 1 12 10 15 8 3 12 10 9 16 -3 6 1
7 10 4 14 -6 14 -8 -2 -21z m-186 -128 c0 -8 -4 -12 -9 -9 -5 3 -6 10 -3 15 9
13 12 11 12 -6z m-2037 -39 c0 -2 -7 -7 -16 -10 -8 -3 -12 -2 -9 4 6 10 25 14
25 6z m1980 -26 c0 -5 -5 -10 -11 -10 -5 0 -7 5 -4 10 3 6 8 10 11 10 2 0 4
-4 4 -10z m-1904 -92 c4 -7 3 -8 -4 -4 -7 4 -12 2 -12 -3 0 -6 5 -11 12 -11 9
0 9 -3 1 -11 -18 -18 -35 -1 -23 22 12 22 16 23 26 7z m38 -6 c3 -5 -1 -9 -9
-9 -8 0 -12 4 -9 9 3 4 7 8 9 8 2 0 6 -4 9 -8z m5 -34 c-3 -27 1 -39 13 -32 7
4 8 3 4 -4 -10 -16 -35 -3 -31 16 2 9 4 20 4 25 1 4 3 7 6 7 3 0 5 -6 4 -12z
m41 -2 c0 -2 -7 -7 -16 -10 -8 -3 -12 -2 -9 4 6 10 25 14 25 6z m1660 -26 c0
-5 -5 -10 -11 -10 -5 0 -7 5 -4 10 3 6 8 10 11 10 2 0 4 -4 4 -10z m-1605 -53
c-4 -8 -15 -17 -26 -20 -19 -5 -19 -4 3 17 26 25 31 26 23 3z m1478 -82 c-3
-9 -8 -14 -10 -11 -3 3 -2 9 2 15 9 16 15 13 8 -4z m-1420 -118 c4 3 7 2 7 -4
0 -6 -7 -14 -16 -17 -8 -3 -12 -10 -9 -16 3 -5 0 -7 -8 -4 -14 5 -20 -22 -8
-41 3 -6 -1 -3 -10 7 -20 21 -34 12 -16 -10 10 -13 9 -14 -2 -7 -11 6 -13 4
-8 -11 7 -19 7 -19 -8 0 -8 10 -12 23 -8 29 3 6 1 7 -6 3 -6 -4 -9 -11 -6 -16
3 -4 -2 -10 -10 -14 -8 -3 -15 -11 -15 -17 0 -8 4 -8 15 1 10 9 15 9 15 1 0
-6 -5 -11 -11 -11 -5 0 -7 -6 -3 -12 6 -10 4 -10 -7 0 -20 18 -33 15 -18 -5
13 -16 12 -17 -3 -5 -14 11 -15 17 -5 33 6 10 15 19 20 19 4 0 6 4 3 9 -3 5 6
16 19 25 14 10 23 22 19 28 -4 6 -3 9 2 5 5 -3 18 1 29 9 10 8 15 14 11 14 -4
0 -4 5 -1 10 5 8 11 8 19 1 7 -6 16 -8 19 -4z m1462 -76 c3 -5 2 -12 -3 -15
-5 -3 -9 1 -9 9 0 17 3 19 12 6z m50 -29 c-3 -3 -11 0 -18 7 -9 10 -8 11 6 5
10 -3 15 -9 12 -12z m0 -22 c3 -6 -1 -7 -9 -4 -18 7 -21 14 -7 14 6 0 13 -4
16 -10z m57 -9 c-5 -13 -3 -14 9 -4 11 9 20 8 39 -8 16 -12 21 -21 14 -26 -6
-5 -14 -15 -17 -23 -4 -12 -6 -12 -6 2 -1 9 -10 20 -21 23 -11 3 -20 11 -20
16 0 6 -4 7 -10 4 -6 -3 -7 1 -4 10 5 11 2 14 -12 9 -13 -4 -15 -3 -6 3 21 15
41 11 34 -6z m-1662 -25 c0 -2 -7 -7 -16 -10 -8 -3 -12 -2 -9 4 6 10 25 14 25
6z m1674 -24 c3 -5 -1 -9 -9 -9 -8 0 -12 4 -9 9 3 4 7 8 9 8 2 0 6 -4 9 -8z
m27 -39 c13 -16 12 -17 -3 -4 -17 13 -22 21 -14 21 2 0 10 -8 17 -17z m-1831
-43 c0 -5 -2 -10 -4 -10 -3 0 -8 5 -11 10 -3 6 -1 10 4 10 6 0 11 -4 11 -10z
m2015 -50 c3 -6 -1 -7 -9 -4 -18 7 -21 14 -7 14 6 0 13 -4 16 -10z m-33 -66
c-9 -16 -10 -14 -9 8 1 15 6 23 11 18 4 -4 4 -16 -2 -26z m82 -21 c-7 -39 -13
-41 -12 -4 1 17 5 31 9 31 4 0 5 -12 3 -27z m-29 -1 c-3 -3 -11 0 -18 7 -9 10
-8 11 6 5 10 -3 15 -9 12 -12z m85 -27 c0 -1 -6 -8 -14 -15 -12 -9 -15 -8 -13
8 0 12 6 18 14 15 7 -3 13 -6 13 -8z m-45 -35 c3 -6 -1 -7 -9 -4 -18 7 -21 14
-7 14 6 0 13 -4 16 -10z m40 -18 c-3 -3 -11 0 -18 7 -9 10 -8 11 6 5 10 -3 15
-9 12 -12z m45 -36 c0 -2 -9 -6 -20 -9 -11 -3 -18 -1 -14 4 5 9 34 13 34 5z
m149 -122 c-11 -13 -11 -15 2 -12 8 1 29 -8 45 -22 l30 -25 -31 -25 -30 -24
24 27 c23 25 23 27 5 28 -10 1 -22 1 -26 0 -5 0 -7 4 -5 10 1 6 -4 14 -12 17
-8 3 -11 0 -7 -7 4 -6 3 -18 -2 -27 -6 -11 -9 -5 -8 23 0 21 5 41 11 45 17 12
18 9 4 -8z m-1384 -4 c-3 -5 -16 -10 -28 -9 -20 1 -20 2 3 9 14 4 26 8 28 9 2
1 0 -3 -3 -9z m85 -10 c6 -11 7 -20 2 -20 -6 0 -12 9 -15 20 -3 11 -3 20 -1
20 2 0 8 -9 14 -20z m-166 -8 c3 -5 -1 -9 -9 -9 -8 0 -12 4 -9 9 3 4 7 8 9 8
2 0 6 -4 9 -8z m215 -54 c-5 -10 -11 -18 -12 -18 -2 0 -3 8 -3 18 0 10 6 19
13 19 8 0 9 -6 2 -19z m36 -16 c-3 -3 -11 0 -18 7 -9 10 -8 11 6 5 10 -3 15
-9 12 -12z m1286 5 c-6 -8 -7 -18 -3 -22 4 -5 1 -5 -6 -1 -10 6 -10 11 -1 22
6 8 14 14 16 14 3 0 0 -6 -6 -13z m-2906 -16 c-3 -5 -1 -12 5 -16 5 -3 10 1
10 9 0 9 5 16 10 16 12 0 9 -22 -5 -32 -5 -4 -16 -1 -24 5 -12 10 -14 9 -8 -6
4 -10 3 -16 -2 -13 -12 8 -32 -18 -28 -35 2 -8 2 -11 0 -6 -3 4 -9 7 -14 7 -6
0 -7 -4 -4 -10 3 -5 1 -10 -4 -10 -6 0 -11 5 -11 11 0 5 -5 7 -12 3 -7 -4 -8
-3 -4 5 4 6 11 9 16 6 8 -5 28 13 29 28 1 4 4 8 9 8 4 1 13 10 20 20 13 19 28
27 17 10z m2965 -6 c0 -1 -6 -8 -14 -15 -12 -9 -15 -8 -13 8 0 12 6 18 14 15
7 -3 13 -6 13 -8z m-45 -35 c3 -6 -1 -7 -9 -4 -18 7 -21 14 -7 14 6 0 13 -4
16 -10z m-1688 -15 c0 -8 -4 -12 -9 -9 -5 3 -6 10 -3 15 9 13 12 11 12 -6z
m1728 -3 c-3 -3 -11 0 -18 7 -9 10 -8 11 6 5 10 -3 15 -9 12 -12z m50 -22 c3
-5 1 -10 -4 -10 -6 0 -11 5 -11 10 0 6 2 10 4 10 3 0 8 -4 11 -10z m-1255 -14
c0 -2 -7 -7 -16 -10 -8 -3 -12 -2 -9 4 6 10 25 14 25 6z m-580 -26 c0 -5 -5
-10 -11 -10 -5 0 -7 5 -4 10 3 6 8 10 11 10 2 0 4 -4 4 -10z m1939 -56 c-15
-18 -22 -13 -13 10 3 9 10 13 16 10 5 -3 4 -12 -3 -20z m-35 -22 c3 -5 -1 -9
-9 -9 -8 0 -15 4 -15 9 0 4 4 8 9 8 6 0 12 -4 15 -8z m-1254 -46 c-12 -12 -30
2 -24 19 5 11 9 12 19 2 7 -7 10 -16 5 -21z m44 26 c3 -5 -1 -9 -9 -9 -8 0
-12 4 -9 9 3 4 7 8 9 8 2 0 6 -4 9 -8z m5 -34 c-3 -27 1 -39 13 -32 7 4 8 3 4
-4 -10 -16 -35 -3 -31 16 2 9 4 20 4 25 1 4 3 7 6 7 3 0 5 -6 4 -12z m-2126
-18 c8 -9 8 -11 0 -6 -7 3 -14 -2 -18 -14 -3 -11 -14 -20 -23 -20 -13 0 -13 2
3 14 16 11 17 16 7 29 -11 13 -10 15 3 13 8 -1 21 -8 28 -16z m2167 16 c0 -2
-7 -7 -16 -10 -8 -3 -12 -2 -9 4 6 10 25 14 25 6z m1268 -16 c-7 -10 -14 -17
-17 -15 -4 4 18 35 25 35 2 0 -1 -9 -8 -20z m-2068 6 c0 -3 -4 -8 -10 -11 -5
-3 -10 -1 -10 4 0 6 5 11 10 11 6 0 10 -2 10 -4z m-100 -16 c0 -5 -5 -10 -11
-10 -5 0 -7 5 -4 10 3 6 8 10 11 10 2 0 4 -4 4 -10z m-1247 -15 c-3 -9 -8 -14
-10 -11 -3 3 -2 9 2 15 9 16 15 13 8 -4z m2207 -25 c0 -5 -5 -10 -11 -10 -5 0
-7 5 -4 10 3 6 8 10 11 10 2 0 4 -4 4 -10z m-2297 -25 c4 3 5 2 2 -2 -3 -3 1
-13 7 -22 7 -9 -1 -4 -18 12 -17 15 -34 24 -39 20 -4 -5 -5 -2 -1 5 7 11 11
10 25 -2 10 -9 21 -14 24 -11z m2287 1 c0 -2 -9 -6 -20 -9 -11 -3 -18 -1 -14
4 5 9 34 13 34 5z m-1030 -16 c0 -5 -5 -10 -11 -10 -5 0 -7 5 -4 10 3 6 8 10
11 10 2 0 4 -4 4 -10z m-7 -40 c4 0 5 4 2 10 -3 6 1 7 9 4 20 -8 20 -11 -5
-42 -23 -30 -48 -38 -44 -13 1 9 9 16 18 16 20 0 35 15 16 16 -8 1 -17 1 -20
1 -3 -1 -6 6 -6 14 0 10 4 11 11 4 5 -5 14 -10 19 -10z m-53 -42 c0 -4 -7 -8
-15 -8 -8 0 -15 4 -15 8 0 5 7 9 15 9 8 0 15 -4 15 -9z m1214 -4 c3 -8 2 -12
-4 -9 -6 3 -10 10 -10 16 0 14 7 11 14 -7z m1270 -30 c3 -8 2 -12 -4 -9 -6 3
-10 10 -10 16 0 14 7 11 14 -7z m-2584 -44 c0 -5 -5 -10 -11 -10 -5 0 -7 5 -4
10 3 6 8 10 11 10 2 0 4 -4 4 -10z m1391 -13 c-10 -9 -11 -8 -5 6 3 10 9 15
12 12 3 -3 0 -11 -7 -18z m-1397 -39 c-5 -7 -2 -9 9 -5 10 4 14 2 11 -6 -5
-14 -48 -17 -60 -4 -5 4 0 5 10 1 13 -5 17 -4 13 3 -4 6 -1 14 5 16 19 8 20 8
12 -5z m2636 -3 c0 -2 -6 -8 -13 -14 -10 -8 -14 -7 -14 2 0 8 6 14 14 14 7 0
13 -1 13 -2z m-2640 -50 c0 -3 -6 -2 -14 1 -8 3 -17 0 -21 -5 -3 -6 -11 -9
-16 -6 -8 6 -13 -9 -10 -28 1 -5 -3 -6 -8 -3 -5 4 -14 -1 -19 -10 -5 -10 -22
-18 -38 -20 -28 -3 -28 -2 -7 9 16 9 19 16 12 29 -6 11 -6 19 1 23 6 4 10 3 9
-2 -3 -18 2 -33 11 -33 5 0 7 8 4 18 -5 14 -4 15 5 2 10 -13 15 -8 12 13 0 4
4 7 10 7 5 0 7 6 3 13 -5 8 -2 8 9 -2 20 -16 23 -1 5 17 -7 7 2 6 20 -3 17 -9
32 -18 32 -20z m-1283 -20 c0 -8 -4 -12 -9 -9 -5 3 -6 10 -3 15 9 13 12 11 12
-6z m2827 -36 c-2 -4 2 -10 8 -13 7 -3 2 -3 -12 0 -20 5 -23 4 -12 -7 6 -7 12
-18 12 -23 0 -6 -5 -3 -11 7 -8 14 -14 16 -25 6 -20 -16 -17 -3 4 19 16 18 46
26 36 11z m-1717 -14 c0 -8 -4 -12 -9 -9 -5 3 -6 10 -3 15 9 13 12 11 12 -6z
m2823 -30 c0 -8 -2 -15 -4 -15 -2 0 -6 7 -10 15 -3 8 -1 15 4 15 6 0 10 -7 10
-15z m-2780 -19 c0 -3 -4 -8 -10 -11 -5 -3 -10 -1 -10 4 0 6 5 11 10 11 6 0
10 -2 10 -4z m-100 -16 c0 -5 -5 -10 -11 -10 -5 0 -7 5 -4 10 3 6 8 10 11 10
2 0 4 -4 4 -10z m1871 -13 c-10 -9 -11 -8 -5 6 3 10 9 15 12 12 3 -3 0 -11 -7
-18z m1009 -3 c0 -8 -19 -13 -24 -6 -3 5 1 9 9 9 8 0 15 -2 15 -3z m-940 -40
c0 -8 -19 -13 -24 -6 -3 5 1 9 9 9 8 0 15 -2 15 -3z m974 -12 c3 -5 -1 -9 -9
-9 -8 0 -12 4 -9 9 3 4 7 8 9 8 2 0 6 -4 9 -8z m-3894 -32 c0 -5 -5 -10 -11
-10 -5 0 -7 5 -4 10 3 6 8 10 11 10 2 0 4 -4 4 -10z m931 -7 c3 1 -3 -6 -14
-15 -10 -9 -25 -14 -34 -11 -13 5 -12 8 6 18 12 6 18 15 14 20 -4 5 -1 4 8 -3
9 -6 18 -11 20 -9z m-891 -68 c5 3 7 -4 5 -15 -3 -15 1 -20 13 -18 16 3 18 -1
21 -38 1 -13 4 -14 15 -5 11 9 18 5 35 -21 11 -18 21 -29 21 -24 0 4 9 -2 20
-15 10 -13 19 -19 20 -13 0 5 -6 16 -12 23 -11 11 -10 13 0 7 17 -10 45 -66
37 -74 -4 -4 -19 8 -34 27 -16 19 -33 31 -38 28 -6 -4 -22 2 -34 13 -13 11
-20 19 -14 20 5 0 -2 8 -15 17 -14 10 -29 17 -33 15 -5 -1 -6 2 -2 8 3 6 12 8
18 4 7 -3 3 1 -8 10 -11 8 -34 30 -52 48 -25 25 -29 35 -21 46 9 10 15 7 31
-17 10 -17 23 -29 27 -26z m3762 23 c-2 -10 -7 -18 -11 -18 -4 0 -7 8 -7 18 0
10 5 19 12 19 6 0 9 -9 6 -19z m-2982 -8 c0 -5 -5 -10 -11 -10 -5 0 -7 5 -4
10 3 6 8 10 11 10 2 0 4 -4 4 -10z m2220 -14 c0 -3 -4 -8 -10 -11 -5 -3 -10
-1 -10 4 0 6 5 11 10 11 6 0 10 -2 10 -4z m769 -32 c-14 -18 -24 -11 -15 11 3
9 11 13 16 10 8 -5 7 -11 -1 -21z m-3692 -20 c-3 -3 -12 -4 -19 -1 -8 3 -5 6
6 6 11 1 17 -2 13 -5z m618 -13 c-3 -5 1 -16 10 -24 13 -13 13 -17 -2 -29 -11
-9 -14 -9 -9 -1 4 7 2 21 -3 31 -6 11 -7 22 -4 26 9 9 15 7 8 -3z m2976 -8
c12 -16 12 -17 -2 -6 -9 7 -20 9 -24 5 -5 -4 -5 -1 -1 6 9 16 11 15 27 -5z
m-2991 -33 c0 -5 -2 -10 -4 -10 -3 0 -8 5 -11 10 -3 6 -1 10 4 10 6 0 11 -4
11 -10z m2966 -12 c-11 -16 -13 -25 -4 -35 15 -18 0 -16 -18 2 -11 11 -12 15
-3 15 7 0 10 3 6 6 -7 7 14 33 26 34 5 0 1 -10 -7 -22z m-3015 -15 c13 -16 12
-17 -3 -4 -17 13 -22 21 -14 21 2 0 10 -8 17 -17z m2942 -8 c-3 -9 -8 -14 -10
-11 -3 3 -2 9 2 15 9 16 15 13 8 -4z m-3378 -4 c3 -5 2 -12 -3 -15 -5 -3 -9 1
-9 9 0 17 3 19 12 6z m2970 -40 c-2 -5 2 -14 10 -21 8 -7 15 -9 15 -5 0 4 8 1
17 -6 15 -12 16 -12 10 5 -6 16 -5 17 8 6 8 -7 15 -9 15 -4 0 5 7 0 16 -11 12
-17 16 -18 24 -5 5 8 11 12 14 10 2 -3 -2 -13 -9 -23 -13 -18 -14 -18 -26 1
-7 11 -19 18 -27 15 -11 -5 -11 -7 0 -14 9 -6 7 -8 -9 -6 -11 2 -28 9 -37 16
-9 7 -16 10 -16 6 0 -4 -7 -1 -16 6 -9 7 -23 14 -31 15 -21 3 -26 11 -18 24 5
8 11 7 23 -2 13 -11 15 -10 9 5 -6 15 -4 16 14 7 11 -6 17 -15 14 -19z m-2565
-2 c0 -5 0 -12 0 -16 0 -5 -8 -8 -18 -8 -11 0 -27 -7 -38 -15 -10 -8 -16 -10
-12 -6 4 5 2 16 -5 24 -9 13 -9 14 1 8 7 -4 12 -2 13 6 0 10 2 11 6 0 4 -10 8
-10 19 -1 8 6 11 15 8 20 -3 5 2 6 10 3 9 -3 16 -10 16 -15z m2974 12 c3 -4
-6 -6 -19 -3 -14 2 -25 6 -25 8 0 8 39 4 44 -5z m-3327 -23 c-3 -8 -6 -5 -6 6
-1 11 2 17 5 13 3 -3 4 -12 1 -19z m2953 12 c0 -5 -4 -10 -10 -10 -5 0 -10 5
-10 10 0 6 5 10 10 10 6 0 10 -4 10 -10z m71 -7 c13 -16 12 -17 -3 -4 -17 13
-22 21 -14 21 2 0 10 -8 17 -17z m-2916 -2 c3 -5 2 -12 -3 -15 -5 -3 -9 1 -9
9 0 17 3 19 12 6z m55 -17 c0 -2 -7 -4 -15 -4 -8 0 -15 4 -15 10 0 5 7 7 15 4
8 -4 15 -8 15 -10z m2925 6 c3 -5 1 -10 -4 -10 -6 0 -11 5 -11 10 0 6 2 10 4
10 3 0 8 -4 11 -10z m113 -21 c8 -12 9 -18 3 -14 -6 3 -11 2 -11 -3 0 -23 -30
-19 -46 6 -15 23 -15 25 -1 14 17 -14 41 -7 32 9 -4 5 -2 9 2 9 5 0 14 -9 21
-21z m68 3 c0 -10 -6 -19 -13 -19 -15 0 -15 0 -7 21 8 22 20 20 20 -2z m-3083
-2 c-13 -5 -23 -14 -23 -19 0 -6 -7 -8 -16 -4 -12 4 -11 8 8 18 13 7 30 13 38
13 8 1 5 -3 -7 -8z m2889 -7 c-6 -2 -10 -9 -6 -14 3 -5 0 -9 -5 -9 -12 0 -14
13 -4 23 3 4 11 7 17 6 6 0 5 -3 -2 -6z m-2872 -18 c-7 -8 -17 -12 -22 -9 -6
4 -5 10 3 15 22 14 33 10 19 -6z"/>
<path d="M4467 4269 c7 -7 15 -10 18 -7 3 3 -2 9 -12 12 -14 6 -15 5 -6 -5z"/>
<path d="M1700 4086 c0 -2 8 -10 18 -17 15 -13 16 -12 3 4 -13 16 -21 21 -21
13z"/>
<path d="M1775 4020 c-3 -5 -1 -10 4 -10 6 0 11 5 11 10 0 6 -2 10 -4 10 -3 0
-8 -4 -11 -10z"/>
<path d="M3274 3948 l-19 -23 23 19 c21 18 27 26 19 26 -2 0 -12 -10 -23 -22z"/>
<path d="M1890 3876 c0 -2 7 -7 16 -10 8 -3 12 -2 9 4 -6 10 -25 14 -25 6z"/>
<path d="M2340 3446 c0 -2 8 -10 18 -17 15 -13 16 -12 3 4 -13 16 -21 21 -21
13z"/>
<path d="M2400 3375 c-8 -9 -8 -15 -2 -15 12 0 26 19 19 26 -2 2 -10 -2 -17
-11z"/>
<path d="M2426 3342 c-2 -4 18 -17 43 -30 l46 -23 -29 28 c-30 27 -53 37 -60
25z"/>
<path d="M1813 2495 c0 -8 4 -12 9 -9 5 3 6 10 3 15 -9 13 -12 11 -12 -6z"/>
<path d="M1774 2458 c-12 -14 -13 -18 -3 -10 9 6 18 10 21 7 2 -3 5 2 5 10 0
19 0 19 -23 -7z"/>
<path d="M3425 2360 c-3 -5 -1 -11 5 -15 5 -3 10 -3 10 2 0 4 4 2 9 -6 5 -7
11 -9 14 -4 3 5 -3 14 -13 21 -11 7 -21 8 -25 2z"/>
<path d="M3940 1846 c0 -2 8 -10 18 -17 15 -13 16 -12 3 4 -13 16 -21 21 -21
13z"/>
<path d="M630 857 c0 -2 14 -16 32 -33 31 -29 31 -29 12 -2 -16 23 -44 45 -44
35z"/>
<path d="M754 730 c1 -14 6 -24 9 -22 11 4 11 6 -1 27 -11 19 -12 18 -8 -5z"/>
<path d="M840 661 c0 -6 4 -13 10 -16 6 -3 7 1 4 9 -7 18 -14 21 -14 7z"/>
<path d="M3836 641 c-3 -5 2 -15 12 -22 15 -12 16 -12 5 2 -7 9 -10 19 -6 22
3 4 4 7 0 7 -3 0 -8 -4 -11 -9z"/>
<path d="M1266 632 c-3 -5 1 -9 9 -9 8 0 12 4 9 9 -3 4 -7 8 -9 8 -2 0 -6 -4
-9 -8z"/>
<path d="M4109 583 c-13 -16 -12 -17 4 -4 16 13 21 21 13 21 -2 0 -10 -8 -17
-17z"/>
<path d="M1025 4580 c-3 -6 1 -7 9 -4 18 7 21 14 7 14 -6 0 -13 -4 -16 -10z"/>
<path d="M3950 4579 c0 -5 5 -7 10 -4 6 3 10 8 10 11 0 2 -4 4 -10 4 -5 0 -10
-5 -10 -11z"/>
<path d="M4170 4580 c0 -5 5 -10 11 -10 5 0 7 5 4 10 -3 6 -8 10 -11 10 -2 0
-4 -4 -4 -10z"/>
<path d="M3850 4561 c0 -6 4 -13 10 -16 6 -3 7 1 4 9 -7 18 -14 21 -14 7z"/>
<path d="M3923 4555 c-6 -7 -9 -16 -5 -21 4 -4 0 -5 -9 -2 -20 8 -44 -6 -35
-21 9 -15 42 3 57 30 13 25 9 32 -8 14z"/>
<path d="M1235 4551 c-3 -5 -2 -12 3 -15 5 -3 9 1 9 9 0 17 -3 19 -12 6z"/>
<path d="M870 4540 c-9 -6 -10 -10 -3 -10 6 0 15 5 18 10 8 12 4 12 -15 0z"/>
<path d="M3815 4540 c-3 -5 -1 -10 4 -10 6 0 11 5 11 10 0 6 -2 10 -4 10 -3 0
-8 -4 -11 -10z"/>
<path d="M4226 4538 c3 -4 9 -8 15 -8 5 0 9 4 9 8 0 5 -7 9 -15 9 -8 0 -12 -4
-9 -9z"/>
<path d="M1252 4520 c-9 -14 -8 -21 3 -30 8 -7 15 -9 15 -5 0 5 9 0 19 -9 15
-13 21 -14 27 -5 4 7 2 15 -4 17 -7 2 -9 9 -5 15 4 7 1 7 -9 -1 -10 -8 -19 -9
-22 -3 -3 5 -2 11 3 13 5 1 3 8 -3 14 -10 9 -15 7 -24 -6z m15 -15 c0 -8 -4
-12 -9 -9 -5 3 -6 10 -3 15 9 13 12 11 12 -6z"/>
<path d="M3776 4517 c3 -10 9 -15 12 -12 3 3 0 11 -7 18 -10 9 -11 8 -5 -6z"/>
<path d="M4295 4521 c-3 -5 -2 -12 3 -15 5 -3 9 1 9 9 0 17 -3 19 -12 6z"/>
<path d="M790 4480 c0 -5 5 -10 10 -10 6 0 10 5 10 10 0 6 -4 10 -10 10 -5 0
-10 -4 -10 -10z"/>
<path d="M1342 4476 c7 -8 15 -12 17 -11 5 6 -10 25 -20 25 -5 0 -4 -6 3 -14z"/>
<path d="M3685 4419 c-4 -6 -5 -12 -2 -15 2 -3 7 2 10 11 7 17 1 20 -8 4z"/>
<path d="M690 4398 c0 -4 4 -8 9 -8 6 0 12 4 15 8 3 5 -1 9 -9 9 -8 0 -15 -4
-15 -9z"/>
<path d="M3642 4383 c-10 -4 -10 -8 -2 -19 9 -10 8 -19 -4 -36 -9 -12 -16 -18
-16 -12 0 6 -7 11 -16 11 -15 0 -15 -2 1 -13 20 -15 52 -3 61 21 3 7 15 12 27
10 14 -3 17 -1 10 6 -5 5 -20 11 -32 12 -13 1 -20 6 -17 14 3 7 4 13 3 12 -1
0 -8 -3 -15 -6z"/>
<path d="M638 4353 c7 -3 16 -2 19 1 4 3 -2 6 -13 5 -11 0 -14 -3 -6 -6z"/>
<path d="M1486 4315 c-3 -9 3 -19 15 -26 26 -14 40 -2 17 15 -10 7 -15 16 -11
19 3 4 2 7 -4 7 -6 0 -13 -7 -17 -15z"/>
<path d="M3585 4290 c10 -11 23 -16 29 -12 7 4 5 8 -6 10 -10 2 -18 8 -18 13
0 5 -5 9 -12 9 -6 0 -3 -8 7 -20z"/>
<path d="M600 4275 c-9 -11 -9 -15 -1 -15 6 0 11 5 11 11 0 5 5 7 11 4 7 -5 4
-14 -7 -26 -9 -10 -14 -19 -10 -19 4 0 1 -6 -6 -14 -7 -8 -17 -11 -23 -8 -5 2
-4 -1 3 -9 13 -14 17 -53 5 -46 -5 3 -14 -1 -21 -9 -17 -19 -2 -18 26 2 12 8
20 20 16 25 -3 6 3 20 13 32 11 12 19 29 18 37 0 8 3 17 7 20 4 3 -1 11 -12
17 -14 10 -21 9 -30 -2z m27 -40 c0 -8 -10 -23 -21 -32 -21 -18 -21 -18 -2 5
11 12 16 22 12 22 -4 0 -4 5 -1 10 9 14 12 13 12 -5z"/>
<path d="M3514 4251 c2 -44 10 -59 22 -40 4 7 3 10 -3 6 -7 -5 -10 7 -8 33 1
22 -1 40 -5 40 -4 0 -7 -18 -6 -39z"/>
<path d="M1611 4247 c2 -1 13 -9 24 -17 19 -14 19 -14 6 3 -7 9 -18 17 -24 17
-6 0 -8 -1 -6 -3z"/>
<path d="M3476 4242 c-3 -5 1 -9 9 -9 8 0 12 4 9 9 -3 4 -7 8 -9 8 -2 0 -6 -4
-9 -8z"/>
<path d="M1595 4220 c-3 -5 -1 -10 4 -10 6 0 11 5 11 10 0 6 -2 10 -4 10 -3 0
-8 -4 -11 -10z"/>
<path d="M4506 4201 c-3 -5 1 -14 9 -21 8 -7 12 -16 9 -21 -3 -5 0 -9 5 -9 6
0 11 -5 11 -11 0 -5 -5 -7 -12 -3 -7 5 -8 3 -2 -7 4 -8 9 -21 11 -29 1 -8 7
-16 13 -18 5 -2 8 -7 6 -11 -3 -4 1 -8 9 -8 12 0 12 3 3 15 -15 18 -19 42 -7
42 5 0 9 5 9 11 0 5 -4 7 -10 4 -5 -3 -10 -1 -10 4 0 6 5 11 12 11 6 0 8 3 5
7 -4 3 1 12 11 20 15 13 15 13 -5 4 -12 -6 -23 -16 -25 -23 -3 -7 -7 -5 -11 6
-4 10 -3 15 3 11 6 -3 10 -1 10 5 0 7 -7 9 -16 6 -12 -4 -15 -2 -10 9 6 16 -9
21 -18 6z"/>
<path d="M4540 4205 c0 -7 30 -13 34 -7 3 4 -4 9 -15 9 -10 1 -19 0 -19 -2z"/>
<path d="M550 4196 c0 -2 8 -10 18 -17 15 -13 16 -12 3 4 -13 16 -21 21 -21
13z"/>
<path d="M3421 4157 c-8 -11 -6 -18 8 -31 11 -10 22 -13 25 -8 3 5 -4 12 -16
15 -18 5 -19 8 -8 21 7 9 10 16 7 16 -2 0 -10 -6 -16 -13z"/>
<path d="M1733 4128 c1 -15 6 -23 11 -18 4 4 4 16 -2 26 -9 16 -10 14 -9 -8z"/>
<path d="M3349 4123 c-13 -16 -12 -17 4 -4 16 13 21 21 13 21 -2 0 -10 -8 -17
-17z"/>
<path d="M3359 4108 c0 -2 -2 -12 -4 -23 -1 -11 -5 -27 -7 -35 -3 -8 -3 -12
-1 -7 3 4 9 5 13 2 5 -3 12 0 16 6 4 8 3 9 -4 5 -8 -4 -10 3 -7 24 2 16 2 30
-1 30 -2 0 -4 -1 -5 -2z"/>
<path d="M540 4040 c0 -5 7 -7 15 -4 8 4 15 8 15 10 0 2 -7 4 -15 4 -8 0 -15
-4 -15 -10z"/>
<path d="M1830 4019 c0 -5 5 -7 10 -4 6 3 10 8 10 11 0 2 -4 4 -10 4 -5 0 -10
-5 -10 -11z"/>
<path d="M3290 4020 c0 -5 5 -10 11 -10 5 0 7 5 4 10 -3 6 -8 10 -11 10 -2 0
-4 -4 -4 -10z"/>
<path d="M3257 3993 c3 -7 6 -13 8 -13 2 0 5 6 8 13 3 8 -1 14 -8 14 -7 0 -11
-6 -8 -14z"/>
<path d="M4532 3998 c-13 -13 -16 -29 -4 -27 19 3 32 -2 32 -12 0 -8 -4 -8
-14 0 -18 15 -26 3 -22 -32 2 -14 -4 -37 -13 -49 -15 -22 -26 -56 -14 -44 4 3
12 1 19 -5 14 -11 14 6 1 29 -10 15 5 16 21 0 8 -8 12 -9 12 -1 0 6 -5 13 -12
15 -7 3 -9 12 -5 22 6 14 10 16 20 7 10 -8 14 -7 14 4 0 8 -3 12 -7 10 -3 -2
-12 6 -19 17 -11 18 -11 20 3 15 21 -8 31 10 14 30 -7 9 -11 18 -10 20 9 11
-6 11 -16 1z"/>
<path d="M530 3980 c0 -5 5 -10 11 -10 5 0 7 5 4 10 -3 6 -8 10 -11 10 -2 0
-4 -4 -4 -10z"/>
<path d="M1835 3980 c-3 -5 -1 -10 4 -10 6 0 11 5 11 10 0 6 -2 10 -4 10 -3 0
-8 -4 -11 -10z"/>
<path d="M4576 3978 c3 -4 11 -5 19 -1 21 7 19 12 -4 10 -11 0 -18 -5 -15 -9z"/>
<path d="M4575 3940 c-3 -5 -1 -10 4 -10 6 0 11 5 11 10 0 6 -2 10 -4 10 -3 0
-8 -4 -11 -10z"/>
<path d="M3175 3900 c3 -5 8 -10 11 -10 2 0 4 5 4 10 0 6 -5 10 -11 10 -5 0
-7 -4 -4 -10z"/>
<path d="M3115 3881 c-3 -5 -2 -12 3 -15 5 -3 9 1 9 9 0 17 -3 19 -12 6z"/>
<path d="M2016 3847 c3 -10 9 -15 12 -12 3 3 0 11 -7 18 -10 9 -11 8 -5 -6z"/>
<path d="M3075 3849 c-4 -6 -5 -12 -2 -15 2 -3 7 2 10 11 7 17 1 20 -8 4z"/>
<path d="M3137 3849 c-9 -5 -21 -8 -26 -4 -5 3 -12 1 -15 -4 -4 -6 7 -8 24 -6
21 3 28 1 24 -7 -4 -7 -3 -8 5 -4 6 4 9 11 6 16 -3 4 1 11 7 13 7 3 9 6 3 6
-5 0 -18 -4 -28 -10z"/>
<path d="M580 3839 c0 -5 4 -8 8 -5 16 10 51 -24 47 -44 -2 -11 0 -18 6 -15 5
4 9 -3 9 -14 0 -16 5 -20 22 -18 30 5 33 22 7 41 -13 8 -24 25 -26 38 -4 28
-12 36 -21 21 -5 -8 -13 -9 -22 -3 -20 13 -30 12 -30 -1z m89 -78 c-2 -6 -10
2 -17 17 -11 25 -11 25 4 10 9 -9 15 -21 13 -27z"/>
<path d="M1995 3820 c-3 -5 -1 -10 4 -10 6 0 11 5 11 10 0 6 -2 10 -4 10 -3 0
-8 -4 -11 -10z"/>
<path d="M4476 3804 c-12 -12 -16 -12 -16 -2 -1 7 -7 2 -15 -12 -9 -17 -10
-27 -3 -31 6 -4 1 -10 -11 -14 -12 -3 -19 -10 -16 -15 3 -5 -3 -13 -12 -19
-16 -9 -16 -10 4 -8 12 0 21 4 21 7 -2 18 3 32 9 27 3 -4 13 2 21 14 10 15 17
17 27 9 10 -8 15 -8 21 1 4 7 3 9 -3 6 -18 -11 -36 18 -20 32 8 6 17 8 20 4 4
-3 7 -1 7 5 0 17 -16 15 -34 -4z m-11 -23 c3 -5 1 -12 -5 -16 -5 -3 -10 1 -10
9 0 18 6 21 15 7z"/>
<path d="M590 3806 c0 -2 7 -6 15 -10 8 -3 15 -1 15 4 0 6 -7 10 -15 10 -8 0
-15 -2 -15 -4z"/>
<path d="M3050 3782 c0 -7 4 -12 9 -12 5 0 11 -8 13 -17 2 -12 6 -14 10 -7 4
6 -1 19 -12 29 -12 10 -20 13 -20 7z"/>
<path d="M2070 3759 c0 -5 5 -7 10 -4 6 3 10 8 10 11 0 2 -4 4 -10 4 -5 0 -10
-5 -10 -11z"/>
<path d="M735 3730 c-4 -6 -10 -8 -14 -6 -4 3 -12 -4 -19 -15 -7 -10 -8 -19
-3 -19 5 0 11 6 14 13 2 6 8 9 12 4 5 -4 3 -13 -3 -19 -7 -7 -12 -16 -12 -21
0 -5 9 1 20 14 15 19 19 21 20 7 0 -9 6 -19 13 -22 6 -3 2 -3 -10 0 -13 3 -23
1 -23 -5 0 -6 3 -10 8 -10 29 5 34 -2 16 -23 -11 -13 -13 -18 -4 -12 8 5 23 9
33 10 9 1 20 2 23 3 3 0 -10 20 -29 44 -19 23 -32 48 -30 55 6 14 -3 16 -12 2z
m54 -83 c8 -10 7 -14 -2 -14 -8 0 -14 6 -14 14 0 7 1 13 2 13 2 0 8 -6 14 -13z"/>
<path d="M620 3726 c0 -2 8 -10 18 -17 15 -13 16 -12 3 4 -13 16 -21 21 -21
13z"/>
<path d="M2141 3697 c2 -1 13 -9 24 -17 19 -14 19 -14 6 3 -7 9 -18 17 -24 17
-6 0 -8 -1 -6 -3z"/>
<path d="M2193 3685 c0 -8 4 -15 9 -15 4 0 8 4 8 9 0 6 -4 12 -8 15 -5 3 -9
-1 -9 -9z"/>
<path d="M4435 3689 c-4 -6 -5 -12 -2 -15 2 -3 7 2 10 11 7 17 1 20 -8 4z"/>
<path d="M2915 3681 c-3 -5 -2 -12 3 -15 5 -3 9 1 9 9 0 17 -3 19 -12 6z"/>
<path d="M4386 3675 c-9 -26 -7 -32 5 -12 6 10 9 21 6 23 -2 3 -7 -2 -11 -11z"/>
<path d="M2910 3639 c0 -5 5 -7 10 -4 6 3 10 8 10 11 0 2 -4 4 -10 4 -5 0 -10
-5 -10 -11z"/>
<path d="M2922 3621 c-18 -9 -30 -20 -26 -24 4 -4 -4 -7 -17 -8 -21 0 -22 -1
-5 -8 13 -5 16 -10 8 -15 -13 -8 -5 -36 10 -36 7 0 6 5 -1 13 -8 10 -4 19 19
36 17 12 36 19 43 15 6 -4 9 -4 5 1 -4 4 -3 14 3 21 17 20 -4 23 -39 5z m18
-4 c0 -2 -9 -12 -20 -22 -24 -21 -27 -14 -4 9 15 15 24 20 24 13z"/>
<path d="M775 3600 c3 -5 8 -10 11 -10 2 0 4 5 4 10 0 6 -5 10 -11 10 -5 0 -7
-4 -4 -10z"/>
<path d="M2250 3606 c0 -2 7 -7 16 -10 8 -3 12 -2 9 4 -6 10 -25 14 -25 6z"/>
<path d="M2204 3583 c10 -10 46 -14 46 -5 0 4 -12 9 -27 10 -14 1 -23 -1 -19
-5z"/>
<path d="M4356 3578 c3 -5 10 -6 15 -3 13 9 11 12 -6 12 -8 0 -12 -4 -9 -9z"/>
<path d="M2830 3509 c0 -5 5 -7 10 -4 6 3 10 8 10 11 0 2 -4 4 -10 4 -5 0 -10
-5 -10 -11z"/>
<path d="M2375 3480 c3 -5 8 -10 11 -10 2 0 4 5 4 10 0 6 -5 10 -11 10 -5 0
-7 -4 -4 -10z"/>
<path d="M4210 3459 c0 -5 5 -7 10 -4 6 3 10 8 10 11 0 2 -4 4 -10 4 -5 0 -10
-5 -10 -11z"/>
<path d="M4150 3442 c0 -4 10 -9 22 -9 18 -2 20 0 8 7 -18 12 -30 13 -30 2z"/>
<path d="M2635 3401 c-3 -5 -2 -12 3 -15 5 -3 9 1 9 9 0 17 -3 19 -12 6z"/>
<path d="M1061 3366 c-11 -14 -4 -26 24 -42 11 -7 19 -19 17 -27 -1 -9 2 -18
8 -22 6 -4 7 1 3 11 -4 12 -3 15 5 10 7 -4 12 -13 12 -21 0 -15 27 -28 35 -16
4 8 -29 59 -48 72 -5 3 -8 9 -8 13 3 23 -1 32 -18 33 -11 1 -24 -4 -30 -11z
m44 -27 c-3 -3 5 -15 16 -25 12 -10 26 -28 31 -39 13 -25 10 -21 -36 33 -20
24 -36 41 -36 37 0 -3 -5 -3 -10 0 -6 4 -8 10 -5 15 4 6 14 5 25 -2 10 -7 17
-15 15 -19z"/>
<path d="M2490 3376 c0 -2 8 -10 18 -17 15 -13 16 -12 3 4 -13 16 -21 21 -21
13z"/>
<path d="M2624 3323 c2 -10 6 -17 10 -16 15 3 16 11 2 22 -12 10 -14 9 -12 -6z"/>
<path d="M4050 3299 c0 -5 5 -7 10 -4 6 3 10 8 10 11 0 2 -4 4 -10 4 -5 0 -10
-5 -10 -11z"/>
<path d="M4010 3259 c0 -5 5 -7 10 -4 6 3 10 8 10 11 0 2 -4 4 -10 4 -5 0 -10
-5 -10 -11z"/>
<path d="M1110 3256 c0 -2 8 -10 18 -17 15 -13 16 -12 3 4 -13 16 -21 21 -21
13z"/>
<path d="M3915 3231 c-3 -6 -11 -8 -17 -5 -7 4 -8 2 -4 -4 3 -6 -3 -16 -15
-22 -11 -7 -18 -14 -15 -17 3 -3 -2 -11 -11 -18 -9 -7 -18 -22 -20 -34 -3 -21
-3 -21 17 -1 11 11 20 26 20 33 0 8 4 7 10 -3 8 -13 10 -13 10 2 0 9 -5 18
-10 20 -6 2 -1 9 11 16 19 12 20 12 14 -10 -5 -20 -4 -21 5 -5 6 9 17 15 23
11 7 -3 4 1 -6 9 -13 11 -15 16 -5 20 7 2 10 7 7 11 -4 4 -10 2 -14 -3z"/>
<path d="M3970 3219 c0 -5 5 -7 10 -4 6 3 10 8 10 11 0 2 -4 4 -10 4 -5 0 -10
-5 -10 -11z"/>
<path d="M1301 3113 c-18 -19 -10 -25 12 -8 10 7 15 15 10 18 -4 3 -14 -2 -22
-10z"/>
<path d="M3875 3100 c3 -5 8 -10 11 -10 2 0 4 5 4 10 0 6 -5 10 -11 10 -5 0
-7 -4 -4 -10z"/>
<path d="M1394 3016 c-10 -8 -16 -18 -11 -22 4 -4 7 -2 7 4 0 7 5 12 10 12 6
0 10 -6 10 -14 0 -19 26 -28 38 -13 14 18 11 47 -5 47 -16 0 -17 -12 0 -29 10
-11 9 -12 -2 -6 -10 6 -12 4 -6 -5 5 -9 4 -11 -4 -6 -6 4 -9 12 -6 17 4 5 1 9
-5 9 -6 0 -8 5 -5 10 9 14 2 13 -21 -4z"/>
<path d="M3730 2979 c0 -5 5 -7 10 -4 6 3 10 8 10 11 0 2 -4 4 -10 4 -5 0 -10
-5 -10 -11z"/>
<path d="M3690 2939 c0 -5 5 -7 10 -4 6 3 10 8 10 11 0 2 -4 4 -10 4 -5 0 -10
-5 -10 -11z"/>
<path d="M3595 2911 c-3 -6 -10 -9 -14 -6 -7 4 -8 -13 -2 -50 1 -5 6 -2 12 8
6 9 16 14 22 11 8 -5 7 -2 -1 7 -11 12 -14 12 -22 -1 -6 -9 -10 -10 -10 -3 0
7 8 16 17 22 10 5 15 12 11 16 -3 3 -9 1 -13 -4z"/>
<path d="M3650 2899 c0 -5 5 -7 10 -4 6 3 10 8 10 11 0 2 -4 4 -10 4 -5 0 -10
-5 -10 -11z"/>
<path d="M1542 2878 c-7 -7 -12 -17 -12 -22 0 -6 5 -4 10 4 6 10 10 11 10 3 0
-7 4 -13 9 -13 9 0 9 25 0 35 -3 2 -11 -1 -17 -7z"/>
<path d="M1546 2823 c-6 -14 -5 -15 5 -6 7 7 10 15 7 18 -3 3 -9 -2 -12 -12z"/>
<path d="M3555 2780 c3 -5 8 -10 11 -10 2 0 4 5 4 10 0 6 -5 10 -11 10 -5 0
-7 -4 -4 -10z"/>
<path d="M3435 2750 c-3 -5 -1 -10 4 -10 6 0 11 5 11 10 0 6 -2 10 -4 10 -3 0
-8 -4 -11 -10z"/>
<path d="M1713 2724 c4 -4 1 -14 -6 -22 -10 -13 -9 -14 11 -3 27 14 27 17 5
25 -10 4 -14 4 -10 0z"/>
<path d="M3310 2640 c0 -5 5 -10 10 -10 6 0 10 5 10 10 0 6 -4 10 -10 10 -5 0
-10 -4 -10 -10z"/>
<path d="M1761 2596 c-8 -10 -9 -16 -1 -21 6 -4 9 -1 8 7 -2 7 3 12 10 10 8
-1 11 2 7 8 -8 13 -10 13 -24 -4z"/>
<path d="M3346 2602 c-2 -4 4 -8 14 -8 10 0 16 4 14 8 -3 4 -9 8 -14 8 -5 0
-11 -4 -14 -8z"/>
<path d="M3275 2560 c3 -5 8 -10 11 -10 2 0 4 5 4 10 0 6 -5 10 -11 10 -5 0
-7 -4 -4 -10z"/>
<path d="M3334 2559 c-3 -6 -2 -15 3 -20 5 -5 9 -1 9 11 0 23 -2 24 -12 9z"/>
<path d="M3455 2400 c-3 -5 -1 -10 4 -10 6 0 11 5 11 10 0 6 -2 10 -4 10 -3 0
-8 -4 -11 -10z"/>
<path d="M1655 2380 c3 -5 8 -10 11 -10 2 0 4 5 4 10 0 6 -5 10 -11 10 -5 0
-7 -4 -4 -10z"/>
<path d="M1595 2361 c-3 -5 -2 -12 3 -15 5 -3 9 1 9 9 0 17 -3 19 -12 6z"/>
<path d="M3530 2326 c0 -2 7 -7 16 -10 8 -3 12 -2 9 4 -6 10 -25 14 -25 6z"/>
<path d="M3515 2300 c-3 -5 -1 -10 4 -10 6 0 11 5 11 10 0 6 -2 10 -4 10 -3 0
-8 -4 -11 -10z"/>
<path d="M1455 2200 c-3 -5 -3 -10 1 -10 4 0 -1 -7 -12 -16 -18 -15 -18 -15 0
-6 11 5 21 17 22 26 3 18 -2 21 -11 6z"/>
<path d="M3655 2200 c3 -5 8 -10 11 -10 2 0 4 5 4 10 0 6 -5 10 -11 10 -5 0
-7 -4 -4 -10z"/>
<path d="M1355 2121 c-3 -5 -2 -12 3 -15 5 -3 9 1 9 9 0 17 -3 19 -12 6z"/>
<path d="M3750 2099 c0 -5 5 -7 10 -4 6 3 10 8 10 11 0 2 -4 4 -10 4 -5 0 -10
-5 -10 -11z"/>
<path d="M1305 2080 c-2 -3 16 -6 40 -5 28 2 42 -1 38 -8 -4 -6 -1 -7 6 -3 7
5 10 11 6 14 -9 9 -85 11 -90 2z"/>
<path d="M3795 2081 c-3 -5 -2 -12 3 -15 5 -3 9 1 9 9 0 17 -3 19 -12 6z"/>
<path d="M3755 2060 c-3 -5 -1 -10 4 -10 6 0 11 5 11 10 0 6 -2 10 -4 10 -3 0
-8 -4 -11 -10z"/>
<path d="M3781 2047 c-1 -10 -5 -16 -9 -13 -5 3 -9 -1 -9 -9 0 -8 4 -12 8 -9
4 2 10 0 14 -5 7 -13 32 -4 39 14 3 8 0 17 -6 21 -6 4 -8 3 -4 -4 3 -6 2 -13
-4 -17 -6 -3 -14 4 -19 17 -8 18 -10 19 -10 5z"/>
<path d="M1279 2013 c-13 -16 -12 -17 3 -4 16 12 19 10 26 -10 5 -12 12 -18
15 -12 4 6 -2 18 -12 27 -17 15 -19 15 -32 -1z"/>
<path d="M1248 1998 c10 -13 10 -17 0 -21 -9 -4 -9 -6 -1 -6 20 -2 24 16 5 30
-15 13 -16 12 -4 -3z"/>
<path d="M3850 2006 c0 -2 7 -7 16 -10 8 -3 12 -2 9 4 -6 10 -25 14 -25 6z"/>
<path d="M1285 1990 c-3 -5 -3 -10 2 -10 4 0 -2 -7 -15 -15 -16 -12 -27 -13
-40 -6 -14 7 -19 6 -19 -4 0 -7 6 -11 13 -8 8 3 11 -2 9 -14 -2 -10 -4 -20 -4
-23 -1 -3 -5 1 -10 8 -7 11 -9 11 -14 -1 -4 -12 0 -15 15 -12 12 3 25 10 29
16 4 7 13 8 20 4 8 -5 11 -5 7 0 -4 4 -3 14 2 21 11 12 22 54 15 54 -2 0 -7
-4 -10 -10z"/>
<path d="M1185 1890 c10 -11 23 -16 29 -12 7 4 5 8 -6 10 -10 2 -18 8 -18 13
0 5 -5 9 -12 9 -6 0 -3 -8 7 -20z"/>
<path d="M3970 1905 c0 -5 5 -17 10 -25 5 -8 10 -10 10 -5 0 6 -5 17 -10 25
-5 8 -10 11 -10 5z"/>
<path d="M1105 1880 c-3 -6 1 -7 9 -4 18 7 21 14 7 14 -6 0 -13 -4 -16 -10z"/>
<path d="M1119 1868 c0 -2 -2 -12 -4 -23 -1 -11 -5 -27 -7 -35 -3 -8 -3 -12
-1 -7 3 4 9 5 13 2 5 -3 12 0 16 6 4 8 3 9 -4 5 -8 -4 -10 3 -7 24 2 16 2 30
-1 30 -2 0 -4 -1 -5 -2z"/>
<path d="M1076 1842 c-3 -5 1 -9 9 -9 8 0 12 4 9 9 -3 4 -7 8 -9 8 -2 0 -6 -4
-9 -8z"/>
<path d="M2546 1833 c-12 -13 -6 -22 12 -17 14 5 14 3 -2 -10 -11 -9 -15 -16
-9 -16 7 0 15 5 18 10 4 6 11 8 16 5 5 -4 9 -2 9 2 0 12 -37 33 -44 26z"/>
<path d="M2510 1822 c0 -5 -9 -13 -19 -18 -11 -5 -36 -29 -56 -54 -21 -25 -40
-45 -44 -45 -3 0 -5 -4 -3 -8 1 -5 -8 -6 -20 -2 -22 6 -22 6 -4 -9 19 -15 46
-23 33 -9 -9 9 12 32 26 29 7 -1 9 -1 5 1 -16 9 -7 22 12 18 11 -2 23 1 26 7
4 6 2 8 -4 4 -24 -15 -17 11 11 39 l30 30 -17 -29 c-10 -16 -13 -26 -8 -22 6
3 13 0 16 -6 4 -9 5 -8 5 2 -1 8 2 26 6 38 6 18 10 20 16 10 7 -10 9 -9 9 4 0
9 -4 20 -10 23 -5 3 -10 2 -10 -3z"/>
<path d="M4070 1779 c0 -5 5 -7 10 -4 6 3 10 8 10 11 0 2 -4 4 -10 4 -5 0 -10
-5 -10 -11z"/>
<path d="M2542 1765 c15 -16 20 -17 30 -6 11 11 10 13 0 7 -7 -4 -21 -2 -30 5
-15 12 -15 11 0 -6z"/>
<path d="M1024 1755 c-4 -8 -10 -13 -14 -10 -5 3 -11 1 -14 -4 -4 -5 1 -8 10
-7 15 2 42 36 29 36 -3 0 -8 -7 -11 -15z"/>
<path d="M2638 1743 c7 -3 16 -2 19 1 4 3 -2 6 -13 5 -11 0 -14 -3 -6 -6z"/>
<path d="M2710 1741 c0 -5 6 -14 14 -21 12 -9 15 -8 13 9 -1 20 -27 31 -27 12z"/>
<path d="M4075 1740 c-3 -5 -1 -10 4 -10 6 0 11 5 11 10 0 6 -2 10 -4 10 -3 0
-8 -4 -11 -10z"/>
<path d="M2450 1699 c0 -5 5 -7 10 -4 6 3 10 8 10 11 0 2 -4 4 -10 4 -5 0 -10
-5 -10 -11z"/>
<path d="M960 1639 c0 -5 5 -7 10 -4 6 3 10 8 10 11 0 2 -4 4 -10 4 -5 0 -10
-5 -10 -11z"/>
<path d="M2315 1631 c-3 -6 -11 -9 -16 -5 -5 3 -8 1 -7 -5 2 -5 -6 -17 -17
-26 -18 -16 -18 -16 8 0 29 17 29 17 22 -7 -5 -19 -4 -20 5 -6 6 10 19 15 32
13 11 -3 17 -1 14 3 -7 7 -11 8 -38 11 -9 1 -9 4 2 11 8 5 12 12 8 15 -3 4 -9
1 -13 -4z"/>
<path d="M891 1602 c-1 -13 -5 -21 -10 -18 -11 7 -23 -22 -15 -36 4 -6 1 -8
-7 -6 -8 3 -13 11 -11 17 1 6 -2 11 -8 11 -13 0 -13 -17 0 -25 6 -4 8 -10 5
-15 -3 -5 -1 -11 4 -14 5 -4 12 -2 16 4 4 6 11 7 17 4 7 -5 8 -2 4 5 -5 7 -1
20 8 30 12 14 14 24 7 42 l-10 24 0 -23z m-1 -37 c-7 -9 -15 -13 -19 -10 -3 3
1 10 9 15 21 14 24 12 10 -5z"/>
<path d="M836 1602 c-3 -5 1 -9 9 -9 8 0 12 4 9 9 -3 4 -7 8 -9 8 -2 0 -6 -4
-9 -8z"/>
<path d="M4250 1606 c0 -2 7 -7 16 -10 8 -3 12 -2 9 4 -6 10 -25 14 -25 6z"/>
<path d="M935 1590 c3 -5 8 -10 11 -10 2 0 4 5 4 10 0 6 -5 10 -11 10 -5 0 -7
-4 -4 -10z"/>
<path d="M4235 1580 c-3 -5 -1 -10 4 -10 6 0 11 5 11 10 0 6 -2 10 -4 10 -3 0
-8 -4 -11 -10z"/>
<path d="M2826 1543 c-6 -14 -5 -15 5 -6 7 7 10 15 7 18 -3 3 -9 -2 -12 -12z"/>
<path d="M810 1540 c0 -5 5 -10 11 -10 5 0 7 5 4 10 -3 6 -8 10 -11 10 -2 0
-4 -4 -4 -10z"/>
<path d="M4310 1519 c0 -5 5 -7 10 -4 6 3 10 8 10 11 0 2 -4 4 -10 4 -5 0 -10
-5 -10 -11z"/>
<path d="M2276 1498 c3 -5 10 -6 15 -3 13 9 11 12 -6 12 -8 0 -12 -4 -9 -9z"/>
<path d="M4341 1463 c-7 -16 -10 -25 -7 -22 4 4 19 -6 35 -20 16 -15 38 -27
50 -27 20 0 21 1 5 13 -9 7 -21 10 -27 6 -5 -3 -7 0 -5 8 3 8 11 13 18 11 11
-3 11 0 0 12 -7 9 -18 16 -24 16 -7 0 -6 -3 2 -9 10 -6 10 -10 -3 -21 -12 -10
-15 -10 -15 4 0 9 -4 16 -10 16 -5 0 -10 5 -10 11 0 5 4 8 8 5 5 -3 9 1 9 9 0
24 -13 17 -26 -12z"/>
<path d="M740 1473 c0 -6 8 -17 18 -24 16 -13 16 -13 2 6 -8 11 -16 22 -17 24
-2 2 -3 0 -3 -6z"/>
<path d="M2155 1471 c-3 -6 -11 -9 -16 -5 -5 3 -8 1 -7 -5 2 -5 -6 -17 -17
-26 -18 -16 -18 -16 8 0 29 17 29 17 22 -7 -5 -19 -4 -20 5 -6 6 10 19 15 32
13 11 -3 17 -1 14 3 -7 7 -11 8 -38 11 -9 1 -9 4 2 11 8 5 12 12 8 15 -3 4 -9
1 -13 -4z"/>
<path d="M688 1413 c18 -7 15 -23 -5 -23 -17 -1 -17 -1 -1 -11 12 -7 24 -6 38
1 23 12 27 25 6 17 -8 -3 -17 1 -20 9 -3 8 -11 14 -18 13 -10 0 -10 -2 0 -6z"/>
<path d="M4453 1395 c0 -8 4 -12 9 -9 4 3 8 9 8 15 0 5 -4 9 -8 9 -5 0 -9 -7
-9 -15z"/>
<path d="M3018 1377 c-10 -6 -9 -7 4 -4 19 6 50 -24 46 -44 -2 -8 3 -13 10
-11 7 1 15 -5 18 -13 4 -8 12 -15 20 -15 8 0 14 -5 14 -11 0 -6 8 -8 18 -5 14
5 14 4 -2 -9 -11 -8 -15 -15 -10 -15 6 0 15 5 22 12 7 7 12 8 12 2 0 -6 -3
-14 -7 -18 -11 -10 -12 -36 -2 -36 8 0 13 15 10 33 -1 9 13 9 22 0 4 -3 1 -13
-6 -22 -11 -14 -10 -14 6 -2 9 7 17 14 17 16 0 6 -51 54 -90 85 -58 44 -70 57
-65 62 9 9 -24 5 -37 -5z m132 -94 c0 -3 -15 6 -34 20 -18 15 -37 23 -41 19
-5 -4 -5 -1 -1 6 5 9 16 5 42 -14 19 -15 34 -29 34 -31z"/>
<path d="M664 1355 c3 -8 1 -15 -4 -15 -6 0 -10 -8 -10 -17 -1 -16 -2 -16 -15
1 -8 11 -15 14 -15 7 0 -7 -5 -9 -12 -5 -7 5 -8 3 -4 -5 5 -7 11 -10 14 -7 3
3 11 1 18 -5 10 -9 15 -7 20 5 3 9 9 14 13 12 4 -3 7 6 7 20 0 13 -4 24 -9 24
-5 0 -7 -7 -3 -15z"/>
<path d="M4467 1355 c3 -8 9 -12 14 -9 12 7 11 11 -5 17 -10 4 -13 1 -9 -8z"/>
<path d="M3030 1353 c5 -2 8 -9 5 -13 -3 -5 -1 -11 4 -14 5 -4 8 2 7 11 -2 9
-8 18 -15 19 -6 1 -7 0 -1 -3z"/>
<path d="M2115 1340 c3 -5 8 -10 11 -10 2 0 4 5 4 10 0 6 -5 10 -11 10 -5 0
-7 -4 -4 -10z"/>
<path d="M4502 1324 c10 -10 20 -16 22 -13 3 3 -5 11 -17 18 -21 13 -21 12 -5
-5z"/>
<path d="M1960 1283 c0 -5 -11 -20 -24 -34 l-24 -26 26 0 c15 0 21 2 15 4 -21
7 -15 22 7 18 11 -2 22 1 26 6 3 5 2 9 -3 8 -19 -3 -27 2 -14 10 9 6 10 11 2
15 -6 4 -11 3 -11 -1z"/>
<path d="M1970 1219 c0 -5 5 -7 10 -4 6 3 10 8 10 11 0 2 -4 4 -10 4 -5 0 -10
-5 -10 -11z"/>
<path d="M3106 1218 c3 -5 10 -6 15 -3 13 9 11 12 -6 12 -8 0 -12 -4 -9 -9z"/>
<path d="M1930 1179 c0 -5 5 -7 10 -4 6 3 10 8 10 11 0 2 -4 4 -10 4 -5 0 -10
-5 -10 -11z"/>
<path d="M4555 1179 c-4 -6 -5 -12 -2 -15 2 -3 7 2 10 11 7 17 1 20 -8 4z"/>
<path d="M4595 1180 c-3 -5 -1 -10 4 -10 6 0 11 5 11 10 0 6 -2 10 -4 10 -3 0
-8 -4 -11 -10z"/>
<path d="M1913 1145 c0 -8 4 -12 9 -9 5 3 6 10 3 15 -9 13 -12 11 -12 -6z"/>
<path d="M4542 1134 c-10 -11 -11 -19 -3 -28 6 -7 8 -16 4 -20 -4 -4 0 -4 10
0 20 7 22 20 5 30 -7 5 -5 11 7 21 14 9 15 13 4 13 -8 -1 -20 -8 -27 -16z"/>
<path d="M3320 1124 c15 -17 30 -18 30 -1 0 7 -9 13 -21 14 -17 2 -18 -1 -9
-13z"/>
<path d="M4576 1118 c3 -5 10 -6 15 -3 13 9 11 12 -6 12 -8 0 -12 -4 -9 -9z"/>
<path d="M1810 1059 c0 -5 5 -7 10 -4 6 3 10 8 10 11 0 2 -4 4 -10 4 -5 0 -10
-5 -10 -11z"/>
<path d="M545 1040 c3 -5 8 -10 11 -10 2 0 4 5 4 10 0 6 -5 10 -11 10 -5 0 -7
-4 -4 -10z"/>
<path d="M567 1030 c-9 -11 -13 -20 -8 -20 11 0 35 29 29 35 -2 2 -12 -4 -21
-15z"/>
<path d="M1770 1019 c0 -5 5 -7 10 -4 6 3 10 8 10 11 0 2 -4 4 -10 4 -5 0 -10
-5 -10 -11z"/>
<path d="M580 1003 c0 -5 6 -15 13 -22 10 -10 9 -11 -4 -6 -28 11 -32 -24 -4
-37 13 -6 22 -15 19 -19 -3 -5 -1 -9 4 -9 17 0 21 28 6 34 -10 4 -13 13 -9 25
3 10 -1 24 -10 31 -8 7 -15 8 -15 3z m13 -47 c4 -10 1 -13 -8 -9 -8 3 -12 9
-9 14 7 12 11 11 17 -5z"/>
<path d="M3422 989 c-14 -22 -7 -25 14 -5 8 8 11 17 6 20 -4 2 -13 -4 -20 -15z"/>
<path d="M1675 991 c-3 -6 -11 -9 -16 -5 -5 3 -8 1 -7 -5 2 -5 -6 -17 -17 -26
-18 -16 -18 -16 8 0 29 17 29 17 22 -7 -5 -20 -4 -21 5 -5 6 9 17 15 23 11 7
-3 4 1 -6 9 -13 11 -15 16 -5 20 7 2 10 7 7 11 -4 4 -10 2 -14 -3z"/>
<path d="M4547 959 c12 -12 24 -21 27 -18 2 2 -8 13 -22 23 l-27 19 22 -24z"/>
<path d="M557 929 c7 -7 15 -10 18 -7 3 3 -2 9 -12 12 -14 6 -15 5 -6 -5z"/>
<path d="M566 898 c3 -5 10 -6 15 -3 13 9 11 12 -6 12 -8 0 -12 -4 -9 -9z"/>
<path d="M1635 860 c3 -5 8 -10 11 -10 2 0 4 5 4 10 0 6 -5 10 -11 10 -5 0 -7
-4 -4 -10z"/>
<path d="M3510 846 c0 -2 7 -7 16 -10 8 -3 12 -2 9 4 -6 10 -25 14 -25 6z"/>
<path d="M4510 842 c0 -4 9 -8 19 -8 11 0 17 4 15 8 -3 4 -12 8 -20 8 -8 0
-14 -4 -14 -8z"/>
<path d="M1515 831 c-3 -6 -11 -9 -16 -5 -5 3 -8 1 -7 -5 2 -5 -6 -17 -17 -26
-18 -16 -18 -16 8 0 29 17 29 17 22 -7 -5 -20 -4 -21 5 -5 6 9 17 15 23 11 7
-3 4 1 -6 9 -13 11 -15 16 -5 20 7 2 10 7 7 11 -4 4 -10 2 -14 -3z"/>
<path d="M1570 819 c0 -5 5 -7 10 -4 6 3 10 8 10 11 0 2 -4 4 -10 4 -5 0 -10
-5 -10 -11z"/>
<path d="M625 780 c-3 -6 1 -7 9 -4 18 7 21 14 7 14 -6 0 -13 -4 -16 -10z"/>
<path d="M3665 770 c-3 -5 -8 -18 -10 -29 -3 -14 1 -18 16 -14 10 3 19 9 19
14 0 5 -8 6 -17 3 -17 -5 -17 -4 0 9 11 9 14 18 8 21 -5 4 -12 2 -16 -4z"/>
<path d="M690 719 c0 -5 5 -7 10 -4 6 3 10 8 10 11 0 2 -4 4 -10 4 -5 0 -10
-5 -10 -11z"/>
<path d="M3699 725 c-1 -5 -1 -14 0 -18 1 -5 -7 -6 -18 -2 -11 3 -22 2 -24 -3
-7 -10 34 -10 51 1 6 5 12 4 12 0 0 -5 -6 -15 -12 -23 -11 -12 -10 -12 3 -2
19 14 30 6 22 -16 -4 -13 -1 -12 11 3 13 16 15 17 10 3 -3 -10 -1 -18 4 -18
21 0 21 18 2 35 -11 10 -20 15 -20 10 0 -4 -9 3 -20 16 -10 13 -20 20 -21 14z"/>
<path d="M713 695 c0 -8 4 -12 9 -9 5 3 6 10 3 15 -9 13 -12 11 -12 -6z"/>
<path d="M4297 649 c7 -9 10 -19 6 -23 -4 -4 1 -4 10 0 10 3 17 7 15 8 -2 1
-12 8 -23 16 -18 14 -19 13 -8 -1z"/>
<path d="M790 640 c0 -6 4 -9 9 -6 5 4 12 1 14 -4 3 -6 4 -5 3 2 -3 15 -26 23
-26 8z"/>
<path d="M3736 627 c3 -10 9 -15 12 -12 3 3 0 11 -7 18 -10 9 -11 8 -5 -6z"/>
<path d="M4267 603 c3 -7 6 -13 8 -13 2 0 5 6 8 13 3 8 -1 14 -8 14 -7 0 -11
-6 -8 -14z"/>
<path d="M950 600 c0 -5 5 -10 11 -10 5 0 7 5 4 10 -3 6 -8 10 -11 10 -2 0 -4
-4 -4 -10z"/>
<path d="M4296 593 c-6 -14 -5 -15 5 -6 7 7 10 15 7 18 -3 3 -9 -2 -12 -12z"/>
<path d="M870 590 c-13 -8 -12 -10 3 -11 37 -3 42 -5 39 -18 -1 -7 2 -10 8 -6
8 5 8 11 -1 21 -6 7 -15 12 -19 9 -5 -3 -10 -1 -12 5 -2 6 -8 6 -18 0z"/>
<path d="M1174 580 c0 -15 4 -16 18 -9 10 5 18 13 18 16 0 3 -3 3 -7 0 -3 -4
-11 -3 -17 3 -8 6 -12 3 -12 -10z"/>
<path d="M3861 564 c0 -11 3 -14 6 -6 3 7 2 16 -1 19 -3 4 -6 -2 -5 -13z"/>
<path d="M956 538 c3 -5 10 -6 15 -3 13 9 11 12 -6 12 -8 0 -12 -4 -9 -9z"/>
<path d="M1053 529 c-2 -23 3 -25 10 -4 4 8 3 16 -1 19 -4 3 -9 -4 -9 -15z"/>
<path d="M1136 541 c-3 -4 6 -6 19 -3 14 2 25 6 25 8 0 8 -39 4 -44 -5z"/>
<path d="M3935 540 c-3 -5 -1 -10 4 -10 6 0 11 5 11 10 0 6 -2 10 -4 10 -3 0
-8 -4 -11 -10z"/>
<path d="M4149 523 c-13 -16 -12 -17 4 -4 16 13 21 21 13 21 -2 0 -10 -8 -17
-17z"/>
<path d="M4010 519 c0 -5 5 -7 10 -4 6 3 10 8 10 11 0 2 -4 4 -10 4 -5 0 -10
-5 -10 -11z"/>
</g>
</svg>
