<?xml version="1.0" standalone="no"?>
<!DOCTYPE svg PUBLIC "-//W3C//DTD SVG 20010904//EN"
 "http://www.w3.org/TR/2001/REC-SVG-20010904/DTD/svg10.dtd">
<svg version="1.0" xmlns="http://www.w3.org/2000/svg"
 width="1024.000000pt" height="1024.000000pt" viewBox="0 0 1024.000000 1024.000000"
 preserveAspectRatio="xMidYMid meet">
<metadata>
Created by potrace 1.14, written by Peter Selinger 2001-2017
</metadata>
<g transform="translate(0.000000,1024.000000) scale(0.100000,-0.100000)"
fill="#000000" stroke="none">
<path d="M0 5120 l0 -5120 5120 0 5120 0 0 5120 0 5120 -5120 0 -5120 0 0
-5120z m5139 3539 c7 10 11 0 16 -35 15 -112 69 -180 171 -214 59 -20 62 -22
46 -38 -10 -10 -36 -23 -58 -30 -53 -16 -118 -72 -137 -120 -8 -21 -19 -60
-23 -87 -7 -50 -7 -50 -19 -21 l-12 28 -8 -33 c-7 -32 -8 -29 -20 39 -20 111
-74 177 -160 198 -27 6 -65 35 -65 49 0 3 8 5 18 5 98 0 192 91 208 202 9 66
13 76 25 58 8 -13 10 -13 18 -1z m-1509 -349 c24 -24 24 -29 4 -58 -28 -41
-94 -22 -94 27 0 16 38 51 55 51 8 0 24 -9 35 -20z m2480 -38 c31 -25 32 -88
1 -113 -44 -36 -112 -16 -125 36 -7 27 15 80 36 88 27 11 67 6 88 -11z m-1920
-77 c26 -31 -13 -82 -44 -56 -21 18 -20 48 2 60 23 14 28 13 42 -4z m3068 -17
c19 -19 14 -46 -12 -63 -42 -27 -89 13 -66 56 12 22 59 26 78 7z m-4104 -144
c14 -36 -39 -59 -64 -29 -10 12 -10 18 0 30 17 20 56 19 64 -1z m3341 -70 c18
-18 16 -33 -7 -47 -35 -22 -66 21 -36 51 16 16 23 15 43 -4z m424 -87 c13 -56
45 -96 89 -114 27 -11 32 -17 21 -24 -10 -6 -8 -9 11 -9 20 -1 16 -5 -23 -24
-59 -29 -75 -51 -104 -136 -12 -36 -22 -55 -22 -42 -1 14 -6 22 -13 20 -8 -3
-20 19 -33 56 -18 53 -25 63 -62 81 -54 26 -58 56 -9 73 37 14 70 56 82 107
16 67 47 73 63 12z m-4260 -22 c15 -33 33 -53 70 -77 28 -17 51 -32 51 -34 0
-2 -15 -11 -32 -20 -34 -17 -88 -63 -88 -75 0 -3 -7 -23 -15 -43 -15 -35 -16
-35 -34 -17 -10 10 -21 30 -25 44 -7 29 -63 90 -76 82 -4 -3 -10 2 -14 10 -3
8 -12 15 -21 15 -24 0 -17 20 11 30 43 17 91 59 109 95 22 47 40 44 64 -10z
m1046 -17 c14 -42 -44 -66 -65 -27 -9 16 -8 24 5 39 20 22 52 16 60 -12z
m3850 -108 c8 -27 -12 -52 -39 -48 -21 3 -32 28 -22 54 8 22 54 18 61 -6z
m413 -123 c-2 -17 -10 -22 -33 -22 -35 0 -47 31 -20 51 25 18 57 0 53 -29z
m-4836 -83 c9 -25 23 -40 45 -49 41 -18 41 -28 1 -46 -21 -9 -40 -28 -51 -51
-10 -21 -22 -38 -26 -38 -4 0 -12 15 -19 34 -9 24 -24 38 -52 51 -44 20 -43
23 10 52 19 11 37 28 39 39 4 22 20 44 32 44 4 0 14 -16 21 -36z m4114 -79 c9
-24 25 -40 49 -49 43 -18 45 -41 6 -54 -18 -6 -41 -28 -57 -53 l-27 -43 -16
35 c-9 20 -32 42 -54 54 -20 11 -37 23 -37 27 0 4 16 14 36 23 26 11 40 25 51
55 9 22 20 40 25 40 5 0 16 -16 24 -35z m-4586 -365 c15 -29 12 -81 -7 -102
-26 -29 -87 -24 -112 8 -12 15 -21 36 -21 48 0 28 27 65 54 75 27 10 73 -6 86
-29z m2937 29 c43 -6 80 -14 83 -18 3 -4 13 -11 23 -14 11 -4 21 -16 24 -27 3
-11 9 -20 13 -20 5 0 5 -12 1 -27 -6 -22 -14 -29 -42 -32 -19 -3 -302 -5 -631
-5 l-596 -1 -26 28 c-26 28 -28 67 -4 67 6 0 18 9 28 20 12 14 38 22 86 29
102 13 947 13 1041 0z m2572 -99 c7 -41 20 -88 29 -104 23 -40 103 -93 151
-101 37 -6 39 -8 28 -26 -7 -11 -30 -24 -52 -30 -22 -6 -54 -20 -72 -30 -39
-24 -83 -109 -84 -163 -1 -23 -5 -52 -9 -66 l-8 -25 -1 28 c-1 33 -14 35 -28
5 -8 -19 -11 -12 -17 42 -14 123 -58 184 -148 205 -34 9 -44 14 -28 15 l25 2
-27 10 c-38 13 -35 24 10 38 102 33 156 105 168 228 6 54 8 60 20 44 12 -16
13 -15 14 8 1 44 17 1 29 -80z m-581 58 c18 -18 14 -36 -12 -53 -31 -21 -56
-10 -56 24 0 15 3 31 7 34 11 11 48 8 61 -5z m-5583 -28 c3 -11 22 -33 42 -49
l35 -29 -31 -16 c-17 -9 -33 -27 -37 -41 -8 -33 -40 -33 -48 1 -4 16 -19 30
-41 40 -42 17 -43 22 -6 35 16 6 36 25 47 45 21 39 30 42 39 14z m-227 -378
c7 -47 -47 -72 -68 -32 -16 31 4 62 38 58 19 -2 28 -10 30 -26z m5082 -68
c200 -15 20 -24 -605 -34 -346 -5 -663 -9 -702 -10 -89 0 -96 -17 -10 -23 103
-8 255 -57 241 -78 -3 -5 7 -10 23 -11 95 -6 -258 -15 -562 -15 -378 0 -942
11 -865 17 25 2 53 3 63 2 9 -1 17 3 17 8 0 6 -7 10 -15 10 -8 0 -15 5 -15 10
0 6 9 10 20 10 17 0 107 37 120 50 6 6 7 6 93 10 97 5 -260 17 -549 19 -425 2
-719 12 -697 25 32 19 3185 28 3443 10z m-4501 -18 c18 -22 -4 -58 -32 -54
-37 5 -36 68 1 68 11 0 25 -6 31 -14z m-788 -317 c9 -18 8 -25 -8 -41 -22 -22
-49 -16 -58 13 -14 43 44 67 66 28z m7162 4 c44 -50 17 -123 -47 -123 -63 0
-97 66 -60 118 19 28 83 31 107 5z m-6707 -61 c22 -15 24 -42 4 -62 -24 -24
-34 -25 -54 -4 -38 38 6 97 50 66z m3754 -14 c123 -1 185 -4 155 -8 -27 -4
-42 -8 -33 -8 9 -1 23 -8 30 -15 7 -7 34 -22 60 -33 27 -10 48 -25 48 -31 0
-7 9 -13 20 -13 14 0 20 -7 20 -23 0 -23 -4 -24 -97 -30 -134 -9 -1558 -7
-1663 2 -47 5 -74 9 -60 10 l25 2 -22 9 c-40 16 -25 27 47 34 39 4 70 12 70
17 0 27 56 59 104 59 19 0 41 7 49 15 18 17 285 24 752 18 160 -1 382 -4 495
-5z m2264 -81 c9 -14 7 -21 -7 -32 -33 -24 -71 11 -46 42 15 18 39 13 53 -10z
m-4161 -316 c97 -1 117 -4 117 -16 0 -8 6 -15 14 -15 8 0 17 -7 20 -16 5 -12
15 -14 44 -10 24 4 47 1 66 -9 36 -19 45 -19 68 2 15 13 21 14 27 5 9 -16 71
-4 78 14 4 12 178 14 1044 14 1032 0 1039 0 1039 -20 0 -19 7 -20 120 -20 113
0 120 -1 120 -20 0 -18 7 -20 79 -20 53 0 81 -4 83 -12 4 -10 13 -10 45 0 49
15 143 16 143 2 0 -5 -9 -10 -19 -10 -23 0 -36 -16 -21 -25 5 -3 10 -1 10 4 0
6 11 11 24 11 13 0 26 7 30 15 4 12 30 14 134 14 145 -1 198 6 206 27 7 17 82
19 92 3 9 -15 82 -6 124 15 41 20 57 20 77 0 9 -9 28 -14 47 -12 29 3 31 5 30
43 -2 42 0 38 42 -97 5 -15 -25 -17 -388 -20 -271 -2 -399 -7 -412 -14 -15 -9
-29 -9 -59 2 -45 16 -107 19 -107 5 0 -6 -199 -10 -502 -10 -277 0 -855 0
-1285 -1 -528 -1 -789 2 -802 10 -12 6 -125 10 -303 10 -255 0 -287 2 -318 18
-36 19 -64 63 -73 117 l-6 30 127 -7 c70 -3 180 -6 245 -7z m-975 -148 c-82
-2 -214 -2 -295 0 -82 1 -15 3 147 3 162 0 229 -2 148 -3z m3872 -186 c0 -14
-43 -125 -56 -145 -9 -13 -34 -32 -57 -43 -38 -17 -68 -19 -296 -19 l-253 0
-34 -34 c-38 -38 -44 -77 -19 -126 32 -62 5 -60 779 -60 l705 0 -22 -23 c-18
-19 -28 -21 -52 -15 -19 5 -33 4 -40 -4 -7 -8 -7 -9 1 -5 17 10 76 -22 67 -36
-5 -9 -3 -9 8 -1 17 13 58 12 79 -1 17 -11 44 -65 36 -72 -2 -3 -338 -6 -745
-7 -761 -3 -771 -4 -771 -41 0 -37 9 -37 887 -40 l858 -3 -1 -29 c-1 -15 -3
-49 -5 -75 l-3 -48 -2727 0 -2727 0 -4 73 c-3 39 -3 75 -2 78 2 4 388 6 858 6
913 -1 891 -2 884 47 l-3 21 -710 6 c-1034 9 -1034 9 -1028 25 3 8 19 14 37
15 92 1 137 9 148 24 5 6 8 4 8 -4 0 -11 5 -9 21 5 13 12 32 17 51 15 18 -1
34 3 41 13 8 9 34 16 72 18 40 3 59 8 58 16 -2 7 5 12 14 12 41 0 -3 13 -69
20 -42 4 178 8 519 9 l593 1 30 28 c55 49 49 143 -12 181 -14 9 -200 12 -767
11 l-748 0 13 57 c8 32 14 71 14 86 l0 29 899 -3 c886 -4 900 -4 927 16 26 20
45 20 1285 23 693 2 1259 1 1259 -1z m1050 -47 c0 -5 -5 -10 -11 -10 -8 0 -8
-4 -1 -12 5 -7 13 -35 17 -63 4 -27 12 -56 17 -62 8 -10 -53 -13 -303 -13
-279 0 -318 2 -349 18 -30 14 -35 23 -38 56 -4 43 23 82 62 89 48 10 606 7
606 -3z m-270 -414 c0 -3 -4 -8 -10 -11 -5 -3 -10 -1 -10 4 0 6 5 11 10 11 6
0 10 -2 10 -4z m1329 -582 c32 -40 26 -84 -13 -107 -16 -9 -250 -13 -976 -17
-779 -4 -960 -8 -980 -19 -14 -7 -142 -91 -286 -187 l-260 -174 -1202 0 -1203
0 -97 66 c-53 36 -146 101 -207 144 -170 121 -210 143 -289 157 -53 9 -310 12
-1027 13 -952 0 -956 0 -983 21 -32 25 -34 66 -5 103 l20 26 3744 0 3744 0 20
-26z m-1754 -304 c31 -9 724 -19 1333 -20 338 0 353 -1 372 -20 27 -27 26 -81
-1 -106 -20 -18 -50 -19 -815 -22 l-794 -2 -6 -28 c-11 -45 -45 -83 -92 -104
-61 -27 -116 -18 -178 29 -32 24 -51 33 -59 27 -7 -5 -102 -67 -210 -139 -108
-71 -237 -158 -287 -193 l-90 -63 -146 3 -146 3 245 159 c478 312 555 359 601
373 35 11 48 20 52 38 7 28 38 51 94 71 36 13 66 12 127 -6z m-3675 -52 c41
-21 192 -121 335 -224 613 -440 699 -498 775 -519 35 -10 452 -14 1960 -20
2086 -7 1948 -3 1971 -61 12 -33 -6 -74 -41 -91 -34 -17 -3795 -19 -3868 -2
-92 21 -281 124 -422 229 -215 161 -258 192 -390 284 -69 48 -168 118 -220
157 -52 38 -122 83 -154 99 l-59 30 -948 0 c-683 0 -955 3 -973 11 -63 29 -50
128 18 140 11 2 452 4 981 4 l961 0 74 -37z m-200 -320 c51 -35 72 -70 79
-135 l6 -58 151 -3 151 -3 28 -29 29 -30 -192 0 -192 0 0 -283 0 -283 1459 4
1459 5 72 -22 c131 -40 213 -151 214 -291 1 -80 -7 -300 -10 -300 -2 0 -12 9
-23 21 -16 18 -22 19 -42 9 -19 -11 -21 -10 -16 4 7 18 -1 20 -22 7 -8 -5 -10
-14 -6 -21 5 -9 4 -11 -3 -6 -7 4 -13 1 -14 -6 -1 -7 -4 64 -7 158 -6 168 -7
171 -34 207 -55 73 138 67 -2157 67 -2212 0 -2116 -2 -2134 45 -12 32 -6 75
14 95 19 19 33 20 551 20 l530 0 -3 239 -3 239 -31 39 c-62 77 -15 73 -792 73
-762 0 -739 -2 -761 61 -12 33 -2 63 28 86 12 9 182 12 718 13 l703 0 32 36
c41 45 80 63 139 64 32 0 56 -7 79 -22z m2821 -15 c-19 -15 -64 -47 -100 -70
l-65 -43 -761 0 -760 0 -94 65 c-52 36 -96 67 -99 70 -3 3 426 5 954 5 l959 0
-34 -27z m2599 -83 c23 -23 26 -76 7 -101 -29 -39 -38 -39 -697 -39 -554 0
-645 -2 -670 -15 -25 -13 -69 -15 -256 -13 l-225 3 63 37 c58 34 69 37 115 32
58 -7 105 6 172 47 25 16 71 38 101 49 53 18 84 19 713 20 644 0 657 0 677
-20z m-3482 -1454 c15 -8 40 -28 56 -45 24 -25 30 -41 33 -88 5 -75 -19 -116
-84 -145 -118 -52 -232 24 -219 147 6 56 27 89 76 123 38 25 97 29 138 8z"/>
<path d="M3765 5770 c-4 -6 10 -10 34 -10 23 0 41 5 41 10 0 6 -15 10 -34 10
-19 0 -38 -4 -41 -10z"/>
<path d="M7158 5653 c12 -2 32 -2 45 0 12 2 2 4 -23 4 -25 0 -35 -2 -22 -4z"/>
<path d="M2768 4943 c7 -3 16 -2 19 1 4 3 -2 6 -13 5 -11 0 -14 -3 -6 -6z"/>
<path d="M7032 3988 c-19 -19 -14 -45 10 -62 12 -9 26 -16 30 -16 12 0 38 31
38 45 0 35 -53 58 -78 33z"/>
<path d="M3152 3621 c-8 -4 -12 -19 -10 -32 2 -19 10 -25 34 -27 36 -4 59 18
49 48 -7 21 -48 28 -73 11z"/>
<path d="M5111 2073 c-24 -17 -27 -55 -6 -73 21 -17 64 -4 74 23 17 45 -28 78
-68 50z"/>
</g>
</svg>
