<?xml version="1.0" standalone="no"?>
<!DOCTYPE svg PUBLIC "-//W3C//DTD SVG 20010904//EN"
 "http://www.w3.org/TR/2001/REC-SVG-20010904/DTD/svg10.dtd">
<svg version="1.0" xmlns="http://www.w3.org/2000/svg"
 width="682.000000pt" height="682.000000pt" viewBox="0 0 682.000000 682.000000"
 preserveAspectRatio="xMidYMid meet">
<metadata>
Created by potrace 1.11, written by Peter Selinger 2001-2013
</metadata>
<g transform="translate(0.000000,682.000000) scale(0.100000,-0.100000)"
fill="#000000" stroke="none">
<path d="M3388 5805 c-1 -2 -34 -6 -73 -10 -38 -4 -79 -9 -90 -11 -10 -2 -35
-6 -55 -9 -35 -5 -60 -10 -97 -19 -10 -3 -45 -11 -78 -19 -97 -23 -174 -48
-270 -84 -99 -38 -341 -156 -366 -179 -8 -8 -19 -14 -23 -14 -8 0 -171 -110
-203 -136 -12 -11 -37 -30 -55 -44 -120 -91 -315 -292 -413 -425 -202 -273
-331 -542 -410 -855 -13 -52 -26 -108 -29 -125 -3 -16 -8 -41 -11 -55 -23
-115 -30 -212 -30 -415 0 -198 4 -250 30 -400 41 -242 118 -473 227 -683 64
-123 62 -120 146 -246 294 -439 727 -772 1222 -938 177 -60 309 -90 496 -112
155 -19 470 -14 619 8 690 105 1285 484 1658 1056 62 96 76 147 53 201 -42
102 -127 126 -263 76 -38 -14 -172 -45 -273 -63 -79 -13 -385 -12 -480 2 -159
25 -334 74 -449 126 -284 127 -497 289 -684 519 -109 134 -227 345 -282 504
-15 44 -30 87 -33 95 -9 25 -10 32 -31 130 -31 145 -36 192 -36 360 0 177 7
255 35 380 6 25 12 55 14 66 15 81 148 410 175 434 3 3 15 21 25 40 28 51 142
207 190 258 101 109 242 233 320 281 49 31 79 93 74 151 -6 62 -39 107 -97
133 -41 19 -68 21 -248 23 -110 2 -203 1 -205 -1z"/>
</g>
</svg>
