<?xml version="1.0" standalone="no"?>
<!DOCTYPE svg PUBLIC "-//W3C//DTD SVG 20010904//EN"
 "http://www.w3.org/TR/2001/REC-SVG-20010904/DTD/svg10.dtd">
<svg version="1.0" xmlns="http://www.w3.org/2000/svg"
 width="468.000000pt" height="468.000000pt" viewBox="0 0 468.000000 468.000000"
 preserveAspectRatio="xMidYMid meet">
<metadata>
Created by potrace 1.14, written by Peter Selinger 2001-2017
</metadata>
<g transform="translate(0.000000,468.000000) scale(0.100000,-0.100000)"
fill="#000000" stroke="none">
<path d="M2232 3753 c-11 -10 -317 -531 -679 -1158 -701 -1215 -690 -1193
-633 -1222 36 -19 2653 -19 2690 0 57 29 73 -2 -630 1217 -364 630 -670 1153
-682 1163 -11 9 -26 17 -33 17 -7 0 -22 -8 -33 -17z"/>
<path d="M2842 3413 c-22 -19 -125 -190 -125 -209 0 -6 223 -398 497 -872 282
-489 499 -875 503 -895 6 -39 -12 -80 -52 -117 l-27 -25 -1016 -3 -1017 -3
-52 -93 c-55 -96 -60 -114 -43 -147 11 -19 36 -19 1364 -19 1482 0 1383 -4
1374 57 -5 34 -1311 2301 -1340 2326 -11 9 -26 17 -33 17 -7 0 -22 -8 -33 -17z"/>
</g>
</svg>
